<svg width="20" height="20" viewBox="0 0 20 20" fill="none" xmlns="http://www.w3.org/2000/svg">
<path fill-rule="evenodd" clip-rule="evenodd" d="M9.74642 3.76654L5.34591 8.36513L18.4774 8.42856C18.6784 8.42935 18.8772 8.47203 19.0625 8.55416C19.2478 8.63629 19.416 8.75626 19.5574 8.90719C19.6988 9.05813 19.8107 9.23707 19.8867 9.43377C19.9626 9.63048 20.0011 9.84109 20 10.0535C19.999 10.2659 19.9585 10.4759 19.8808 10.6717C19.803 10.8675 19.6895 11.0451 19.5468 11.1945C19.4041 11.3439 19.2349 11.462 19.049 11.5422C18.863 11.6224 18.664 11.6631 18.4632 11.6619L5.33449 11.6L9.67643 16.2454C9.81795 16.3961 9.93 16.5748 10.0062 16.7712C10.0823 16.9677 10.1211 17.1782 10.1203 17.3905C10.1195 17.6029 10.0792 17.813 10.0015 18.0088C9.92389 18.2046 9.81051 18.3824 9.66786 18.5319C9.37946 18.8336 8.98959 19.002 8.58388 19C8.17816 18.998 7.78978 18.8258 7.50403 18.5213L0.362675 10.8962C0.128594 10.6459 -0.001857 10.3075 1.79568e-05 9.95546C0.00189291 9.60342 0.135939 9.26659 0.372672 9.01905L7.58973 1.46801C7.87788 1.16636 8.26752 0.998036 8.673 1.00002C9.07848 1.002 9.46662 1.17413 9.75213 1.47858C9.89388 1.62918 10.0062 1.80783 10.0826 2.00433C10.159 2.20084 10.1981 2.41134 10.1976 2.62381C10.197 2.83628 10.1569 3.04656 10.0795 3.24264C10.0021 3.43871 9.88892 3.61674 9.74642 3.76654Z" fill="#10523E"/>
</svg>
