<svg width="16" height="17" viewBox="0 0 16 17" fill="none" xmlns="http://www.w3.org/2000/svg">
<path fill-rule="evenodd" clip-rule="evenodd" d="M10.0529 6.96054L10.6777 8.0543H10.6761C10.8335 8.33055 10.8335 8.67104 10.6761 8.94729L9.71264 10.6337L9.17051 11.5829C9.01153 11.8592 8.72059 12.0294 8.40421 12.0294H5.39149C5.07512 12.0294 4.78259 11.8592 4.6252 11.5829L3.11804 8.94729C2.96065 8.67104 2.96065 8.33055 3.11804 8.0543L4.6252 5.41708C4.78418 5.14083 5.07512 4.97058 5.39149 4.97058H6.65382C6.27226 5.38656 5.63633 6.4498 5.54889 6.60078C5.54094 6.61202 5.53776 6.61844 5.53776 6.61844L4.60453 8.25024C4.5155 8.40604 4.5155 8.59556 4.60453 8.75135L5.53776 10.3831C5.6252 10.5389 5.78895 10.6337 5.96701 10.6337H7.83188C7.92091 10.6337 8.00517 10.6096 8.07989 10.5662C8.15302 10.5229 8.21661 10.4602 8.26113 10.3831L9.19436 8.75135C9.28339 8.59556 9.28339 8.40604 9.19436 8.25024L8.45668 6.96054H10.0529ZM11.3748 5.41708L12.882 8.0543C13.0393 8.33055 13.0393 8.67104 12.882 8.94729L11.3748 11.5829C11.2174 11.8592 10.9265 12.0294 10.6101 12.0294H9.34141C9.74513 11.5749 10.3564 10.5636 10.453 10.4038C10.4561 10.3987 10.4586 10.3945 10.4607 10.3912L10.4654 10.3815L11.3986 8.74974C11.4877 8.59395 11.4877 8.40443 11.3986 8.24864L10.4654 6.61684C10.3764 6.46104 10.2126 6.36628 10.0362 6.36628H8.1713C8.08227 6.36628 7.99801 6.39038 7.92329 6.43374C7.85016 6.4755 7.78657 6.53974 7.74205 6.61684L6.80882 8.24864C6.71979 8.40443 6.71979 8.59395 6.80882 8.74974L7.57512 10.0908H5.97893L5.32393 8.94569C5.16653 8.66944 5.16653 8.32894 5.32393 8.05269L6.28736 6.36628L6.83108 5.41708C6.98847 5.14083 7.27941 4.97058 7.59579 4.97058H10.6101C10.9249 4.97058 11.2174 5.14083 11.3748 5.41708Z" fill="#79C8B0"/>
<rect x="0.75" y="1.25" width="14.5" height="14.5" rx="7.25" stroke="#A5DACB" stroke-width="1.5"/>
</svg>
