<svg width="26" height="20" viewBox="0 0 26 20" fill="none" xmlns="http://www.w3.org/2000/svg">
<path fill-rule="evenodd" clip-rule="evenodd" d="M18.3374 5.99739L19.9619 8.84115H19.9578C20.367 9.5594 20.367 10.4447 19.9578 11.1629L17.4529 15.5476L16.0433 18.0155C15.63 18.7338 14.8735 19.1764 14.051 19.1764H6.21789C5.39531 19.1764 4.63474 18.7338 4.22552 18.0155L0.306916 11.1629C-0.102305 10.4447 -0.102305 9.5594 0.306916 8.84115L4.22552 1.98438C4.63887 1.26613 5.39531 0.823486 6.21789 0.823486H9.49992C8.50787 1.90504 6.85445 4.66946 6.62711 5.06199C6.60644 5.09122 6.59817 5.10793 6.59817 5.10793L4.17178 9.35061C3.9403 9.75567 3.9403 10.2484 4.17178 10.6535L6.59817 14.8962C6.82552 15.3012 7.25127 15.5476 7.71423 15.5476H12.5629C12.7944 15.5476 13.0134 15.485 13.2077 15.3722C13.3979 15.2595 13.5632 15.0966 13.6789 14.8962L16.1053 10.6535C16.3368 10.2484 16.3368 9.75567 16.1053 9.35061L14.1874 5.99739H18.3374ZM21.7745 1.98438L25.6931 8.84115C26.1023 9.5594 26.1023 10.4447 25.6931 11.1629L21.7745 18.0155C21.3653 18.7338 20.6088 19.1764 19.7862 19.1764H16.4877C17.5373 17.9946 19.1268 15.3652 19.3779 14.9498C19.3859 14.9366 19.3925 14.9256 19.3977 14.917L19.4101 14.892L21.8365 10.6493C22.068 10.2442 22.068 9.75149 21.8365 9.34643L19.4101 5.10375C19.1786 4.69869 18.7529 4.45232 18.294 4.45232H13.4454C13.2139 4.45232 12.9948 4.51495 12.8006 4.6277C12.6104 4.73627 12.4451 4.90331 12.3293 5.10375L9.90294 9.34643C9.67146 9.75149 9.67146 10.2442 9.90294 10.6493L11.8953 14.1362H7.74523L6.04221 11.1588C5.63299 10.4405 5.63299 9.55523 6.04221 8.83698L8.54714 4.45232L9.96081 1.98438C10.37 1.26613 11.1265 0.823486 11.949 0.823486H19.7862C20.6047 0.823486 21.3653 1.26613 21.7745 1.98438Z" fill="#00FFB7"/>
</svg>
