<svg width="19" height="19" viewBox="0 0 19 19" fill="none" xmlns="http://www.w3.org/2000/svg">
<path d="M9.50001 15.8335C11.1797 15.8335 12.7906 15.1662 13.9784 13.9785C15.1661 12.7908 15.8333 11.1799 15.8333 9.50016C15.8333 7.82046 15.1661 6.20955 13.9784 5.02182C12.7906 3.83409 11.1797 3.16683 9.50001 3.16683C7.82031 3.16683 6.2094 3.83409 5.02167 5.02182C3.83394 6.20955 3.16668 7.82046 3.16668 9.50016C3.16668 11.1799 3.83394 12.7908 5.02167 13.9785C6.2094 15.1662 7.82031 15.8335 9.50001 15.8335ZM9.50001 1.5835C10.5396 1.5835 11.5691 1.78827 12.5296 2.18612C13.4901 2.58397 14.3628 3.1671 15.0979 3.90223C15.8331 4.63736 16.4162 5.51009 16.8141 6.47059C17.2119 7.43108 17.4167 8.46053 17.4167 9.50016C17.4167 11.5998 16.5826 13.6134 15.0979 15.0981C13.6133 16.5828 11.5996 17.4168 9.50001 17.4168C5.12209 17.4168 1.58334 13.8543 1.58334 9.50016C1.58334 7.40053 2.41742 5.3869 3.90208 3.90223C5.38674 2.41757 7.40038 1.5835 9.50001 1.5835ZM9.89584 5.54183V9.69808L13.4583 11.8118L12.8646 12.7856L8.70834 10.2918V5.54183H9.89584Z" fill="#DC5D5E"/>
</svg>
