<svg width="14" height="15" viewBox="0 0 14 15" fill="none" xmlns="http://www.w3.org/2000/svg">
<path d="M13.8009 11.6299L8.45383 1.78125C8.31227 1.52115 8.1032 1.30403 7.84863 1.15275C7.59406 1.00147 7.30341 0.921631 7.00728 0.921631C6.71115 0.921631 6.4205 1.00147 6.16593 1.15275C5.91136 1.30403 5.70229 1.52115 5.56073 1.78125L0.208211 11.6299C0.0681149 11.8813 -0.00362542 12.1651 0.00014102 12.453C0.00390746 12.7408 0.083049 13.0226 0.229677 13.2703C0.376305 13.518 0.585298 13.723 0.835824 13.8648C1.08635 14.0065 1.36966 14.0802 1.65751 14.0783H12.3516C12.6371 14.0786 12.9177 14.0046 13.166 13.8637C13.4143 13.7228 13.6217 13.5197 13.7678 13.2745C13.914 13.0292 13.9939 12.7502 13.9997 12.4648C14.0055 12.1794 13.9369 11.8973 13.8009 11.6463V11.6299ZM6.18656 4.60298C6.18656 4.38459 6.27332 4.17514 6.42775 4.02071C6.58218 3.86628 6.79163 3.77952 7.01002 3.77952C7.22842 3.77952 7.43787 3.86628 7.5923 4.02071C7.74673 4.17514 7.83349 4.38459 7.83349 4.60298V8.38543C7.83349 8.60383 7.74673 8.81328 7.5923 8.96771C7.43787 9.12214 7.22842 9.20889 7.01002 9.20889C6.79163 9.20889 6.58218 9.12214 6.42775 8.96771C6.27332 8.81328 6.18656 8.60383 6.18656 8.38543V4.60298ZM7.03198 12.0197C6.84523 12.0197 6.66267 11.9643 6.50739 11.8605C6.35211 11.7568 6.23109 11.6093 6.15962 11.4368C6.08815 11.2642 6.06945 11.0744 6.10589 10.8912C6.14232 10.708 6.23225 10.5398 6.36431 10.4077C6.49636 10.2757 6.66461 10.1858 6.84777 10.1493C7.03094 10.1129 7.22079 10.1316 7.39333 10.203C7.56587 10.2745 7.71334 10.3955 7.81709 10.5508C7.92084 10.7061 7.97622 10.8887 7.97622 11.0754C7.97622 11.3258 7.87674 11.566 7.69966 11.7431C7.52258 11.9202 7.28241 12.0197 7.03198 12.0197Z" fill="#FBD1CC"/>
</svg>
