<svg width="120" height="121" viewBox="0 0 120 121" fill="none" xmlns="http://www.w3.org/2000/svg">
<path d="M91.195 32.24L81.715 15.83C80.725 14.11 78.885 13.05 76.905 13.05H57.945C55.955 13.05 54.125 14.11 53.135 15.83L49.715 21.74L43.655 32.24C42.665 33.96 42.665 36.08 43.655 37.8L47.775 44.93H57.815L52.995 36.58C52.435 35.61 52.435 34.43 52.995 33.46L58.865 23.3C59.145 22.82 59.545 22.42 60.005 22.16C60.475 21.89 61.005 21.74 61.565 21.74H73.295C74.405 21.74 75.435 22.33 75.995 23.3L81.865 33.46C82.425 34.43 82.425 35.61 81.865 36.58L75.995 46.74C75.995 46.74 75.985 46.76 75.965 46.8C75.555 47.47 71.545 54.08 68.925 57H76.905C78.895 57 80.725 55.94 81.715 54.22L91.195 37.81C92.185 36.09 92.185 33.97 91.195 32.25V32.24Z" fill="url(#paint0_linear_825_12254)"/>
<path d="M76.335 32.24L72.405 25.43H62.365L67.005 33.46C67.565 34.43 67.565 35.61 67.005 36.58L61.135 46.74C60.855 47.22 60.455 47.61 59.995 47.88C59.525 48.15 58.995 48.3 58.435 48.3H46.705C45.585 48.3 44.555 47.71 44.005 46.74L38.135 36.58C37.575 35.61 37.575 34.43 38.135 33.46L44.005 23.3C44.005 23.3 44.025 23.26 44.075 23.19C44.635 22.25 48.645 15.63 51.045 13.04H43.105C41.115 13.04 39.285 14.1 38.285 15.82L28.805 32.23C27.815 33.95 27.815 36.07 28.805 37.79L38.285 54.2C39.275 55.92 41.115 56.98 43.105 56.98H62.055C64.045 56.98 65.875 55.92 66.875 54.2L70.285 48.29L76.345 37.79C77.335 36.07 77.335 33.95 76.345 32.23L76.335 32.24Z" fill="url(#paint1_linear_825_12254)"/>
<path d="M16.775 74.96C16.775 68.57 21.595 64 28.085 64C31.685 64 34.695 65.33 36.655 67.75L33.565 70.66C32.165 69.03 30.415 68.18 28.325 68.18C24.425 68.18 21.655 70.97 21.655 74.96C21.655 78.95 24.425 81.74 28.325 81.74C30.405 81.74 32.165 80.89 33.565 79.23L36.655 82.14C34.695 84.59 31.685 85.92 28.055 85.92C21.595 85.92 16.775 81.35 16.775 74.96Z" fill="white"/>
<path d="M56.025 81.62V85.56H39.895V64.37H55.635V68.31H44.685V72.91H54.355V76.72H44.685V81.62H56.025Z" fill="white"/>
<path d="M73.135 85.55L69.115 79.65H64.685V85.55H59.865V64.36H68.885C74.445 64.36 77.935 67.3 77.935 72.05C77.935 75.23 76.355 77.56 73.655 78.74L78.325 85.55H73.145H73.135ZM68.615 68.35H64.685V75.74H68.615C71.565 75.74 73.045 74.35 73.045 72.05C73.045 69.75 71.555 68.36 68.615 68.36V68.35Z" fill="white"/>
<path d="M80.425 74.96C80.425 68.66 85.2451 64 91.8251 64C98.4051 64 103.225 68.63 103.225 74.96C103.225 81.29 98.375 85.92 91.8251 85.92C85.2751 85.92 80.425 81.26 80.425 74.96ZM98.335 74.96C98.335 70.93 95.535 68.18 91.815 68.18C88.095 68.18 85.295 70.93 85.295 74.96C85.295 78.99 88.095 81.74 91.815 81.74C95.535 81.74 98.335 78.99 98.335 74.96Z" fill="white"/>
<defs>
<linearGradient id="paint0_linear_825_12254" x1="75.445" y1="15.83" x2="60.465" y2="51.63" gradientUnits="userSpaceOnUse">
<stop stop-color="#45B97C"/>
<stop offset="0.05" stop-color="#45B984"/>
<stop offset="0.23" stop-color="#46BDA2"/>
<stop offset="0.39" stop-color="#46BFB4"/>
<stop offset="0.51" stop-color="#47C0BB"/>
<stop offset="0.61" stop-color="#3BABA9"/>
<stop offset="0.81" stop-color="#1E777B"/>
<stop offset="1" stop-color="#00424D"/>
</linearGradient>
<linearGradient id="paint1_linear_825_12254" x1="41.985" y1="52.42" x2="63.045" y2="17.79" gradientUnits="userSpaceOnUse">
<stop stop-color="#45B97C"/>
<stop offset="0.05" stop-color="#45B984"/>
<stop offset="0.23" stop-color="#46BDA2"/>
<stop offset="0.39" stop-color="#46BFB4"/>
<stop offset="0.51" stop-color="#47C0BB"/>
<stop offset="0.61" stop-color="#3BABA9"/>
<stop offset="0.81" stop-color="#1E777B"/>
<stop offset="1" stop-color="#00424D"/>
</linearGradient>
</defs>
</svg>
