<svg width="65" height="45" viewBox="0 0 65 45" fill="none" xmlns="http://www.w3.org/2000/svg">
<path d="M63.5399 19.9986L54.0599 3.58859C53.0699 1.86859 51.2299 0.808594 49.2499 0.808594H30.2899C28.2999 0.808594 26.4699 1.86859 25.4799 3.58859L22.0599 9.49859L15.9999 19.9986C15.0099 21.7186 15.0099 23.8386 15.9999 25.5586L20.1199 32.6886H30.1599L25.3399 24.3386C24.7799 23.3686 24.7799 22.1886 25.3399 21.2186L31.2099 11.0586C31.4899 10.5786 31.8899 10.1786 32.3499 9.91859C32.8199 9.64859 33.3499 9.49859 33.9099 9.49859H45.6399C46.7499 9.49859 47.7799 10.0886 48.3399 11.0586L54.2099 21.2186C54.7699 22.1886 54.7699 23.3686 54.2099 24.3386L48.3399 34.4986C48.3399 34.4986 48.3299 34.5186 48.3099 34.5586C47.8999 35.2286 43.8899 41.8386 41.2699 44.7586H49.2499C51.2399 44.7586 53.0699 43.6986 54.0599 41.9786L63.5399 25.5686C64.5299 23.8486 64.5299 21.7286 63.5399 20.0086V19.9986Z" fill="url(#paint0_linear_2824_2100)"/>
<path d="M48.68 19.9988L44.75 13.1888H34.71L39.35 21.2188C39.91 22.1888 39.91 23.3688 39.35 24.3388L33.48 34.4988C33.2 34.9788 32.8 35.3688 32.34 35.6388C31.87 35.9088 31.34 36.0588 30.78 36.0588H19.05C17.93 36.0588 16.9 35.4688 16.35 34.4988L10.48 24.3388C9.91997 23.3688 9.91997 22.1888 10.48 21.2188L16.35 11.0588C16.35 11.0588 16.37 11.0188 16.42 10.9488C16.98 10.0088 20.99 3.38883 23.39 0.798828H15.45C13.46 0.798828 11.63 1.85883 10.63 3.57883L1.14997 19.9888C0.159971 21.7088 0.159971 23.8288 1.14997 25.5488L10.63 41.9588C11.62 43.6788 13.46 44.7388 15.45 44.7388H34.4C36.39 44.7388 38.22 43.6788 39.22 41.9588L42.63 36.0488L48.69 25.5488C49.68 23.8288 49.68 21.7088 48.69 19.9888L48.68 19.9988Z" fill="url(#paint1_linear_2824_2100)"/>
<defs>
<linearGradient id="paint0_linear_2824_2100" x1="47.7899" y1="3.58859" x2="32.8099" y2="39.3886" gradientUnits="userSpaceOnUse">
<stop stop-color="#45B97C"/>
<stop offset="0.05" stop-color="#45B984"/>
<stop offset="0.23" stop-color="#46BDA2"/>
<stop offset="0.39" stop-color="#46BFB4"/>
<stop offset="0.51" stop-color="#47C0BB"/>
<stop offset="0.61" stop-color="#3BABA9"/>
<stop offset="0.81" stop-color="#1E777B"/>
<stop offset="1" stop-color="#00424D"/>
</linearGradient>
<linearGradient id="paint1_linear_2824_2100" x1="14.33" y1="40.1788" x2="35.39" y2="5.54883" gradientUnits="userSpaceOnUse">
<stop stop-color="#45B97C"/>
<stop offset="0.05" stop-color="#45B984"/>
<stop offset="0.23" stop-color="#46BDA2"/>
<stop offset="0.39" stop-color="#46BFB4"/>
<stop offset="0.51" stop-color="#47C0BB"/>
<stop offset="0.61" stop-color="#3BABA9"/>
<stop offset="0.81" stop-color="#1E777B"/>
<stop offset="1" stop-color="#00424D"/>
</linearGradient>
</defs>
</svg>
