<svg width="117" height="55" viewBox="0 0 117 55" fill="none" xmlns="http://www.w3.org/2000/svg">
<g filter="url(#filter0_d_983_9193)">
<path d="M48.9454 10.3425L44.119 1.98796C43.615 1.11229 42.6782 0.572632 41.6702 0.572632H32.0175C31.0043 0.572632 30.0727 1.11229 29.5686 1.98796L27.8275 4.9968L24.7423 10.3425C24.2383 11.2181 24.2383 12.2974 24.7423 13.1731L26.8398 16.8031H31.9513L29.4974 12.552C29.2123 12.0582 29.2123 11.4574 29.4974 10.9636L32.4858 5.79101C32.6284 5.54664 32.832 5.343 33.0662 5.21063C33.3055 5.07317 33.5753 4.9968 33.8604 4.9968H39.8323C40.3974 4.9968 40.9218 5.29718 41.2069 5.79101L44.1954 10.9636C44.4805 11.4574 44.4805 12.0582 44.1954 12.552L41.2069 17.7246C41.2069 17.7246 41.2018 17.7347 41.1916 17.7551C40.9829 18.0962 38.9414 21.4614 37.6075 22.948H41.6702C42.6833 22.948 43.615 22.4084 44.119 21.5327L48.9454 13.1782C49.4494 12.3025 49.4494 11.2232 48.9454 10.3476V10.3425Z" fill="url(#paint0_linear_983_9193)"/>
<path d="M41.3846 10.3425L39.3838 6.87541H34.2724L36.6346 10.9636C36.9197 11.4574 36.9197 12.0582 36.6346 12.552L33.6461 17.7246C33.5036 17.9689 33.3 18.1675 33.0658 18.3049C32.8265 18.4424 32.5567 18.5188 32.2715 18.5188H26.2997C25.7295 18.5188 25.2051 18.2184 24.9251 17.7246L21.9366 12.552C21.6515 12.0582 21.6515 11.4574 21.9366 10.9636L24.9251 5.79101C24.9251 5.79101 24.9353 5.77064 24.9607 5.73501C25.2458 5.25644 27.2874 1.88613 28.5092 0.567535H24.4669C23.4538 0.567535 22.5221 1.10719 22.013 1.98286L17.1866 10.3374C16.6826 11.213 16.6826 12.2923 17.1866 13.168L22.013 21.5225C22.517 22.3982 23.4538 22.9378 24.4669 22.9378H34.1145C35.1277 22.9378 36.0593 22.3982 36.5684 21.5225L38.3045 18.5137L41.3897 13.168C41.8937 12.2923 41.8937 11.213 41.3897 10.3374L41.3846 10.3425Z" fill="url(#paint1_linear_983_9193)"/>
<path d="M56.5361 11.7578C56.5361 8.50455 58.99 6.17792 62.2942 6.17792C64.127 6.17792 65.6594 6.85503 66.6572 8.08708L65.0841 9.56859C64.3713 8.73874 63.4804 8.306 62.4164 8.306C60.4308 8.306 59.0206 9.72642 59.0206 11.7578C59.0206 13.7891 60.4308 15.2095 62.4164 15.2095C63.4753 15.2095 64.3713 14.7768 65.0841 13.9317L66.6572 15.4132C65.6594 16.6605 64.127 17.3376 62.2789 17.3376C58.99 17.3376 56.5361 15.011 56.5361 11.7578Z" fill="white"/>
<path d="M76.5186 15.1485V17.1543H68.3066V6.36121H76.32V8.3671H70.7453V10.709H75.6684V12.6487H70.7453V15.1434H76.5186V15.1485Z" fill="white"/>
<path d="M85.2295 17.1543L83.1829 14.1506H80.9275V17.1543H78.4736V6.36121H83.0658C85.8965 6.36121 87.6733 7.85799 87.6733 10.2763C87.6733 11.8952 86.8689 13.0815 85.4943 13.6822L87.8718 17.1493H85.2346L85.2295 17.1543ZM82.9283 8.39765H80.9275V12.16H82.9283C84.4302 12.16 85.1837 11.4523 85.1837 10.2814C85.1837 9.1104 84.4251 8.40274 82.9283 8.40274V8.39765Z" fill="white"/>
<path d="M88.9414 11.7578C88.9414 8.55037 91.3953 6.17792 94.7453 6.17792C98.0952 6.17792 100.549 8.5351 100.549 11.7578C100.549 14.9804 98.0799 17.3376 94.7453 17.3376C91.4106 17.3376 88.9414 14.9652 88.9414 11.7578ZM98.0596 11.7578C98.0596 9.70605 96.6341 8.306 94.7402 8.306C92.8463 8.306 91.4208 9.70605 91.4208 11.7578C91.4208 13.8095 92.8463 15.2095 94.7402 15.2095C96.6341 15.2095 98.0596 13.8095 98.0596 11.7578Z" fill="white"/>
</g>
<defs>
<filter id="filter0_d_983_9193" x="0.808594" y="0.567535" width="115.74" height="54.3805" filterUnits="userSpaceOnUse" color-interpolation-filters="sRGB">
<feFlood flood-opacity="0" result="BackgroundImageFix"/>
<feColorMatrix in="SourceAlpha" type="matrix" values="0 0 0 0 0 0 0 0 0 0 0 0 0 0 0 0 0 0 127 0" result="hardAlpha"/>
<feOffset dy="16"/>
<feGaussianBlur stdDeviation="8"/>
<feComposite in2="hardAlpha" operator="out"/>
<feColorMatrix type="matrix" values="0 0 0 0 0 0 0 0 0 0 0 0 0 0 0 0 0 0 0.16 0"/>
<feBlend mode="normal" in2="BackgroundImageFix" result="effect1_dropShadow_983_9193"/>
<feBlend mode="normal" in="SourceGraphic" in2="effect1_dropShadow_983_9193" result="shape"/>
</filter>
<linearGradient id="paint0_linear_983_9193" x1="40.932" y1="1.98796" x2="33.3055" y2="20.2141" gradientUnits="userSpaceOnUse">
<stop stop-color="#45B97C"/>
<stop offset="0.05" stop-color="#45B984"/>
<stop offset="0.23" stop-color="#46BDA2"/>
<stop offset="0.39" stop-color="#46BFB4"/>
<stop offset="0.51" stop-color="#47C0BB"/>
<stop offset="0.61" stop-color="#3BABA9"/>
<stop offset="0.81" stop-color="#1E777B"/>
<stop offset="1" stop-color="#00424D"/>
</linearGradient>
<linearGradient id="paint1_linear_983_9193" x1="23.8916" y1="20.6163" x2="34.6135" y2="2.98581" gradientUnits="userSpaceOnUse">
<stop stop-color="#45B97C"/>
<stop offset="0.05" stop-color="#45B984"/>
<stop offset="0.23" stop-color="#46BDA2"/>
<stop offset="0.39" stop-color="#46BFB4"/>
<stop offset="0.51" stop-color="#47C0BB"/>
<stop offset="0.61" stop-color="#3BABA9"/>
<stop offset="0.81" stop-color="#1E777B"/>
<stop offset="1" stop-color="#00424D"/>
</linearGradient>
</defs>
</svg>
