<svg width="34" height="23" viewBox="0 0 34 23" fill="none" xmlns="http://www.w3.org/2000/svg">
<path d="M32.9454 10.3425L28.119 1.98796C27.615 1.11229 26.6782 0.572632 25.6702 0.572632H16.0175C15.0043 0.572632 14.0727 1.11229 13.5686 1.98796L11.8275 4.9968L8.74227 10.3425C8.23825 11.2181 8.23825 12.2974 8.74227 13.1731L10.8398 16.8031H15.9513L13.4974 12.552C13.2123 12.0582 13.2123 11.4574 13.4974 10.9636L16.4858 5.79101C16.6284 5.54664 16.832 5.343 17.0662 5.21063C17.3055 5.07317 17.5753 4.9968 17.8604 4.9968H23.8323C24.3974 4.9968 24.9218 5.29718 25.2069 5.79101L28.1954 10.9636C28.4805 11.4574 28.4805 12.0582 28.1954 12.552L25.2069 17.7246C25.2069 17.7246 25.2018 17.7347 25.1916 17.7551C24.9829 18.0962 22.9414 21.4614 21.6075 22.948H25.6702C26.6833 22.948 27.615 22.4084 28.119 21.5327L32.9454 13.1782C33.4494 12.3025 33.4494 11.2232 32.9454 10.3476V10.3425Z" fill="url(#paint0_linear_989_17982)"/>
<path d="M25.3846 10.3425L23.3838 6.87541H18.2724L20.6346 10.9636C20.9197 11.4574 20.9197 12.0582 20.6346 12.552L17.6461 17.7246C17.5036 17.9689 17.3 18.1675 17.0658 18.3049C16.8265 18.4424 16.5567 18.5188 16.2715 18.5188H10.2997C9.72948 18.5188 9.2051 18.2184 8.92509 17.7246L5.93661 12.552C5.65151 12.0582 5.65151 11.4574 5.93661 10.9636L8.92509 5.79101C8.92509 5.79101 8.93527 5.77064 8.96072 5.73501C9.24583 5.25644 11.2874 1.88613 12.5092 0.567535H8.46689C7.45376 0.567535 6.52209 1.10719 6.01297 1.98286L1.18661 10.3374C0.682589 11.213 0.682589 12.2923 1.18661 13.168L6.01297 21.5225C6.51699 22.3982 7.45376 22.9378 8.46689 22.9378H18.1145C19.1277 22.9378 20.0593 22.3982 20.5684 21.5225L22.3045 18.5137L25.3897 13.168C25.8937 12.2923 25.8937 11.213 25.3897 10.3374L25.3846 10.3425Z" fill="url(#paint1_linear_989_17982)"/>
<defs>
<linearGradient id="paint0_linear_989_17982" x1="24.932" y1="1.98796" x2="17.3055" y2="20.2141" gradientUnits="userSpaceOnUse">
<stop stop-color="#45B97C"/>
<stop offset="0.05" stop-color="#45B984"/>
<stop offset="0.23" stop-color="#46BDA2"/>
<stop offset="0.39" stop-color="#46BFB4"/>
<stop offset="0.51" stop-color="#47C0BB"/>
<stop offset="0.61" stop-color="#3BABA9"/>
<stop offset="0.81" stop-color="#1E777B"/>
<stop offset="1" stop-color="#00424D"/>
</linearGradient>
<linearGradient id="paint1_linear_989_17982" x1="7.89159" y1="20.6163" x2="18.6135" y2="2.98581" gradientUnits="userSpaceOnUse">
<stop stop-color="#45B97C"/>
<stop offset="0.05" stop-color="#45B984"/>
<stop offset="0.23" stop-color="#46BDA2"/>
<stop offset="0.39" stop-color="#46BFB4"/>
<stop offset="0.51" stop-color="#47C0BB"/>
<stop offset="0.61" stop-color="#3BABA9"/>
<stop offset="0.81" stop-color="#1E777B"/>
<stop offset="1" stop-color="#00424D"/>
</linearGradient>
</defs>
</svg>
