<svg width="20" height="20" viewBox="0 0 20 20" fill="none" xmlns="http://www.w3.org/2000/svg">
<circle cx="10" cy="10" r="10" fill="#F37767"/>
<path fill-rule="evenodd" clip-rule="evenodd" d="M14.155 5.30144C13.7641 4.89952 13.1303 4.89952 12.7394 5.30144L9.99998 8.11806L7.26061 5.30153C6.86971 4.89961 6.23592 4.89961 5.84501 5.30153C5.4541 5.70345 5.4541 6.35509 5.84501 6.75701L8.58438 9.57354L5.84463 12.3905C5.45373 12.7924 5.45373 13.444 5.84463 13.8459C6.23554 14.2479 6.86933 14.2479 7.26024 13.8459L9.99998 11.029L12.7398 13.846C13.1307 14.2479 13.7645 14.2479 14.1554 13.846C14.5463 13.4441 14.5463 12.7925 14.1554 12.3905L11.4156 9.57354L14.155 6.75692C14.546 6.355 14.546 5.70336 14.155 5.30144Z" fill="white"/>
</svg>
