<svg width="80" height="80" viewBox="0 0 80 80" fill="none" xmlns="http://www.w3.org/2000/svg">
<rect width="80" height="80" rx="40" fill="#A5DACB" fill-opacity="0.5"/>
<path d="M49.3334 38.6667C50.84 38.6667 52.2134 38.1467 53.3334 37.3067V49.3333C53.3334 50.8 52.1334 52 50.6667 52H29.3334C27.8667 52 26.6667 50.8 26.6667 49.3333V33.3333C26.6667 31.8667 27.8667 30.6667 29.3334 30.6667H42.8C42.72 31.0933 42.6667 31.5467 42.6667 32C42.6667 33.9733 43.5334 35.72 44.8934 36.9467L40 40L31.0667 34.4133C30.3067 33.9467 29.3334 34.48 29.3334 35.3733C29.3334 35.76 29.5334 36.12 29.8667 36.3333L39.2934 42.2267C39.72 42.4933 40.28 42.4933 40.7067 42.2267L47.0667 38.2533C47.7867 38.5067 48.5334 38.6667 49.3334 38.6667ZM45.3334 32C45.3334 34.2133 47.12 36 49.3334 36C51.5467 36 53.3334 34.2133 53.3334 32C53.3334 29.7867 51.5467 28 49.3334 28C47.12 28 45.3334 29.7867 45.3334 32Z" fill="white"/>
</svg>
