<svg width="14" height="14" viewBox="0 0 14 14" fill="none" xmlns="http://www.w3.org/2000/svg">
<path fill-rule="evenodd" clip-rule="evenodd" d="M12.6124 12.6122C13.1291 12.0956 13.1291 11.258 12.6124 10.7413L8.87082 6.99973L12.6122 3.25838C13.1288 2.74177 13.1288 1.90417 12.6122 1.38756C12.0956 0.870946 11.258 0.870947 10.7413 1.38756L7 5.12891L3.25833 1.38723C2.74171 0.870618 1.90412 0.870617 1.3875 1.38723C0.870888 1.90384 0.870889 2.74144 1.3875 3.25806L5.12918 6.99973L1.38723 10.7417C0.870618 11.2583 0.870617 12.0959 1.38723 12.6125C1.90384 13.1291 2.74144 13.1291 3.25806 12.6125L7 8.87055L10.7416 12.6122C11.2582 13.1288 12.0958 13.1288 12.6124 12.6122Z" fill="white"/>
</svg>
