<svg width="20" height="15" viewBox="0 0 20 15" fill="none" xmlns="http://www.w3.org/2000/svg">
<path d="M15.2125 8.75L11.4426 12.5304C11.053 12.9211 11.0535 13.5535 11.4436 13.9436L11.7929 14.2929C12.1834 14.6834 12.8166 14.6834 13.2071 14.2929L19.2929 8.20711C19.6834 7.81658 19.6834 7.18342 19.2929 6.79289L13.2071 0.707107C12.8166 0.316583 12.1834 0.316582 11.7929 0.707107L11.4436 1.05638C11.0535 1.44652 11.053 2.07892 11.4426 2.46961L15.2125 6.25H1C0.447716 6.25 0 6.69772 0 7.25V7.75C0 8.30229 0.447715 8.75 1 8.75H15.2125Z" fill="#00B299"/>
</svg>
