<svg width="20" height="22" viewBox="0 0 20 22" fill="none" xmlns="http://www.w3.org/2000/svg">
<path d="M12.667 16.333H6.00033V7.66634C6.00033 7.29967 5.70033 6.99967 5.33366 6.99967C4.96699 6.99967 4.66699 7.29967 4.66699 7.66634V16.333C4.66699 17.0663 5.26699 17.6663 6.00033 17.6663H12.667C13.0337 17.6663 13.3337 17.3663 13.3337 16.9997C13.3337 16.633 13.0337 16.333 12.667 16.333ZM16.0003 13.6663V5.66634C16.0003 4.93301 15.4003 4.33301 14.667 4.33301H8.66699C7.93366 4.33301 7.33366 4.93301 7.33366 5.66634V13.6663C7.33366 14.3997 7.93366 14.9997 8.66699 14.9997H14.667C15.4003 14.9997 16.0003 14.3997 16.0003 13.6663ZM14.667 13.6663H8.66699V5.66634H14.667V13.6663Z" fill="white"/>
</svg>
