<svg width="61" height="61" viewBox="0 0 61 61" fill="none" xmlns="http://www.w3.org/2000/svg">
<rect width="60" height="60" rx="30" transform="matrix(-1 0 0 1 60.5 0.5)" fill="#FBD1CC" fill-opacity="0.25"/>
<path fill-rule="evenodd" clip-rule="evenodd" d="M30.5187 52.0033C26.2647 52.007 22.1052 50.7489 18.5664 48.3881C15.0277 46.0273 12.2687 42.6699 10.6385 38.7406C9.00824 34.8114 8.58009 30.4869 9.40819 26.3143C10.2363 22.1417 12.2834 18.3085 15.2905 15.2996C18.2976 12.2907 22.1297 10.2414 26.3018 9.41087C30.4739 8.58035 34.7986 9.00598 38.7288 10.6339C42.659 12.2618 46.018 15.0189 48.3809 18.5563C50.7437 22.0937 52.0043 26.2525 52.0031 30.5064C51.9965 36.2036 49.7312 41.6656 45.7039 45.6953C41.6766 49.725 36.2158 51.9934 30.5187 52.0033ZM30.5187 10.8786C26.6359 10.8749 22.8392 12.0229 19.6089 14.1774C16.3787 16.3318 13.86 19.396 12.3716 22.9822C10.8831 26.5684 10.4917 30.5155 11.2469 34.3241C12.0022 38.1328 13.8701 41.6319 16.6143 44.3788C19.3586 47.1257 22.8559 48.9969 26.6638 49.7558C30.4718 50.5146 34.4192 50.127 38.0069 48.642C41.5945 47.157 44.661 44.6412 46.8186 41.413C48.9762 38.1849 50.1278 34.3893 50.1278 30.5064C50.1212 25.3061 48.0537 20.3203 44.3782 16.6414C40.7028 12.9624 35.719 10.8902 30.5187 10.8786ZM32.2627 25.0182C32.2627 24.055 31.4819 23.2742 30.5187 23.2742C29.5555 23.2742 28.7747 24.055 28.7747 25.0182V41.5956C28.7747 42.5588 29.5555 43.3396 30.5187 43.3396C31.4819 43.3396 32.2627 42.5588 32.2627 41.5956V25.0182ZM32.2564 19.4111C32.2564 20.3743 31.4756 21.1551 30.5124 21.1551C29.5493 21.1551 28.7684 20.3743 28.7684 19.4111C28.7684 18.4479 29.5493 17.6671 30.5124 17.6671C31.4756 17.6671 32.2564 18.4479 32.2564 19.4111Z" fill="#DC5D5E"/>
</svg>
