<svg width="72" height="72" viewBox="0 0 72 72" fill="none" xmlns="http://www.w3.org/2000/svg">
<rect width="72" height="72" rx="36" fill="#333333" fill-opacity="0.5"/>
<path fill-rule="evenodd" clip-rule="evenodd" d="M42.4952 29.1247C42.4952 31.9073 42.4952 35.3089 46.2453 35.9077V48.5004C46.2453 49.1908 46.8049 49.7504 47.4953 49.7504C48.1857 49.7504 48.7453 49.1908 48.7453 48.5004V35.9077C52.4954 35.3089 52.4954 31.9073 52.4954 29.1247C52.4954 25.2697 50.2991 22.2496 47.4953 22.2496C44.6915 22.2496 42.4952 25.2697 42.4952 29.1247ZM47.4953 24.7496C46.3128 24.7496 44.9953 26.5472 44.9953 29.1247C44.9953 32.7273 45.2103 33.4998 47.4953 33.4998C49.7804 33.4998 49.9954 32.7273 49.9954 29.1247C49.9954 26.5472 48.6778 24.7496 47.4953 24.7496ZM39.504 48.0446C39.504 48.6943 38.9772 49.221 38.3275 49.221C37.6778 49.221 37.1511 48.6943 37.1511 48.0446V39.5445H33.7593C33.0911 39.5445 32.4523 39.2586 32.0064 38.7598C31.5605 38.2621 31.3476 37.5951 31.4217 36.9304L32.2005 29.9246C32.3864 28.2493 32.9782 26.6234 33.9134 25.2199L35.1934 23.2999C35.7722 22.4317 36.8334 22.0505 37.8334 22.3529C38.8322 22.6576 39.504 23.5623 39.504 24.607V48.0446ZM37.1511 24.607L35.8711 26.5269C35.144 27.6175 34.6828 28.8822 34.5381 30.1857L33.7593 37.1915H37.1511V24.607ZM25.3038 33.6622H26.5627C27.8603 33.6622 28.9156 32.6069 28.9156 31.3093V24.2505C28.9156 23.6008 28.3889 23.0741 27.7391 23.0741C27.0894 23.0741 26.5627 23.6008 26.5627 24.2505V31.3093H25.3862V24.2505C25.3862 23.6008 24.8595 23.0741 24.2097 23.0741C23.56 23.0741 23.0333 23.6008 23.0333 24.2505V31.3093H21.8568V24.2505C21.8568 23.6008 21.3301 23.0741 20.6804 23.0741C20.0306 23.0741 19.5039 23.6008 19.5039 24.2505V31.3093C19.5039 32.6069 20.5592 33.6622 21.8568 33.6622H23.0038V47.5857C23.0038 48.2208 23.5187 48.7357 24.1538 48.7357C24.7889 48.7357 25.3038 48.2208 25.3038 47.5857V33.6622Z" fill="#59B29F"/>
</svg>
