<svg width="130" height="99" viewBox="0 0 130 99" fill="none" xmlns="http://www.w3.org/2000/svg">
<path d="M121.625 0H8.39456C6.24951 0 4.19232 0.869194 2.67554 2.41637C1.15876 3.96354 0.306641 6.06196 0.306641 8.25V90.75C0.306641 92.938 1.15876 95.0365 2.67554 96.5836C4.19232 98.1308 6.24951 99 8.39456 99H121.625C123.77 99 125.828 98.1308 127.344 96.5836C128.861 95.0365 129.713 92.938 129.713 90.75V8.25C129.713 6.06196 128.861 3.96354 127.344 2.41637C125.828 0.869194 123.77 0 121.625 0ZM115.398 90.75H15.1075L43.4152 60.885L37.5919 55.1513L8.39456 85.965V14.52L58.661 65.5462C60.1763 67.0828 62.2262 67.9453 64.3629 67.9453C66.4997 67.9453 68.5496 67.0828 70.0649 65.5462L121.625 13.2413V85.4287L91.8619 55.0688L86.1599 60.885L115.398 90.75ZM13.6921 8.25H115.074L64.3629 59.6887L13.6921 8.25Z" fill="#00B299"/>
</svg>
