<svg width="18" height="14" viewBox="0 0 18 14" fill="none" xmlns="http://www.w3.org/2000/svg">
<path fill-rule="evenodd" clip-rule="evenodd" d="M14.0402 2.43635L7.38356 2.43635C7.23579 2.42764 7.08773 2.44827 6.9485 2.49695C6.80928 2.54563 6.68183 2.62133 6.57401 2.71942C6.46618 2.8175 6.38026 2.93588 6.32153 3.06727C6.26279 3.19866 6.2325 3.34028 6.2325 3.48341C6.2325 3.62654 6.26279 3.76817 6.32153 3.89956C6.38026 4.03095 6.46618 4.14932 6.57401 4.24741C6.68183 4.34549 6.80928 4.4212 6.9485 4.46989C7.08773 4.51857 7.23579 4.53919 7.38356 4.53049H14.0402L13.3449 5.17155C13.2363 5.26613 13.1486 5.38096 13.087 5.50914C13.0254 5.63731 12.9913 5.7762 12.9866 5.91745C12.982 6.0587 13.0068 6.1994 13.0598 6.33112C13.1128 6.46284 13.1927 6.58285 13.2949 6.68396C13.397 6.78506 13.5192 6.86516 13.6542 6.91947C13.7891 6.97377 13.9341 7.00115 14.0802 6.99996C14.2264 6.99878 14.3708 6.96905 14.5048 6.91257C14.6388 6.85608 14.7596 6.774 14.86 6.67126L17.4441 4.24298C17.5465 4.14602 17.6279 4.03027 17.6834 3.90251C17.739 3.77475 17.7676 3.63755 17.7676 3.49896C17.7676 3.36036 17.739 3.22317 17.6834 3.09541C17.6279 2.96765 17.5465 2.85189 17.4441 2.75493L14.9042 0.307233C14.8038 0.209848 14.6845 0.132576 14.5531 0.0798552C14.4217 0.0271342 14.2809 0 14.1386 0C13.9964 0 13.8555 0.0271342 13.7242 0.0798553C13.5928 0.132576 13.4735 0.209848 13.3731 0.307233C13.1706 0.503828 13.0569 0.769951 13.0569 1.04737C13.0569 1.32479 13.1706 1.59091 13.3731 1.78751L14.0402 2.43635ZM3.95987 9.43635L10.6165 9.43635C10.7643 9.42764 10.9123 9.44827 11.0515 9.49695C11.1908 9.54563 11.3182 9.62134 11.426 9.71942C11.5339 9.8175 11.6198 9.93589 11.6785 10.0673C11.7372 10.1987 11.7675 10.3403 11.7675 10.4834C11.7675 10.6265 11.7372 10.7682 11.6785 10.8996C11.6198 11.031 11.5339 11.1493 11.426 11.2474C11.3182 11.3455 11.1908 11.4212 11.0515 11.4699C10.9123 11.5186 10.7643 11.5392 10.6165 11.5305H3.95987L4.65511 12.1715C4.76373 12.2661 4.85145 12.381 4.91302 12.5091C4.97459 12.6373 5.00874 12.7762 5.01342 12.9174C5.01809 13.0587 4.99319 13.1994 4.94022 13.3311C4.88725 13.4628 4.8073 13.5829 4.70516 13.684C4.60302 13.7851 4.48081 13.8652 4.34585 13.9195C4.21089 13.9738 4.06598 14.0011 3.9198 14C3.77363 13.9988 3.62921 13.9691 3.49521 13.9126C3.36122 13.8561 3.24041 13.774 3.14004 13.6713L0.55598 11.243C0.453545 11.146 0.372162 11.0303 0.316601 10.9025C0.261041 10.7748 0.232422 10.6375 0.232422 10.499C0.232422 10.3604 0.261041 10.2232 0.316601 10.0954C0.372162 9.96765 0.453545 9.85189 0.55598 9.75493L3.09583 7.30723C3.19626 7.20985 3.31558 7.13258 3.44695 7.07986C3.57832 7.02713 3.71917 7 3.86141 7C4.00365 7 4.14449 7.02714 4.27586 7.07986C4.40724 7.13258 4.52655 7.20985 4.62698 7.30723C4.82944 7.50383 4.94311 7.76995 4.94311 8.04737C4.94311 8.32479 4.82944 8.59091 4.62698 8.78751L3.95987 9.43635Z" fill="#1FA37C"/>
</svg>
