<svg width="21" height="20" viewBox="0 0 21 20" fill="none" xmlns="http://www.w3.org/2000/svg">
<g clip-path="url(#clip0_941_12082)">
<path d="M12.2663 11.7664C12.0375 12.012 11.7615 12.209 11.4548 12.3456C11.1481 12.4823 10.8171 12.5557 10.4814 12.5617C10.1457 12.5676 9.81231 12.5058 9.50102 12.3801C9.18972 12.2544 8.90694 12.0672 8.66955 11.8298C8.43215 11.5924 8.245 11.3096 8.11926 10.9984C7.99353 10.6871 7.93178 10.3536 7.9377 10.018C7.94362 9.68228 8.0171 9.35123 8.15374 9.04457C8.29038 8.7379 8.48738 8.4619 8.73301 8.23303M15.4497 14.9497C14.0252 16.0355 12.2906 16.6371 10.4997 16.6664C4.66634 16.6664 1.33301 9.99969 1.33301 9.99969C2.36958 8.06794 3.80729 6.3802 5.54967 5.0497L15.4497 14.9497ZM8.74967 3.53303C9.32328 3.39876 9.91056 3.33164 10.4997 3.33303C16.333 3.33303 19.6663 9.99969 19.6663 9.99969C19.1605 10.946 18.5572 11.837 17.8663 12.658L8.74967 3.53303Z" stroke="#BDBDBD" stroke-width="2" stroke-linecap="round" stroke-linejoin="round"/>
<path d="M1.33301 0.833008L19.6663 19.1663" stroke="#BDBDBD" stroke-width="2" stroke-linecap="round" stroke-linejoin="round"/>
</g>
<defs>
<clipPath id="clip0_941_12082">
<rect width="20" height="20" fill="white" transform="translate(0.5)"/>
</clipPath>
</defs>
</svg>
