<svg width="1086" height="444" viewBox="0 0 1086 444" fill="none" xmlns="http://www.w3.org/2000/svg">
<path d="M382.761 111.899L398.893 122.919C374.695 128.822 352.858 136.103 333.971 144.565L310.56 135.907C331.611 126.461 355.809 118.393 382.761 111.899ZM613.922 441.318L614.315 442.302L610.578 442.498L610.184 441.515C588.15 442.695 565.919 443.286 543.098 443.286C244.065 443.286 0.706543 344.106 0.706543 222.099C0.706543 212.85 2.08367 203.798 4.83793 194.745L2.47714 194.549L2.8706 192.974L5.23139 193.171C40.2498 84.7423 268.066 0.911621 543.098 0.911621C842.132 0.911621 1085.49 100.092 1085.49 222.099C1085.49 334.266 879.708 427.149 613.922 441.318ZM658.383 74.7062L692.615 31.6102C645.399 25.5098 595.232 22.1645 543.098 22.1645C433.715 22.1645 332.594 36.9234 250.95 61.7184L317.446 97.9269C358.957 85.3326 406.369 76.2805 456.733 71.5576L463.815 84.1519C388.86 91.0394 320.594 108.553 272.001 133.348C265.705 136.497 259.803 139.842 254.295 143.188L266.886 146.533C326.692 110.324 428.206 86.5133 543.098 86.5133C590.117 86.5133 634.972 90.4491 675.696 97.7301L739.831 39.088C725.666 36.5298 711.108 34.3652 696.353 32.2005L662.121 75.2966C663.892 75.4933 665.663 75.6901 667.433 76.0837L657.006 88.2844C620.414 83.168 582.248 80.413 543.098 80.413V67.4251C582.641 67.4251 621.201 69.7866 658.383 74.7062ZM1033.36 222.099C1033.36 198.288 1023.13 175.46 1004.44 154.404L900.168 169.95C914.726 186.677 922.399 204.388 922.399 222.295C922.399 227.805 921.612 233.512 920.235 239.022L1030.4 244.139C1032.37 236.661 1033.36 229.38 1033.36 222.099ZM1003.06 152.83C997.55 146.73 991.452 140.826 984.566 135.119L885.019 154.995C890.134 159.324 894.659 163.653 898.791 168.179L1003.06 152.83ZM857.28 222.099C857.28 260.472 815.376 296.484 743.765 320.688L753.996 325.805C826.983 301.01 873.609 263.817 873.609 222.099C873.609 201.239 862.002 181.561 841.148 163.85L778.981 176.248C795.309 190.219 804.359 205.569 804.359 222.099C804.359 280.938 687.106 328.56 543.098 328.56C399.09 328.56 281.837 280.741 281.837 222.099C281.837 201.043 296.986 181.167 323.151 164.637L265.312 149.091C232.064 170.147 212.588 195.139 212.588 222.099C212.588 245.91 227.736 268.146 254.492 287.628L268.656 284.283C243.475 265.785 228.916 244.532 228.916 222.099H260.59C260.59 285.66 387.286 337.218 543.098 337.218V350.009C427.616 350.009 326.299 324.427 271.804 286.447L257.639 289.793C315.085 329.74 421.517 356.7 543.098 356.7C621.004 356.7 692.418 345.68 749.077 327.182L738.847 322.066C732.355 324.23 725.666 326.198 718.78 328.166L701.074 317.54C778.981 296.09 825.606 260.275 825.606 222.099C825.606 213.046 823.049 203.994 817.934 195.336L848.624 192.384C854.526 202.026 857.28 212.063 857.28 222.099ZM239.54 291.17L252.721 288.219C244.458 282.118 237.376 275.821 231.277 269.327L83.1375 291.17C92.1872 301.206 103.204 310.849 115.992 320.098L212.194 297.664C208.85 295.106 205.505 292.745 202.554 290.186L230.884 284.48C233.441 286.644 236.392 288.809 239.54 291.17ZM358.366 222.099C358.366 227.412 359.743 232.725 362.498 237.841L399.877 234.496C397.91 230.56 396.729 226.428 396.729 222.099C396.729 206.553 411.287 192.384 435.092 181.758L406.959 171.131C376.859 184.513 358.366 202.42 358.366 222.099ZM677.663 221.508C677.073 191.4 616.873 167.195 543.098 167.195C504.539 167.195 469.914 173.886 445.322 184.513L453.191 187.464C475.816 177.822 507.686 171.721 543.098 171.721C610.971 171.721 666.253 194.155 667.04 221.705H677.663V221.508ZM463.618 222.099C463.618 240.006 499.424 254.568 543.295 254.568C587.166 254.568 622.972 240.006 622.972 222.099C622.972 204.191 587.166 189.629 543.295 189.629C499.227 189.629 463.618 204.191 463.618 222.099ZM443.748 185.103C421.911 194.942 408.533 207.93 408.533 222.099C408.533 226.034 409.517 229.773 411.484 233.315L421.911 232.331C420.14 228.986 419.353 225.444 419.353 221.902C419.353 208.914 431.551 196.91 451.618 187.858L443.748 185.103ZM412.074 234.299C425.846 258.701 479.357 277.002 543.295 277.002C617.07 277.002 677.27 252.6 677.86 222.689H667.236C666.646 250.239 611.364 272.673 543.295 272.673C484.472 272.673 435.092 255.946 422.501 233.512L412.074 234.299ZM409.714 234.496L402.828 235.086C417.386 261.259 474.832 280.741 543.295 280.741C622.381 280.741 686.713 254.568 687.303 222.492H680.221C679.631 252.994 618.447 277.789 543.295 277.789C478.176 277.986 423.485 259.291 409.714 234.496ZM687.303 221.508C686.713 189.235 622.381 163.26 543.295 163.26C501.981 163.26 464.799 170.344 438.633 181.758L443.748 183.725C468.733 172.902 504.145 166.212 543.295 166.212C618.447 166.212 679.631 191.007 680.221 221.508H687.303ZM436.863 182.545C413.451 192.974 399.09 206.946 399.09 222.099C399.09 226.231 400.074 230.364 402.238 234.299L409.123 233.709C407.156 229.97 406.172 226.231 406.172 222.295C406.172 207.733 419.747 194.549 441.978 184.709L436.863 182.545ZM363.088 238.629C381.778 272.279 455.355 297.271 543.295 297.271C644.809 297.271 727.437 263.817 728.027 222.492H689.664C689.074 255.159 623.562 281.725 543.295 281.725C473.652 281.725 415.419 261.849 400.467 235.283L363.088 238.629ZM727.83 221.508C727.24 180.183 644.612 146.73 543.098 146.73C490.177 146.73 442.371 155.979 408.533 170.541L436.666 181.167C463.422 169.557 501.194 162.473 543.098 162.473C623.365 162.473 688.877 189.039 689.467 221.705H727.83V221.508ZM630.054 153.027L639.3 145.746C630.644 143.975 621.791 142.4 612.545 141.023L606.053 148.698C614.315 150.075 622.381 151.453 630.054 153.027ZM610.184 140.826C599.56 139.449 588.543 138.268 577.33 137.481L574.182 145.549C584.215 146.139 594.249 147.32 603.692 148.501L610.184 140.826ZM575.166 137.284C565.132 136.694 554.902 136.3 544.475 136.3V144.368C553.919 144.368 562.968 144.762 572.018 145.155L575.166 137.284ZM541.918 136.3C426.633 136.694 332.988 174.87 332.988 222.099C332.988 269.327 427.223 307.897 543.098 307.897C658.974 307.897 753.209 269.524 753.209 222.099C753.209 189.235 707.763 160.702 641.071 146.336L631.825 153.617C692.025 166.605 733.142 192.581 733.142 222.099C733.142 264.801 647.76 299.632 542.901 299.632C438.043 299.632 352.661 264.801 352.661 222.099C352.661 179.396 437.453 144.762 541.721 144.565V136.3H541.918ZM736.093 181.954L759.307 177.232C719.174 145.155 637.53 123.115 543.295 123.115C409.714 123.115 300.92 167.392 300.92 221.902C300.92 276.411 409.714 320.688 543.295 320.688C676.876 320.688 785.669 276.411 785.669 221.902C785.669 206.749 777.21 192.384 762.258 179.593L739.044 184.316C752.422 195.729 759.898 208.52 759.898 222.099C759.898 270.705 662.712 310.455 543.295 310.455C423.878 310.455 326.692 270.901 326.692 222.099C326.692 173.296 423.878 133.742 543.295 133.742C627.3 133.742 700.288 153.42 736.093 181.954ZM838.394 161.489C808.687 137.481 762.062 117.605 704.616 104.421L696.746 110.128C728.42 117.409 757.143 126.854 781.341 138.465L757.34 146.927C703.632 121.344 625.529 106.782 543.098 106.782C503.948 106.782 465.979 109.931 430.37 116.228L417.78 104.421C457.323 97.3366 499.424 93.7944 543.098 93.7944C586.576 93.7944 629.07 97.5333 668.023 104.421L674.712 98.3205C634.382 91.2362 589.921 87.1037 543.098 87.1037C428.993 87.1037 328.266 110.718 268.853 146.73L326.692 162.276C373.711 133.939 453.191 115.244 543.098 115.244C644.809 115.244 732.945 139.055 776.226 173.689L838.394 161.489ZM693.402 109.537L701.271 103.83C694.582 102.256 687.5 100.879 680.418 99.5012L673.729 105.602C680.614 106.782 687.107 108.16 693.402 109.537ZM840.558 161.095L854.132 158.34C851.181 155.979 848.034 153.617 844.689 151.256C843.706 150.469 842.525 149.878 841.542 149.091L828.754 152.24C832.689 155.192 836.82 158.143 840.558 161.095ZM882.265 152.83L981.812 132.955C975.91 128.232 969.614 123.509 962.729 118.786L868.297 142.4C869.478 143.188 870.855 143.975 872.035 144.959C875.576 147.517 879.117 150.075 882.265 152.83ZM1006.4 152.24L1048.5 145.943C1032.37 128.232 1010.73 111.505 984.369 96.1558L947.777 106.782C971.779 120.754 991.648 136.103 1006.4 152.24ZM944.826 107.569L854.329 133.545C858.067 135.71 861.608 137.874 864.953 140.039L959.384 116.425C954.663 113.473 949.941 110.521 944.826 107.569ZM942.662 106.389C900.561 82.1841 845.673 62.1119 781.932 47.5498L705.796 103.634C754.389 114.85 795.506 130.79 825.213 150.075L838 146.927C809.081 128.035 769.341 112.095 722.518 100.485L738.847 89.4651C783.309 100.485 822.065 115.047 852.165 132.168L942.662 106.389ZM778.587 46.7627C767.767 44.4012 756.75 42.0398 745.536 40.0719L681.401 98.7141C688.484 100.092 695.566 101.469 702.452 103.043L778.587 46.7627ZM780.358 45.5819L801.998 29.6423C773.275 23.1484 742.979 17.8352 711.305 13.5059L697.533 30.823C726.256 34.562 753.996 39.6784 780.358 45.5819ZM247.999 62.5055C222.621 70.3769 199.21 79.0355 178.159 88.678L261.18 118.589C277.313 111.308 295.215 104.618 314.495 98.5173L247.999 62.5055ZM163.404 95.7623L249.377 124.099C251.737 122.919 254.098 121.738 256.656 120.557L173.634 90.6458C170.29 92.4169 166.946 93.9912 163.404 95.7623ZM161.044 96.943C151.994 101.469 143.534 106.192 135.468 111.112L227.933 135.907C233.835 132.364 240.327 128.822 247.016 125.28L161.044 96.943ZM57.1688 195.926L167.339 201.633C174.815 179.003 194.488 157.356 224.785 138.071L131.927 113.276C93.1709 137.678 66.8087 165.818 57.1688 195.926ZM56.5786 197.5C54.2178 205.569 52.8407 213.834 52.8407 222.099C52.8407 236.07 56.3819 249.649 63.0708 262.833L171.47 253.388C166.355 243.155 163.601 232.528 163.601 222.099C163.601 215.801 164.585 209.504 166.552 203.207L56.5786 197.5ZM64.0544 264.408C68.3825 272.673 74.0878 280.741 80.9734 288.612L229.113 266.769C217.112 252.797 210.423 237.645 210.423 222.099C210.423 195.139 229.9 169.754 263.541 148.698L250.95 145.352C214.555 168.179 195.472 194.549 195.472 222.099C195.472 234.89 199.603 247.681 207.866 259.881L177.372 263.227C175.602 260.472 174.028 257.717 172.454 254.962L64.0544 264.408ZM60.5132 264.604L16.8386 268.343C31.5936 296.09 58.9394 321.869 96.712 344.499L133.698 334.266C99.2696 313.604 74.0878 289.99 60.5132 264.604ZM136.649 333.676L228.326 308.291C223.801 305.536 219.473 302.781 215.342 299.829L119.14 322.262C124.451 326.001 130.353 329.937 136.649 333.676ZM138.813 334.857C202.948 373.033 298.56 401.567 410.304 414.358L440.01 370.868C355.022 361.029 280.657 339.186 230.49 309.471L138.813 334.857ZM413.845 414.948C454.962 419.475 498.44 422.033 543.098 422.033C563.558 422.033 583.625 421.442 603.495 420.458L589.33 375.591C574.182 376.379 558.64 376.772 543.098 376.772V363.981C623.562 363.981 699.501 352.567 760.094 332.889L750.651 328.166C693.795 346.664 621.594 357.881 543.295 357.881C420.731 357.881 313.511 330.724 255.869 290.383L242.884 293.335C293.838 328.953 381.384 354.142 481.324 361.62L475.619 374.214C464.799 373.427 454.175 372.443 443.748 371.262L413.845 414.948ZM607.43 420.262C681.598 416.326 750.651 405.503 810.458 389.563L749.471 351.78C702.845 364.178 649.727 372.246 593.265 375.198L607.43 420.262ZM850.001 377.953L779.964 342.925C771.701 345.68 763.242 348.041 754.586 350.6L815.573 388.382C827.573 384.84 838.984 381.495 850.001 377.953ZM952.302 332.102L859.641 307.307C838.787 320.098 813.606 331.511 784.883 341.154L854.723 376.182C892.495 363.587 925.35 348.632 952.302 332.102ZM974.533 316.949L876.757 295.696C872.035 299.239 866.92 302.781 861.608 306.126L954.269 330.921C961.548 326.198 968.237 321.672 974.533 316.949ZM976.303 315.572C1004.24 294.122 1022.73 270.508 1030.01 245.516L919.841 240.4C917.874 247.09 914.923 253.584 910.988 260.078L880.298 256.93C887.184 245.713 890.725 233.906 890.725 222.099C890.725 200.846 878.921 179.79 856.493 160.702L843.115 163.457C863.969 181.167 875.773 201.043 875.773 222.099C875.773 264.014 828.951 301.6 755.373 326.592L764.816 331.315C805.736 317.54 839.181 299.829 861.412 279.166L890.331 284.283C886.593 287.628 882.659 290.974 878.331 294.319L976.303 315.572ZM979.451 316.359L1018.8 325.017C1049.49 301.6 1069.95 275.427 1077.82 247.878L1033.36 245.713C1026.27 270.901 1007.58 294.712 979.451 316.359ZM1081.56 222.099C1081.56 195.926 1070.34 170.934 1049.68 147.517L1007.78 153.814C1026.67 175.067 1037.09 198.091 1037.09 222.099C1037.09 229.576 1036.11 236.858 1034.14 244.139L1078.6 246.303C1080.57 238.235 1081.56 230.167 1081.56 222.099ZM805.343 30.2327L783.702 46.1723C847.837 60.7344 903.119 81.0033 945.613 105.405L982.205 94.9751C935.776 68.4091 875.38 46.3691 805.343 30.2327ZM543.098 2.48591C422.895 2.48591 311.741 18.6223 222.031 45.9755L248.786 60.5376C331.021 35.5459 432.928 20.787 543.098 20.787C595.626 20.787 646.186 24.1323 693.599 30.4295L707.37 13.1123C655.629 6.22483 600.544 2.48591 543.098 2.48591ZM126.025 83.3648L160.847 94.7783C185.832 82.3808 214.358 71.1641 246.032 61.3248L219.276 46.7627C184.455 57.3891 153.371 69.7866 126.025 83.3648ZM9.36277 193.368L53.8243 195.729C65.825 158.34 103.204 124.099 158.486 96.1558L123.664 84.7423C63.0708 115.244 22.3471 152.633 9.36277 193.368ZM4.64119 222.099C4.64119 237.448 8.57584 252.404 16.0517 266.966L59.7263 263.227C53.0374 250.042 49.2995 236.267 49.2995 222.099C49.2995 213.637 50.6766 205.372 53.0374 197.304L8.57585 194.942C6.21505 203.798 4.64119 212.85 4.64119 222.099ZM397.319 433.446L409.32 415.932C296.789 402.945 200.587 374.214 135.862 335.841L98.8761 345.877C169.306 387.792 274.558 419.278 397.319 433.446ZM609.791 439.94L604.085 421.836C584.215 422.82 563.755 423.41 543.295 423.41C498.243 423.41 454.569 420.852 413.058 416.326L401.057 433.84C446.306 438.956 494.112 441.711 543.295 441.711C565.722 441.711 587.953 441.121 609.791 439.94ZM1017.03 326.198L977.68 317.54C903.906 373.033 767.767 412.981 607.823 421.639L613.529 439.743C788.03 430.495 936.563 386.808 1017.03 326.198ZM369.187 232.135L387.876 231.151C386.893 228.199 386.302 225.247 386.302 222.295C386.302 207.34 399.287 192.778 422.895 181.364L408.336 176.444C381.974 189.235 367.416 205.569 367.416 222.492C367.416 225.444 368.006 228.789 369.187 232.135ZM543.098 293.729C635.366 293.729 712.485 264.408 718.584 226.821L699.697 226.231C694.386 259.685 625.529 285.857 543.295 285.857C473.652 285.857 411.681 266.769 392.598 239.613L374.302 241.777C395.746 272.476 465.192 293.729 543.098 293.729ZM543.098 150.272C497.653 150.272 454.372 157.356 421.517 170.147L434.699 175.657C464.012 164.244 502.571 157.947 543.098 157.947C625.923 157.947 694.779 184.316 699.697 217.966L718.584 217.573C713.075 179.986 636.153 150.272 543.098 150.272Z" fill="url(#paint0_radial_1_1981)"/>
<defs>
<radialGradient id="paint0_radial_1_1981" cx="0" cy="0" r="1" gradientUnits="userSpaceOnUse" gradientTransform="translate(543.181 222.05) scale(414.126 414.238)">
<stop stop-color="#00FFFF"/>
<stop offset="1" stop-opacity="0"/>
</radialGradient>
</defs>
</svg>
