<svg width="72" height="72" viewBox="0 0 72 72" fill="none" xmlns="http://www.w3.org/2000/svg">
<rect width="72" height="72" rx="36" fill="#333333" fill-opacity="0.5"/>
<path d="M41.43 37.8549C41.5386 37.7399 41.6221 37.6035 41.6753 37.4545C41.7284 37.3055 41.7501 37.147 41.7388 36.9892C41.7275 36.8314 41.6836 36.6776 41.6098 36.5377C41.536 36.3977 41.4339 36.2746 41.3101 36.1762C41.1862 36.0777 41.0433 36.0061 40.8903 35.9658C40.7373 35.9255 40.5776 35.9174 40.4213 35.942C40.265 35.9666 40.1155 36.0234 39.9824 36.1088C39.8492 36.1942 39.7352 36.3064 39.6476 36.4381L37.1111 39.6031V28.0059C37.1111 27.7029 36.9907 27.4123 36.7764 27.198C36.5622 26.9837 36.2715 26.8634 35.9685 26.8634C35.6655 26.8634 35.3749 26.9837 35.1606 27.198C34.9463 27.4123 34.8259 27.7029 34.8259 28.0059V33.8902L32.2894 30.7253C32.2018 30.5935 32.0878 30.4814 31.9547 30.396C31.8215 30.3106 31.672 30.2537 31.5157 30.2291C31.3594 30.2045 31.1997 30.2126 31.0467 30.2529C30.8937 30.2932 30.7508 30.3649 30.6269 30.4633C30.5031 30.5618 30.401 30.6849 30.3272 30.8248C30.2534 30.9648 30.2095 31.1185 30.1982 31.2763C30.1869 31.4342 30.2086 31.5926 30.2617 31.7416C30.3149 31.8906 30.3984 32.027 30.507 32.1421L34.8259 37.5464V50.8574C34.8259 51.1604 34.9463 51.4511 35.1606 51.6653C35.3749 51.8796 35.6655 52 35.9685 52C36.2715 52 36.5622 51.8796 36.7764 51.6653C36.9907 51.4511 37.1111 51.1604 37.1111 50.8574V43.2593L41.43 37.8549Z" fill="#59B29F"/>
<path d="M47.5766 35.8212C47.9321 34.8444 48.088 33.8061 48.035 32.7679C47.982 31.7296 47.7212 30.7126 47.2681 29.777C46.8144 28.8813 46.1882 28.0841 45.4254 27.4311C44.6627 26.7782 43.7784 26.2824 42.8235 25.9723C42.6089 24.3209 41.8007 22.8041 40.5497 21.7051C39.2986 20.6061 37.6904 20 36.0251 20C34.3599 20 32.7517 20.6061 31.5006 21.7051C30.2496 22.8041 29.4414 24.3209 29.2268 25.9723C27.2838 26.6109 25.6679 27.9848 24.7251 29.7999C24.2665 30.7317 24.0027 31.7473 23.9496 32.7845C23.8966 33.8217 24.0555 34.8589 24.4166 35.8327C23.6087 36.8941 23.1026 38.1541 22.9518 39.4795C22.8009 40.8049 23.011 42.1464 23.5597 43.3622C24.0871 44.3991 24.842 45.3035 25.7679 46.0079C26.6938 46.7122 27.7668 47.1983 28.9069 47.4298H29.1126H32.5403C32.8433 47.4298 33.1339 47.3094 33.3482 47.0951C33.5625 46.8809 33.6829 46.5902 33.6829 46.2872C33.6829 45.9842 33.5625 45.6936 33.3482 45.4793C33.1339 45.265 32.8433 45.1446 32.5403 45.1446H29.2268C28.4517 44.9844 27.7222 44.6529 27.0916 44.1745C26.461 43.6961 25.9452 43.0829 25.582 42.3796C25.1689 41.4553 25.0385 40.4294 25.2072 39.4311C25.376 38.4328 25.8363 37.5067 26.5304 36.7696C26.6846 36.5984 26.7835 36.3846 26.8141 36.1563C26.8447 35.9279 26.8055 35.6956 26.7017 35.4899C26.3589 34.7566 26.1812 33.9571 26.1812 33.1476C26.1812 32.3382 26.3589 31.5386 26.7017 30.8053C27.0864 30.0929 27.6221 29.4732 28.2715 28.9897C28.9208 28.5061 29.6681 28.1704 30.4608 28.006C30.727 27.9574 30.9672 27.8158 31.1388 27.6066C31.3104 27.3973 31.4021 27.134 31.3977 26.8635C31.3977 25.6513 31.8792 24.4889 32.7363 23.6318C33.5934 22.7747 34.7559 22.2932 35.968 22.2932C37.1801 22.2932 38.3426 22.7747 39.1997 23.6318C40.0568 24.4889 40.5383 25.6513 40.5383 26.8635C40.5339 27.134 40.6256 27.3973 40.7972 27.6066C40.9688 27.8158 41.2091 27.9574 41.4752 28.006C42.2703 28.1722 43.0192 28.5111 43.6688 28.9988C44.3184 29.4865 44.8529 30.111 45.2343 30.8282C45.5771 31.5614 45.7548 32.361 45.7548 33.1705C45.7548 33.9799 45.5771 34.7795 45.2343 35.5127C45.1305 35.7184 45.0913 35.9507 45.1219 36.1791C45.1525 36.4075 45.2514 36.6213 45.4057 36.7924C46.0997 37.5296 46.5601 38.4556 46.7288 39.4539C46.8976 40.4522 46.7672 41.4781 46.354 42.4025C45.9882 43.1015 45.4713 43.7103 44.8408 44.1846C44.2104 44.6589 43.4822 44.9869 42.7092 45.1446H39.3957C39.0927 45.1446 38.8021 45.265 38.5878 45.4793C38.3735 45.6936 38.2532 45.9842 38.2532 46.2872C38.2532 46.5902 38.3735 46.8809 38.5878 47.0951C38.8021 47.3094 39.0927 47.4298 39.3957 47.4298H42.8235H43.0291C44.1795 47.2062 45.2639 46.7238 46.2002 46.0191C47.1366 45.3143 47.9003 44.4058 48.4335 43.3622C48.9869 42.1455 49.1994 40.8013 49.0485 39.4731C48.8976 38.145 48.3888 36.8828 47.5766 35.8212Z" fill="#59B29F"/>
</svg>
