<svg width="32" height="32" viewBox="0 0 32 32" fill="none" xmlns="http://www.w3.org/2000/svg">
<rect width="32" height="32" rx="8" fill="#4CB596"/>
<path fill-rule="evenodd" clip-rule="evenodd" d="M24 16C24 20.4183 20.4183 24 16 24C11.5817 24 8 20.4183 8 16C8 11.5817 11.5817 8 16 8C20.4183 8 24 11.5817 24 16ZM22.3001 15.9998C22.3001 19.4792 19.4795 22.2998 16.0001 22.2998C12.5207 22.2998 9.70007 19.4792 9.70007 15.9998C9.70007 12.5204 12.5207 9.6998 16.0001 9.6998C19.4795 9.6998 22.3001 12.5204 22.3001 15.9998ZM15.3999 12.75C15.3999 12.3358 15.7357 12 16.1499 12C16.5641 12 16.8999 12.3358 16.8999 12.75V15.9854L18.6294 17.7149C18.9223 18.0078 18.9223 18.4827 18.6294 18.7755C18.3365 19.0684 17.8617 19.0684 17.5688 18.7755L15.7303 16.9371C15.6758 16.8826 15.6314 16.8217 15.5972 16.7569C15.4747 16.6235 15.3999 16.4455 15.3999 16.25V12.75Z" fill="white"/>
</svg>
