<svg width="32" height="32" viewBox="0 0 32 32" fill="none" xmlns="http://www.w3.org/2000/svg">
<rect width="32" height="32" rx="8" fill="#4CB596"/>
<path fill-rule="evenodd" clip-rule="evenodd" d="M11.5246 9.6257C11.4818 9.63316 11.4334 9.6463 11.3074 9.68248C11.1561 9.72596 11.0971 9.76141 10.9064 9.87589C10.8644 9.90111 10.816 9.93017 10.7589 9.96399C10.085 10.3627 9.7626 10.881 9.64606 11.4764C9.52259 12.1073 9.62014 12.8895 9.93128 13.7769C10.5547 15.5548 11.9399 17.4833 13.3205 18.8555C14.6999 20.2266 16.5192 21.524 18.2193 22.0875C19.0649 22.3678 19.8309 22.45 20.4793 22.3176C21.1056 22.1897 21.6702 21.8534 22.1375 21.1917C22.1745 21.1393 22.2102 21.091 22.2389 21.0521L22.2474 21.0406C22.2796 20.997 22.3013 20.9673 22.3197 20.9404C22.3528 20.8918 22.3612 20.8722 22.3657 20.8599C22.3977 20.7723 22.4108 20.6787 22.4043 20.5854C22.397 20.4823 22.3827 20.4222 22.3277 20.3192C22.3118 20.2896 22.2996 20.2733 22.2717 20.2436C22.2529 20.2236 22.2327 20.2036 22.1966 20.168L22.1897 20.1612C22.1526 20.1244 22.1042 20.0764 22.0511 20.0194C21.819 19.77 21.4412 19.4767 21.0866 19.2282C20.9159 19.1085 20.7619 19.007 20.6509 18.9356C20.5956 18.9001 20.5513 18.8722 20.5214 18.8536L20.4946 18.837C20.4839 18.8314 20.467 18.8227 20.4452 18.812C20.3991 18.7895 20.3349 18.7598 20.2629 18.7314C20.1895 18.7025 20.1183 18.6789 20.0569 18.6644C20.0007 18.6511 19.9752 18.6504 19.9752 18.6504C19.9752 18.6504 19.9762 18.6503 19.978 18.6502C19.9109 18.6551 19.8742 18.6682 19.8203 18.6978C19.784 18.7178 19.7411 18.7449 19.6743 18.7899C19.6598 18.7997 19.6434 18.8108 19.6256 18.8229C19.5707 18.8602 19.5021 18.9068 19.4326 18.9516C19.2614 19.0618 19.034 19.2841 18.8214 19.5247C18.7222 19.637 18.6376 19.7402 18.5781 19.815C18.5485 19.8522 18.5254 19.8819 18.5102 19.9017L18.4937 19.9235L18.4902 19.9281L18.09 20.4668L17.4966 20.1641L17.8541 19.4399C17.4966 20.1641 17.4966 20.1641 17.4966 20.1641L17.494 20.1627L17.4884 20.1599L17.4688 20.1498C17.452 20.1411 17.4279 20.1285 17.3973 20.1123C17.3361 20.0801 17.2486 20.0333 17.1409 19.9742C16.9258 19.8561 16.6282 19.6876 16.2972 19.4853C15.6512 19.0906 14.8173 18.531 14.2381 17.9416C13.6587 17.3521 13.1089 16.5035 12.7211 15.8462C12.5224 15.5093 12.3569 15.2065 12.241 14.9877C12.1829 14.8781 12.137 14.789 12.1053 14.7268C12.0894 14.6956 12.0771 14.6711 12.0685 14.654L12.0586 14.6341L12.0558 14.6284L12.0549 14.6267C12.0549 14.6267 12.0545 14.6258 12.7673 14.2632L12.0545 14.6258L11.7583 14.0241L12.2852 13.618L12.2904 13.614L12.3117 13.5971C12.3312 13.5816 12.3604 13.5581 12.397 13.5279C12.4705 13.4673 12.5718 13.3811 12.6822 13.28C12.9186 13.0635 13.1371 12.8319 13.2455 12.6575C13.2896 12.5867 13.3354 12.5169 13.372 12.461C13.3839 12.4429 13.3949 12.4262 13.4045 12.4115C13.4487 12.3435 13.4754 12.2998 13.4951 12.2628C13.5243 12.2078 13.5373 12.1701 13.5421 12.1016C13.5419 12.1034 13.5419 12.1043 13.5419 12.1043C13.5419 12.1043 13.5413 12.0783 13.5281 12.0208C13.5138 11.9582 13.4906 11.8857 13.4622 11.8109C13.4343 11.7377 13.4051 11.6723 13.3829 11.6254C13.3722 11.6028 13.3635 11.5853 13.358 11.5744L13.3413 11.5464C13.323 11.5158 13.2956 11.4706 13.2607 11.414C13.1906 11.3007 13.0909 11.1434 12.9733 10.969C12.7291 10.6068 12.4407 10.2205 12.1952 9.98267C12.139 9.92823 12.0917 9.87869 12.0556 9.84057L12.0482 9.83276C12.0135 9.79621 11.9941 9.7757 11.9745 9.75657C11.9455 9.72811 11.9297 9.71585 11.9009 9.69988C11.8267 9.65869 11.794 9.64697 11.7759 9.64155C11.7577 9.63613 11.724 9.62806 11.6396 9.62198C11.5816 9.61779 11.5519 9.62096 11.5246 9.6257ZM14.0529 11.1769C14.7531 10.7898 14.7532 10.7901 14.7532 10.7901L14.7543 10.7921L14.7559 10.7952L14.7606 10.8041L14.7748 10.8317C14.7862 10.8543 14.8016 10.8853 14.8195 10.9231C14.855 10.9981 14.9021 11.1034 14.9487 11.2258C15.029 11.4367 15.1594 11.8259 15.1322 12.2163C15.0929 12.7788 14.8303 13.1686 14.6668 13.4112C14.6387 13.4528 14.6136 13.4902 14.593 13.5233C14.3688 13.8838 14.027 14.2276 13.7745 14.4607C13.8636 14.6234 13.9696 14.8118 14.0882 15.0128C14.4645 15.6507 14.9321 16.355 15.3659 16.7964C15.7995 17.2377 16.4916 17.7135 17.1185 18.0966C17.3154 18.2169 17.4998 18.3245 17.6594 18.415C17.8883 18.158 18.2255 17.8107 18.5796 17.5827C18.6121 17.5618 18.6487 17.5363 18.6896 17.5077C18.9279 17.3414 19.3115 17.0739 19.8651 17.0339C20.2493 17.0062 20.6323 17.139 20.8396 17.2208C20.96 17.2682 21.0636 17.3162 21.1373 17.3523C21.1745 17.3706 21.205 17.3862 21.2272 17.3979L21.2543 17.4123L21.2631 17.417L21.2661 17.4187L21.2674 17.4194C21.2674 17.4194 21.2683 17.42 20.8869 18.1314C21.2954 17.4356 21.2955 17.4357 21.2955 17.4357L21.2972 17.4367L21.3006 17.4388L21.3124 17.446L21.3543 17.472C21.39 17.4942 21.4408 17.5262 21.5031 17.5662C21.6275 17.6462 21.7997 17.7597 21.9916 17.8942C22.3623 18.1541 22.8561 18.5265 23.2091 18.9058C23.2191 18.9165 23.235 18.9319 23.2555 18.9518C23.359 19.0521 23.5782 19.2646 23.7285 19.5458C23.9009 19.8684 23.9722 20.1559 23.9943 20.4698C24.0171 20.7936 23.9715 21.1186 23.8605 21.4229C23.7592 21.7008 23.5791 21.9404 23.4798 22.0726C23.4607 22.0981 23.4445 22.1196 23.4325 22.1366C22.7317 23.1291 21.8175 23.6971 20.7933 23.9062C19.7912 24.1108 18.7349 23.9628 17.7251 23.6281C15.7146 22.9616 13.691 21.4902 12.206 20.0141C10.7131 18.5302 9.15893 16.4007 8.4297 14.3209C8.06453 13.2794 7.88245 12.1829 8.0826 11.1602C8.28969 10.1022 8.89416 9.19238 9.95698 8.56356C9.99101 8.54343 10.0256 8.52239 10.0611 8.50078C10.2686 8.37441 10.509 8.22801 10.8739 8.12318C10.8815 8.12101 10.8891 8.11882 10.8967 8.11663C11.1259 8.05063 11.3763 7.97853 11.7524 8.00566C12.1048 8.03107 12.3549 8.10562 12.665 8.27775C12.9425 8.4318 13.1522 8.65735 13.2503 8.76275C13.2695 8.78348 13.2845 8.79956 13.2948 8.80954C13.6674 9.17037 14.033 9.67445 14.2882 10.053C14.4203 10.2489 14.5317 10.4246 14.6102 10.5516C14.6496 10.6153 14.6809 10.6671 14.7028 10.7035L14.7282 10.7463L14.7353 10.7583L14.7374 10.7618L14.738 10.7629C14.738 10.7629 14.7384 10.7636 14.0529 11.1769ZM20.8869 18.1314C21.0465 17.8597 21.2955 17.4357 21.2955 17.4357L21.282 17.4275L21.2683 17.42C21.2683 17.42 21.0359 17.8535 20.8869 18.1314ZM14.0529 11.1769L14.738 10.7629L14.746 10.7766L14.7532 10.7901L14.0529 11.1769Z" fill="white"/>
</svg>
