<svg width="33" height="32" viewBox="0 0 33 32" fill="none" xmlns="http://www.w3.org/2000/svg">
<rect width="33" height="32" rx="8" fill="#4CB596"/>
<path d="M16.5977 8C18.232 8 19.6827 8.33188 20.9498 8.99563C22.2288 9.64774 23.2236 10.5502 23.9342 11.7031C24.6447 12.8559 25 14.1601 25 15.6157C25 16.6405 24.846 17.5255 24.5381 18.2707C24.2421 19.0044 23.8217 19.5633 23.2769 19.9476C22.7321 20.3319 22.0927 20.524 21.3584 20.524C20.7544 20.524 20.2452 20.3959 19.8307 20.1397C19.4162 19.8836 19.1142 19.5051 18.9248 19.0044C18.2853 20.0175 17.2727 20.524 15.8871 20.524C15.1292 20.524 14.4364 20.3377 13.8088 19.9651C13.1811 19.5924 12.6837 19.0742 12.3166 18.4105C11.9613 17.7351 11.7837 16.9665 11.7837 16.1048C11.7837 15.2547 11.9613 14.4978 12.3166 13.8341C12.6837 13.1587 13.1752 12.6346 13.791 12.262C14.4187 11.8894 15.1174 11.7031 15.8871 11.7031C17.0596 11.7031 17.9714 12.0873 18.6228 12.8559V11.8253H21.0387V17.4847C21.0387 18.23 21.3229 18.6026 21.8913 18.6026C22.3058 18.6026 22.6256 18.3581 22.8506 17.869C23.0874 17.3799 23.2059 16.6405 23.2059 15.6507C23.2059 14.4745 22.9276 13.4381 22.371 12.5415C21.8262 11.6332 21.0505 10.9287 20.0439 10.4279C19.0491 9.91558 17.9004 9.65939 16.5977 9.65939C15.295 9.65939 14.1404 9.93304 13.1338 10.4803C12.139 11.016 11.3633 11.7613 10.8067 12.7162C10.2619 13.671 9.98955 14.754 9.98955 15.9651C9.98955 17.1994 10.2619 18.2999 10.8067 19.2664C11.3514 20.2213 12.1153 20.9665 13.0982 21.5022C14.093 22.0495 15.2358 22.3231 16.5266 22.3231C17.8056 22.3231 18.9721 22.067 20.0261 21.5546L20.5946 23.1616C20.0617 23.4294 19.4281 23.6332 18.6938 23.7729C17.9714 23.9243 17.249 24 16.5266 24C14.845 24 13.3588 23.6507 12.0679 22.952C10.7771 22.2649 9.77638 21.31 9.06583 20.0873C8.35528 18.8646 8 17.4905 8 15.9651C8 14.4512 8.35528 13.0888 9.06583 11.8777C9.78823 10.6667 10.8008 9.71761 12.1034 9.03057C13.4061 8.34352 14.9042 8 16.5977 8ZM16.4378 18.5153C17.0892 18.5153 17.6221 18.3057 18.0366 17.8865C18.4511 17.4556 18.6583 16.8617 18.6583 16.1048C18.6583 15.3595 18.4511 14.7773 18.0366 14.3581C17.6221 13.9389 17.0892 13.7293 16.4378 13.7293C15.7746 13.7293 15.2417 13.9447 14.8391 14.3755C14.4364 14.7948 14.2351 15.3712 14.2351 16.1048C14.2351 16.8501 14.4364 17.4381 14.8391 17.869C15.2417 18.2999 15.7746 18.5153 16.4378 18.5153Z" fill="white"/>
</svg>
