<svg width="12" height="12" viewBox="0 0 12 12" fill="none" xmlns="http://www.w3.org/2000/svg">
<path fill-rule="evenodd" clip-rule="evenodd" d="M6.15215 9.73968L8.79245 6.98053L0.913537 6.94247C0.792976 6.942 0.673687 6.91639 0.562497 6.86711C0.451308 6.81783 0.3504 6.74586 0.265549 6.65529C0.180698 6.56473 0.113569 6.45737 0.0680057 6.33935C0.0224421 6.22132 -0.000662428 6.09496 1.44532e-05 5.96748C0.000575588 5.84008 0.0248778 5.71405 0.0715319 5.59658C0.118186 5.47912 0.186277 5.37253 0.271913 5.2829C0.357548 5.19328 0.45905 5.12238 0.570614 5.07426C0.682178 5.02614 0.801618 5.00174 0.922106 5.00246L8.79931 5.03961L6.19414 2.25236C6.10923 2.16196 6.042 2.05475 5.9963 1.93686C5.9506 1.81897 5.92732 1.69271 5.9278 1.5653C5.92828 1.43789 5.9525 1.31183 5.99908 1.19433C6.04567 1.07682 6.1137 0.970177 6.19928 0.88049C6.37232 0.699449 6.60625 0.59843 6.84967 0.59962C7.0931 0.600809 7.32613 0.704109 7.49758 0.886833L11.7824 5.46186C11.9228 5.61207 12.0011 5.81511 12 6.02633C11.9989 6.23755 11.9184 6.43965 11.7764 6.58818L7.44616 11.1188C7.27327 11.2998 7.03949 11.4008 6.7962 11.3996C6.55291 11.3984 6.32003 11.2951 6.14872 11.1125C6.06367 11.0221 5.99629 10.9149 5.95043 10.797C5.90457 10.6791 5.88113 10.5528 5.88145 10.4253C5.88177 10.2978 5.90584 10.1717 5.95229 10.054C5.99874 9.93638 6.06665 9.82957 6.15215 9.73968Z" fill="#A5DACB"/>
</svg>
