<svg width="16" height="18" viewBox="0 0 16 18" fill="none" xmlns="http://www.w3.org/2000/svg">
<path fill-rule="evenodd" clip-rule="evenodd" d="M4.02941 2.25H11.9706C12.7016 2.25 13.2941 2.85442 13.2941 3.6V14.4C13.2941 15.1456 12.7016 15.75 11.9706 15.75H4.02941C3.29845 15.75 2.70588 15.1456 2.70588 14.4V3.6C2.70588 2.85442 3.29845 2.25 4.02941 2.25ZM0.5 3.6C0.5 1.61177 2.08017 0 4.02941 0H11.9706C13.9198 0 15.5 1.61177 15.5 3.6V14.4C15.5 16.3882 13.9198 18 11.9706 18H4.02941C2.08017 18 0.5 16.3882 0.5 14.4V3.6ZM4.66663 8.16667L11.6666 8.175V9.83333H4.66663V8.16667ZM9.33329 12.3333H4.66663V14H9.33329V12.3333ZM4.66663 4H11.6666V5.66667L4.66663 5.675V4Z" fill="#1FA37C"/>
</svg>
