<svg width="25" height="24" viewBox="0 0 25 24" fill="none" xmlns="http://www.w3.org/2000/svg">
<rect x="0.5" width="24" height="24" rx="12" fill="#231F20"/>
<g clip-path="url(#clip0_941_11836)">
<path d="M20.315 11.3051L17.9405 7.1924C17.6926 6.76159 17.2317 6.49609 16.7358 6.49609H11.9869C11.4884 6.49609 11.0301 6.76159 10.7821 7.1924L9.9255 8.67267L8.40765 11.3026C8.15969 11.7334 8.15969 12.2644 8.40765 12.6952L9.43959 14.4811H11.9543L10.747 12.3896C10.6068 12.1467 10.6068 11.8511 10.747 11.6082L12.2173 9.06341C12.2874 8.94318 12.3876 8.84299 12.5028 8.77787C12.6206 8.71025 12.7533 8.67267 12.8936 8.67267H15.8316C16.1096 8.67267 16.3676 8.82045 16.5078 9.06341L17.9781 11.6082C18.1184 11.8511 18.1184 12.1467 17.9781 12.3896L16.5078 14.9344C16.5078 14.9344 16.5053 14.9394 16.5003 14.9494C16.3976 15.1173 15.3933 16.7729 14.737 17.5042H16.7358C17.2342 17.5042 17.6926 17.2387 17.9405 16.8079L20.315 12.6977C20.5629 12.2669 20.5629 11.7359 20.315 11.3051Z" fill="url(#paint0_linear_941_11836)"/>
<path d="M16.5948 11.3051L15.6105 9.59941H13.0958L14.2579 11.6107C14.3982 11.8536 14.3982 12.1492 14.2579 12.3921L12.7877 14.9369C12.7176 15.0571 12.6174 15.1548 12.5022 15.2225C12.3844 15.2901 12.2517 15.3277 12.1114 15.3277H9.17341C8.89289 15.3277 8.6349 15.1799 8.49715 14.9369L7.02689 12.3921C6.88663 12.1492 6.88663 11.8536 7.02689 11.6107L8.49715 9.06591C8.49715 9.06591 8.50215 9.05589 8.51468 9.03836C8.65244 8.80292 9.65431 7.14481 10.2554 6.49609H8.26671C7.76828 6.49609 7.30992 6.76159 7.05945 7.1924L4.685 11.3051C4.43703 11.7359 4.43703 12.2669 4.685 12.6977L7.05945 16.8079C7.30741 17.2387 7.76828 17.5042 8.26671 17.5042H13.0131C13.5115 17.5042 13.9699 17.2387 14.2204 16.8079L15.0745 15.3277L16.5923 12.6977C16.8403 12.2669 16.8403 11.7359 16.5923 11.3051H16.5948Z" fill="url(#paint1_linear_941_11836)"/>
</g>
<defs>
<linearGradient id="paint0_linear_941_11836" x1="16.3701" y1="7.1949" x2="12.6206" y2="16.1617" gradientUnits="userSpaceOnUse">
<stop stop-color="#45B97C"/>
<stop offset="0.05" stop-color="#45B984"/>
<stop offset="0.23" stop-color="#46BDA2"/>
<stop offset="0.39" stop-color="#46BFB4"/>
<stop offset="0.51" stop-color="#47C0BB"/>
<stop offset="0.61" stop-color="#3BABA9"/>
<stop offset="0.81" stop-color="#1E777B"/>
<stop offset="1" stop-color="#00424D"/>
</linearGradient>
<linearGradient id="paint1_linear_941_11836" x1="7.98869" y1="16.3571" x2="13.2636" y2="7.68332" gradientUnits="userSpaceOnUse">
<stop stop-color="#45B97C"/>
<stop offset="0.05" stop-color="#45B984"/>
<stop offset="0.23" stop-color="#46BDA2"/>
<stop offset="0.39" stop-color="#46BFB4"/>
<stop offset="0.51" stop-color="#47C0BB"/>
<stop offset="0.61" stop-color="#3BABA9"/>
<stop offset="0.81" stop-color="#1E777B"/>
<stop offset="1" stop-color="#00424D"/>
</linearGradient>
<clipPath id="clip0_941_11836">
<rect width="16" height="11.0081" fill="white" transform="translate(4.5 6.49609)"/>
</clipPath>
</defs>
</svg>
