<svg width="82" height="82" viewBox="0 0 82 82" fill="none" xmlns="http://www.w3.org/2000/svg">
<path d="M36.2166 47.15L28.7853 39.7188C28.1589 39.0924 27.3902 38.7792 26.4791 38.7792C25.568 38.7792 24.7708 39.1208 24.0874 39.8042C23.461 40.4306 23.1478 41.2278 23.1478 42.1958C23.1478 43.1639 23.461 43.9611 24.0874 44.5875L33.8249 54.325C34.4513 54.9514 35.2485 55.2646 36.2166 55.2646C37.1846 55.2646 37.9819 54.9514 38.6083 54.325L57.9978 34.9354C58.6242 34.309 58.9374 33.5403 58.9374 32.6292C58.9374 31.7181 58.5958 30.9208 57.9124 30.2375C57.286 29.6111 56.4888 29.2979 55.5208 29.2979C54.5527 29.2979 53.7555 29.6111 53.1291 30.2375L36.2166 47.15ZM40.9999 75.1667C36.2735 75.1667 31.8319 74.2692 27.6749 72.4743C23.518 70.6817 19.902 68.2479 16.827 65.1729C13.752 62.0979 11.3182 58.4819 9.52559 54.325C7.7307 50.1681 6.83325 45.7264 6.83325 41C6.83325 36.2736 7.7307 31.8319 9.52559 27.675C11.3182 23.5181 13.752 19.9021 16.827 16.8271C19.902 13.7521 23.518 11.3171 27.6749 9.52225C31.8319 7.72964 36.2735 6.83334 40.9999 6.83334C45.7263 6.83334 50.168 7.72964 54.3249 9.52225C58.4819 11.3171 62.0978 13.7521 65.1728 16.8271C68.2478 19.9021 70.6816 23.5181 72.4743 27.675C74.2691 31.8319 75.1666 36.2736 75.1666 41C75.1666 45.7264 74.2691 50.1681 72.4743 54.325C70.6816 58.4819 68.2478 62.0979 65.1728 65.1729C62.0978 68.2479 58.4819 70.6817 54.3249 72.4743C50.168 74.2692 45.7263 75.1667 40.9999 75.1667Z" fill="#1FA37C"/>
</svg>
