<svg width="32" height="32" viewBox="0 0 32 32" fill="none" xmlns="http://www.w3.org/2000/svg">
<rect width="32" height="32" rx="16" fill="#333333"/>
<path fill-rule="evenodd" clip-rule="evenodd" d="M21.6482 15L22.6577 14.468C22.7332 14.4292 22.8 14.3761 22.8541 14.3117C22.9083 14.2474 22.9488 14.1731 22.9732 14.0933C22.9976 14.0135 23.0055 13.9297 22.9963 13.8469C22.9871 13.7641 22.9611 13.6839 22.9198 13.611L21.8191 11.669C21.7347 11.521 21.5939 11.4115 21.4273 11.3643C21.2607 11.3171 21.0818 11.3361 20.9294 11.417L19.9167 11.952C19.7415 12.0281 19.5498 12.0609 19.3586 12.0475C19.1673 12.0341 18.9824 11.9748 18.8201 11.875C18.6819 11.788 18.5406 11.708 18.3993 11.634C18.2305 11.5467 18.087 11.4191 17.9821 11.2632C17.8772 11.1073 17.8143 10.928 17.7993 10.742V9.63301C17.799 9.54953 17.7819 9.46693 17.7489 9.38992C17.7159 9.31292 17.6677 9.24302 17.6071 9.18422C17.5464 9.12543 17.4744 9.0789 17.3953 9.04729C17.3162 9.01568 17.2315 8.99961 17.1461 9.00001H14.8505C14.6781 8.99974 14.5127 9.06622 14.3904 9.18487C14.2682 9.30353 14.199 9.46468 14.1982 9.63301V10.746C14.183 10.9314 14.1201 11.1101 14.0154 11.2655C13.9107 11.4209 13.7676 11.548 13.5993 11.635C13.4866 11.694 13.374 11.757 13.2644 11.824C13.0997 11.9205 12.9131 11.9758 12.7213 11.9849C12.5294 11.9939 12.3382 11.9565 12.1648 11.876L11.3897 11.449C11.2395 11.3651 11.0615 11.3422 10.8942 11.3855C10.7269 11.4287 10.5838 11.5345 10.4958 11.68L9.35108 13.6C9.30823 13.6719 9.28051 13.7514 9.26953 13.8339C9.25855 13.9163 9.26454 14.0001 9.28714 14.0803C9.30974 14.1605 9.3485 14.2355 9.40115 14.3008C9.45379 14.3662 9.51927 14.4207 9.59374 14.461L10.3678 14.892C10.5268 14.994 10.6565 15.134 10.7447 15.2987C10.8328 15.4633 10.8765 15.6473 10.8716 15.833C10.8716 15.914 10.8716 15.991 10.8716 16.071C10.8712 16.2566 10.8228 16.4392 10.7308 16.6016C10.6388 16.7641 10.5061 16.9011 10.3453 17L9.34186 17.534C9.26639 17.5728 9.19961 17.6259 9.14547 17.6903C9.09132 17.7547 9.0509 17.829 9.02658 17.9088C9.00225 17.9887 8.99451 18.0724 9.00382 18.1553C9.01313 18.2381 9.03929 18.3182 9.08077 18.391L10.1753 20.33C10.2597 20.478 10.4005 20.5875 10.5671 20.6347C10.7338 20.6819 10.9127 20.663 11.0651 20.582L12.0818 20.047C12.2561 19.9702 12.4473 19.937 12.6381 19.9504C12.8288 19.9639 13.0131 20.0235 13.1743 20.124C13.3126 20.211 13.4539 20.292 13.5993 20.365C13.7676 20.4528 13.9106 20.5805 14.0153 20.7363C14.1199 20.8922 14.1829 21.0712 14.1982 21.257V22.367C14.1993 22.5354 14.2687 22.6966 14.3911 22.8152C14.5135 22.9338 14.679 23.0003 14.8515 23H17.1461C17.3187 23.0005 17.4845 22.9342 17.6071 22.8155C17.7298 22.6969 17.7992 22.5356 17.8003 22.367V21.253C17.8144 21.0674 17.8768 20.8884 17.9817 20.733C18.0865 20.5776 18.2303 20.4509 18.3993 20.365C18.5119 20.305 18.6235 20.242 18.7331 20.176C18.898 20.0795 19.0848 20.0242 19.2768 20.0152C19.4688 20.0061 19.6601 20.0435 19.8338 20.124L20.6068 20.55C20.7569 20.6339 20.9347 20.6567 21.1018 20.6135C21.2689 20.5702 21.4119 20.4644 21.4997 20.319L22.6434 18.4C22.6861 18.328 22.7136 18.2485 22.7244 18.166C22.7353 18.0835 22.7292 17.9997 22.7065 17.9196C22.6838 17.8394 22.645 17.7645 22.5923 17.6991C22.5396 17.6338 22.4742 17.5794 22.3997 17.539L21.6236 17.109C21.4662 17.0053 21.3378 16.8648 21.2502 16.7003C21.1625 16.5357 21.1184 16.3524 21.1219 16.167C21.1219 16.087 21.1219 16.007 21.1219 15.926C21.1227 15.7409 21.1714 15.5589 21.2634 15.3971C21.3554 15.2352 21.4877 15.0986 21.6482 15ZM15.9972 18.464C15.4996 18.4571 15.0151 18.3067 14.6048 18.0316C14.1945 17.7565 13.8766 17.3691 13.691 16.9181C13.5055 16.467 13.4607 15.9725 13.5622 15.4966C13.6637 15.0208 13.9069 14.5848 14.2614 14.2436C14.6158 13.9024 15.0657 13.6712 15.5543 13.579C16.043 13.4868 16.5487 13.5378 17.0077 13.7255C17.4668 13.9132 17.8588 14.2293 18.1345 14.634C18.4101 15.0387 18.5571 15.5139 18.557 16C18.5551 16.3261 18.4874 16.6486 18.3576 16.9491C18.2278 17.2496 18.0386 17.5221 17.8008 17.751C17.563 17.9799 17.2813 18.1607 16.9718 18.2831C16.6623 18.4054 16.3311 18.4669 15.9972 18.464Z" fill="#F1F3F5"/>
</svg>
