<svg width="25" height="24" viewBox="0 0 25 24" fill="none" xmlns="http://www.w3.org/2000/svg">
<g clip-path="url(#clip0_941_12072)">
<path fill-rule="evenodd" clip-rule="evenodd" d="M11.8939 0C9.07852 0.143815 6.40354 1.27379 4.33768 3.19192C2.27182 5.11005 0.946842 7.694 0.594917 10.491C0.242992 13.288 0.886567 16.1196 2.41287 18.4897C3.93918 20.8598 6.25085 22.6172 8.94285 23.454L10.2055 18.5135C8.85444 18.0381 7.68438 17.1549 6.85687 15.9859C6.02936 14.8169 5.58525 13.4198 5.58588 11.9875C5.58588 8.37792 8.36374 5.40549 11.8939 5.0948V0Z" fill="#79C8B0"/>
<path fill-rule="evenodd" clip-rule="evenodd" d="M11.3113 18.8063L9.99219 23.7295C12.2122 24.2045 14.5215 24.0402 16.6519 23.2559C18.7824 22.4715 20.6468 21.0991 22.0289 19.298C23.411 17.4968 24.254 15.3407 24.4602 13.0798C24.6664 10.8189 24.2273 8.54587 23.1939 6.52441L18.7796 9.07105C19.3125 10.2177 19.5211 11.4885 19.3826 12.7453C19.2442 14.0022 18.764 15.1971 17.9943 16.2003C17.2245 17.2034 16.1947 17.9766 15.0165 18.4356C13.8383 18.8947 12.5569 19.0222 11.3113 18.8043V18.8063Z" fill="#4CB596"/>
<path fill-rule="evenodd" clip-rule="evenodd" d="M18.1677 8.01477L22.582 5.46814C21.55 3.87223 20.1536 2.54428 18.5079 1.59361C16.8622 0.642943 15.0143 0.09675 13.1162 0V5.09684C14.1193 5.18837 15.0905 5.4967 15.9627 6.00052C16.8349 6.50433 17.5873 7.19159 18.1677 8.01477Z" fill="#1FA37C"/>
<path d="M4.24617 15.6254C4.30281 15.6941 4.37328 15.7506 4.45319 15.7914C4.5331 15.8322 4.62072 15.8563 4.71058 15.8623C4.80043 15.8683 4.89058 15.8561 4.97538 15.8263C5.06019 15.7966 5.13783 15.7499 5.20344 15.6894C5.72429 15.2012 6.30079 14.7737 6.92149 14.4152C7.78657 13.9321 8.77937 13.7147 9.77162 13.7911C10.7111 13.8624 11.6349 14.0676 12.514 14.4004C12.514 14.4004 17.9319 16.3713 21.3796 9.19433C21.3796 9.19433 12.8362 4.82844 8.08554 11.5466C7.89998 11.8063 7.66069 12.0246 7.38331 12.1873C6.71342 12.5847 5.3844 13.4688 4.25144 14.8071C4.15424 14.9219 4.10058 15.0661 4.09962 15.2153C4.09866 15.3645 4.15046 15.5094 4.24617 15.6254Z" fill="#CDE877"/>
<path d="M17.3158 9.72018C11.3483 9.67489 8.18085 13.0207 7.17188 14.3277C7.9261 13.9403 8.76503 13.7558 9.60894 13.7917C12.2822 11.6335 15.4269 10.6225 17.3648 10.1728C17.4187 10.1603 17.4662 10.1281 17.4982 10.0822C17.5302 10.0364 17.5446 9.9801 17.5385 9.92416C17.5325 9.86823 17.5064 9.81652 17.4653 9.7789C17.4242 9.74128 17.371 9.72038 17.3158 9.72018Z" fill="#93BC4B"/>
</g>
<defs>
<clipPath id="clip0_941_12072">
<rect width="24.0107" height="24" fill="white" transform="translate(0.5)"/>
</clipPath>
</defs>
</svg>
