<svg width="16" height="14" viewBox="0 0 16 14" fill="none" xmlns="http://www.w3.org/2000/svg">
<path d="M15.3332 7L13.7065 5.14L13.9332 2.68L11.5265 2.13333L10.2665 0L7.99984 0.973333L5.73317 0L4.47317 2.12667L2.0665 2.66667L2.29317 5.13333L0.666504 7L2.29317 8.86L2.0665 11.3267L4.47317 11.8733L5.73317 14L7.99984 13.02L10.2665 13.9933L11.5265 11.8667L13.9332 11.32L13.7065 8.86L15.3332 7ZM6.25317 9.67333L4.6665 8.07333C4.6047 8.01166 4.55567 7.9384 4.52222 7.85775C4.48876 7.7771 4.47154 7.69065 4.47154 7.60333C4.47154 7.51602 4.48876 7.42957 4.52222 7.34892C4.55567 7.26827 4.6047 7.19501 4.6665 7.13333L4.71317 7.08667C4.97317 6.82667 5.39984 6.82667 5.65984 7.08667L6.73317 8.16667L10.1665 4.72667C10.4265 4.46667 10.8532 4.46667 11.1132 4.72667L11.1598 4.77333C11.4198 5.03333 11.4198 5.45333 11.1598 5.71333L7.21317 9.67333C6.93984 9.93333 6.51984 9.93333 6.25317 9.67333Z" fill="#00FFB7"/>
</svg>
