<svg width="32" height="24" viewBox="0 0 32 24" fill="none" xmlns="http://www.w3.org/2000/svg">
<path fill-rule="evenodd" clip-rule="evenodd" d="M13.6617 2.07909C14.0804 1.55574 13.9956 0.792071 13.4722 0.37339C12.9489 -0.0452912 12.1852 0.0395608 11.7665 0.562912L5.55914 8.32213H1.21354C0.815527 8.32213 0.442813 8.5173 0.216106 8.84444C-0.0106006 9.17158 -0.0624785 9.58909 0.0772737 9.96177L5.00609 23.1053C5.18371 23.5789 5.63651 23.8927 6.14236 23.8927H25.8576C26.3635 23.8927 26.8163 23.5789 26.9939 23.1053L31.9227 9.96177C32.0625 9.58909 32.0106 9.17158 31.7839 8.84444C31.5572 8.5173 31.1845 8.32213 30.7865 8.32213H26.4409L20.2335 0.562912C19.8148 0.0395608 19.0511 -0.0452912 18.5278 0.37339C18.0044 0.792071 17.9196 1.55574 18.3383 2.07909L23.3327 8.32213H8.6673L13.6617 2.07909ZM25.8724 10.7492C25.8631 10.7493 25.8538 10.7493 25.8445 10.7492H6.15554C6.14624 10.7493 6.13694 10.7493 6.12765 10.7492H2.96467L6.98334 21.4656H25.0167L29.0353 10.7492H25.8724ZM10.6418 14.4645C10.6418 13.7942 10.0985 13.2509 9.42824 13.2509C8.75802 13.2509 8.2147 13.7942 8.2147 14.4645V17.7503C8.2147 18.4206 8.75802 18.9639 9.42824 18.9639C10.0985 18.9639 10.6418 18.4206 10.6418 17.7503V14.4645ZM22.5718 13.2509C23.242 13.2509 23.7853 13.7942 23.7853 14.4645V17.7503C23.7853 18.4206 23.242 18.9639 22.5718 18.9639C21.9015 18.9639 21.3582 18.4206 21.3582 17.7503V14.4645C21.3582 13.7942 21.9015 13.2509 22.5718 13.2509ZM17.2132 14.4645C17.2132 13.7942 16.6699 13.2509 15.9997 13.2509C15.3295 13.2509 14.7861 13.7942 14.7861 14.4645V17.7503C14.7861 18.4206 15.3295 18.9639 15.9997 18.9639C16.6699 18.9639 17.2132 18.4206 17.2132 17.7503V14.4645Z" fill="#59B29F"/>
</svg>
