<svg width="249" height="156" viewBox="0 0 249 156" fill="none" xmlns="http://www.w3.org/2000/svg">
<rect width="249" height="156" rx="10" fill="#94D7EB"/>
<rect y="93" width="249" height="63" fill="white" fill-opacity="0.3"/>
<rect x="33" y="54" width="32" height="28" rx="6" fill="#FCEDA2"/>
<path d="M175.433 50.708C175.498 50.708 175.561 50.7173 175.622 50.736V54.88C175.622 55.272 175.496 55.5707 175.244 55.776C174.997 55.9813 174.644 56.084 174.187 56.084C173.986 56.084 173.737 56.056 173.438 56C173.167 55.9533 172.957 55.93 172.808 55.93L172.766 55.804C172.855 55.6733 172.913 55.5333 172.941 55.384C172.974 55.2347 172.99 55.02 172.99 54.74V53.795C172.99 53.6317 173.011 53.4987 173.053 53.396C172.876 53.3867 172.731 53.3237 172.619 53.207C172.512 53.0903 172.458 52.9457 172.458 52.773C172.458 52.5817 172.526 52.423 172.661 52.297C172.796 52.171 172.967 52.108 173.172 52.108C173.377 52.108 173.543 52.171 173.669 52.297C173.795 52.4183 173.858 52.5863 173.858 52.801C173.858 52.8803 173.846 52.9503 173.823 53.011C173.804 53.0717 173.767 53.1627 173.711 53.284C173.655 53.396 173.615 53.501 173.592 53.599C173.573 53.697 173.564 53.837 173.564 54.019V54.74C173.564 55.0853 173.538 55.3537 173.487 55.545C173.543 55.5497 173.634 55.5613 173.76 55.58C173.937 55.608 174.082 55.622 174.194 55.622C174.479 55.622 174.691 55.559 174.831 55.433C174.976 55.307 175.048 55.1227 175.048 54.88V51.135C175.048 51.0043 175.081 50.9017 175.146 50.827C175.216 50.7477 175.312 50.708 175.433 50.708ZM172.836 52.766C172.836 52.8593 172.864 52.9363 172.92 52.997C172.981 53.0577 173.055 53.088 173.144 53.088C173.233 53.088 173.305 53.0577 173.361 52.997C173.422 52.9363 173.452 52.8593 173.452 52.766C173.452 52.6727 173.422 52.5957 173.361 52.535C173.305 52.4743 173.233 52.444 173.144 52.444C173.055 52.444 172.981 52.4743 172.92 52.535C172.864 52.5957 172.836 52.6727 172.836 52.766ZM177.405 52.486C177.167 52.486 177.001 52.5887 176.908 52.794C177.515 52.822 178.051 52.9667 178.518 53.228L178.56 53.34C178.509 53.3913 178.471 53.452 178.448 53.522C178.429 53.592 178.42 53.697 178.42 53.837V55.356C178.42 55.5613 178.352 55.7293 178.217 55.86C178.086 55.9907 177.918 56.056 177.713 56.056C177.517 56.056 177.351 55.9953 177.216 55.874C177.085 55.748 177.02 55.5917 177.02 55.405C177.02 55.223 177.081 55.0713 177.202 54.95C177.323 54.8287 177.473 54.768 177.65 54.768C177.725 54.768 177.795 54.782 177.86 54.81C177.851 54.768 177.846 54.705 177.846 54.621V53.865C177.846 53.767 177.853 53.683 177.867 53.613C177.886 53.543 177.921 53.4777 177.972 53.417C177.496 53.2583 176.964 53.179 176.376 53.179L176.334 53.067C176.385 52.7123 176.502 52.458 176.684 52.304C176.871 52.1453 177.088 52.066 177.335 52.066C177.442 52.066 177.538 52.0777 177.622 52.101C177.706 52.1243 177.804 52.1593 177.916 52.206C178.023 52.2527 178.117 52.2877 178.196 52.311C178.28 52.3343 178.373 52.346 178.476 52.346C178.597 52.346 178.714 52.3273 178.826 52.29C178.854 52.3273 178.868 52.3763 178.868 52.437C178.868 52.5537 178.833 52.6353 178.763 52.682C178.693 52.7287 178.595 52.752 178.469 52.752C178.362 52.752 178.266 52.7403 178.182 52.717C178.098 52.6937 178 52.6587 177.888 52.612C177.781 52.57 177.692 52.5397 177.622 52.521C177.557 52.4977 177.484 52.486 177.405 52.486ZM177.706 55.72C177.795 55.72 177.867 55.6897 177.923 55.629C177.984 55.5683 178.014 55.4913 178.014 55.398C178.014 55.3047 177.984 55.2277 177.923 55.167C177.867 55.1063 177.795 55.076 177.706 55.076C177.617 55.076 177.543 55.1063 177.482 55.167C177.426 55.2277 177.398 55.3047 177.398 55.398C177.398 55.4913 177.426 55.5683 177.482 55.629C177.543 55.6897 177.617 55.72 177.706 55.72ZM180.072 53.935C179.82 53.935 179.626 53.8837 179.491 53.781C179.356 53.6783 179.288 53.5383 179.288 53.361C179.288 53.193 179.346 53.0553 179.463 52.948C179.584 52.836 179.736 52.78 179.918 52.78C180.091 52.78 180.233 52.8313 180.345 52.934C180.462 53.032 180.52 53.1557 180.52 53.305C180.52 53.3703 180.511 53.424 180.492 53.466C180.716 53.424 180.884 53.3377 180.996 53.207C181.113 53.0717 181.171 52.8827 181.171 52.64H181.227C181.297 52.7147 181.332 52.822 181.332 52.962C181.332 53.1627 181.271 53.3377 181.15 53.487C181.033 53.6363 180.877 53.7483 180.681 53.823C180.49 53.8977 180.287 53.935 180.072 53.935ZM179.932 53.116C179.862 53.116 179.804 53.1393 179.757 53.186C179.715 53.2327 179.694 53.291 179.694 53.361C179.694 53.431 179.715 53.4893 179.757 53.536C179.804 53.5827 179.862 53.606 179.932 53.606C180.002 53.606 180.058 53.5827 180.1 53.536C180.147 53.4893 180.17 53.431 180.17 53.361C180.17 53.291 180.147 53.2327 180.1 53.186C180.058 53.1393 180.002 53.116 179.932 53.116ZM181.227 54.397C181.297 54.4717 181.332 54.579 181.332 54.719C181.332 54.9197 181.271 55.0947 181.15 55.244C181.033 55.3933 180.877 55.5053 180.681 55.58C180.49 55.6547 180.287 55.692 180.072 55.692C179.82 55.692 179.626 55.6407 179.491 55.538C179.356 55.4353 179.288 55.2953 179.288 55.118C179.288 54.95 179.346 54.8123 179.463 54.705C179.584 54.593 179.736 54.537 179.918 54.537C180.091 54.537 180.233 54.5883 180.345 54.691C180.462 54.789 180.52 54.9127 180.52 55.062C180.52 55.1273 180.511 55.181 180.492 55.223C180.716 55.181 180.884 55.0947 180.996 54.964C181.113 54.8287 181.171 54.6397 181.171 54.397H181.227ZM179.932 55.363C180.002 55.363 180.058 55.3397 180.1 55.293C180.147 55.2463 180.17 55.188 180.17 55.118C180.17 55.048 180.147 54.9897 180.1 54.943C180.058 54.8963 180.002 54.873 179.932 54.873C179.862 54.873 179.804 54.8963 179.757 54.943C179.715 54.9897 179.694 55.048 179.694 55.118C179.694 55.188 179.715 55.2463 179.757 55.293C179.804 55.3397 179.862 55.363 179.932 55.363ZM183 54.768C183.177 54.768 183.326 54.8287 183.448 54.95C183.569 55.0713 183.63 55.223 183.63 55.405C183.63 55.5917 183.562 55.748 183.427 55.874C183.296 55.9953 183.133 56.056 182.937 56.056C182.731 56.056 182.561 55.9907 182.426 55.86C182.295 55.7293 182.23 55.5613 182.23 55.356V52.535C182.23 52.4043 182.262 52.3017 182.328 52.227C182.398 52.1477 182.493 52.108 182.615 52.108C182.68 52.108 182.743 52.1173 182.804 52.136V54.621C182.804 54.705 182.799 54.768 182.79 54.81C182.855 54.782 182.925 54.768 183 54.768ZM182.944 55.72C183.032 55.72 183.105 55.6897 183.161 55.629C183.221 55.5683 183.252 55.4913 183.252 55.398C183.252 55.3047 183.221 55.2277 183.161 55.167C183.105 55.1063 183.032 55.076 182.944 55.076C182.855 55.076 182.78 55.1063 182.72 55.167C182.664 55.2277 182.636 55.3047 182.636 55.398C182.636 55.4913 182.664 55.5683 182.72 55.629C182.78 55.6897 182.855 55.72 182.944 55.72ZM186.547 52.094C186.808 52.094 187.009 52.1803 187.149 52.353C187.293 52.5257 187.366 52.7753 187.366 53.102V55.615C187.366 55.7457 187.331 55.8507 187.261 55.93C187.195 56.0047 187.102 56.042 186.981 56.042C186.915 56.042 186.852 56.0327 186.792 56.014V52.99C186.792 52.8547 186.766 52.752 186.715 52.682C186.668 52.6073 186.598 52.57 186.505 52.57C186.402 52.57 186.316 52.619 186.246 52.717C186.176 52.815 186.117 52.9643 186.071 53.165L185.497 55.615C185.455 55.7877 185.366 55.9043 185.231 55.965C185.095 56.0257 184.923 56.056 184.713 56.056C184.61 56.056 184.524 56.0443 184.454 56.021V53.795C184.454 53.6317 184.475 53.4987 184.517 53.396C184.339 53.3867 184.195 53.3237 184.083 53.207C183.975 53.0903 183.922 52.9457 183.922 52.773C183.922 52.5817 183.989 52.423 184.125 52.297C184.26 52.171 184.43 52.108 184.636 52.108C184.836 52.108 185 52.171 185.126 52.297C185.256 52.4183 185.322 52.584 185.322 52.794C185.322 52.878 185.31 52.955 185.287 53.025C185.268 53.0903 185.231 53.1767 185.175 53.284C185.119 53.396 185.079 53.501 185.056 53.599C185.037 53.697 185.028 53.837 185.028 54.019V55.398L185.567 53.102C185.646 52.7707 185.765 52.521 185.924 52.353C186.082 52.1803 186.29 52.094 186.547 52.094ZM184.608 53.088C184.696 53.088 184.769 53.0577 184.825 52.997C184.885 52.9363 184.916 52.8593 184.916 52.766C184.916 52.6727 184.885 52.5957 184.825 52.535C184.769 52.4743 184.696 52.444 184.608 52.444C184.519 52.444 184.444 52.4743 184.384 52.535C184.328 52.5957 184.3 52.6727 184.3 52.766C184.3 52.8593 184.328 52.9363 184.384 52.997C184.444 53.0577 184.519 53.088 184.608 53.088ZM191.942 51.611C191.942 51.7417 191.916 51.8583 191.865 51.961C191.729 52.227 191.44 52.4463 190.997 52.619L191.102 52.682C191.195 52.7427 191.27 52.7847 191.326 52.808C191.382 52.8313 191.442 52.8477 191.508 52.857L191.55 52.969C191.498 53.0157 191.463 53.074 191.445 53.144C191.431 53.214 191.424 53.3213 191.424 53.466V55.615C191.424 55.7457 191.389 55.8507 191.319 55.93C191.253 56.0047 191.16 56.042 191.039 56.042C190.973 56.042 190.91 56.0327 190.85 56.014V53.494C190.85 53.3167 190.875 53.186 190.927 53.102C190.852 53.0787 190.742 53.0203 190.598 52.927L190.311 52.738C190.199 52.6633 190.105 52.612 190.031 52.584C189.956 52.556 189.865 52.542 189.758 52.542C189.482 52.542 189.258 52.633 189.086 52.815C188.918 52.9923 188.834 53.256 188.834 53.606C188.834 53.76 188.862 54.0097 188.918 54.355C188.988 53.9397 189.1 53.606 189.254 53.354C189.412 53.0973 189.62 52.969 189.877 52.969C190.077 52.969 190.238 53.0203 190.36 53.123C190.486 53.221 190.549 53.3633 190.549 53.55C190.549 53.7273 190.493 53.8743 190.381 53.991C190.269 54.103 190.119 54.159 189.933 54.159C189.821 54.159 189.718 54.138 189.625 54.096C189.531 54.054 189.457 53.9933 189.401 53.914C189.335 54.1147 189.282 54.362 189.24 54.656C189.198 54.9453 189.177 55.1903 189.177 55.391V55.587C189.177 55.7223 189.139 55.832 189.065 55.916C188.995 56 188.894 56.042 188.764 56.042C188.698 56.042 188.631 56.0327 188.561 56.014V55.468C188.561 55.3 188.547 55.1437 188.519 54.999C188.495 54.8497 188.458 54.677 188.407 54.481C188.36 54.3083 188.323 54.1543 188.295 54.019C188.271 53.8837 188.26 53.746 188.26 53.606C188.26 53.2887 188.325 53.0133 188.456 52.78C188.591 52.5467 188.773 52.3693 189.002 52.248C189.23 52.1267 189.485 52.066 189.765 52.066C189.905 52.066 190.026 52.0847 190.129 52.122C190.236 52.1547 190.355 52.2107 190.486 52.29L190.514 52.304C191.13 52.1593 191.587 51.9143 191.886 51.569L191.942 51.611ZM189.905 53.291C189.825 53.291 189.758 53.319 189.702 53.375C189.65 53.431 189.625 53.501 189.625 53.585C189.625 53.669 189.65 53.739 189.702 53.795C189.758 53.851 189.825 53.879 189.905 53.879C189.984 53.879 190.049 53.851 190.101 53.795C190.157 53.739 190.185 53.669 190.185 53.585C190.185 53.501 190.157 53.431 190.101 53.375C190.049 53.319 189.984 53.291 189.905 53.291ZM193.972 54.768C194.149 54.7773 194.291 54.8403 194.399 54.957C194.511 55.0737 194.567 55.2183 194.567 55.391C194.567 55.5823 194.499 55.741 194.364 55.867C194.228 55.993 194.058 56.056 193.853 56.056C193.652 56.056 193.486 55.9953 193.356 55.874C193.23 55.748 193.167 55.58 193.167 55.37C193.167 55.286 193.176 55.2113 193.195 55.146C193.218 55.076 193.258 54.9873 193.314 54.88C193.37 54.768 193.407 54.663 193.426 54.565C193.449 54.467 193.461 54.327 193.461 54.145V51.66C193.461 51.0673 193.496 50.547 193.566 50.099L193.489 50.085C193.409 50.2903 193.304 50.4933 193.174 50.694C193.043 50.89 192.894 51.0697 192.726 51.233H192.614C192.343 50.4583 191.96 49.8167 191.466 49.308L191.858 49.021C192.254 49.4317 192.558 49.9403 192.768 50.547C192.842 50.4723 192.922 50.3557 193.006 50.197C193.094 50.0383 193.197 49.84 193.314 49.602C193.36 49.504 193.419 49.434 193.489 49.392C193.563 49.35 193.661 49.329 193.783 49.329C193.895 49.329 194.004 49.3593 194.112 49.42C194.06 49.7607 194.035 50.2833 194.035 50.988V51.254V54.369C194.035 54.5323 194.014 54.6653 193.972 54.768ZM193.881 55.72C193.969 55.72 194.042 55.6897 194.098 55.629C194.158 55.5683 194.189 55.4913 194.189 55.398C194.189 55.3047 194.158 55.2277 194.098 55.167C194.042 55.1063 193.969 55.076 193.881 55.076C193.792 55.076 193.717 55.1063 193.657 55.167C193.601 55.2277 193.573 55.3047 193.573 55.398C193.573 55.4913 193.601 55.5683 193.657 55.629C193.717 55.6897 193.792 55.72 193.881 55.72ZM197.498 52.094C197.759 52.094 197.96 52.1803 198.1 52.353C198.244 52.5257 198.317 52.7753 198.317 53.102V55.615C198.317 55.7457 198.282 55.8507 198.212 55.93C198.146 56.0047 198.053 56.042 197.932 56.042C197.866 56.042 197.803 56.0327 197.743 56.014V52.99C197.743 52.8547 197.717 52.752 197.666 52.682C197.619 52.6073 197.549 52.57 197.456 52.57C197.353 52.57 197.267 52.619 197.197 52.717C197.127 52.815 197.068 52.9643 197.022 53.165L196.448 55.615C196.406 55.7877 196.317 55.9043 196.182 55.965C196.046 56.0257 195.874 56.056 195.664 56.056C195.561 56.056 195.475 56.0443 195.405 56.021V53.795C195.405 53.6317 195.426 53.4987 195.468 53.396C195.29 53.3867 195.146 53.3237 195.034 53.207C194.926 53.0903 194.873 52.9457 194.873 52.773C194.873 52.5817 194.94 52.423 195.076 52.297C195.211 52.171 195.381 52.108 195.587 52.108C195.787 52.108 195.951 52.171 196.077 52.297C196.207 52.4183 196.273 52.584 196.273 52.794C196.273 52.878 196.261 52.955 196.238 53.025C196.219 53.0903 196.182 53.1767 196.126 53.284C196.07 53.396 196.03 53.501 196.007 53.599C195.988 53.697 195.979 53.837 195.979 54.019V55.398L196.518 53.102C196.597 52.7707 196.716 52.521 196.875 52.353C197.033 52.1803 197.241 52.094 197.498 52.094ZM195.559 53.088C195.647 53.088 195.72 53.0577 195.776 52.997C195.836 52.9363 195.867 52.8593 195.867 52.766C195.867 52.6727 195.836 52.5957 195.776 52.535C195.72 52.4743 195.647 52.444 195.559 52.444C195.47 52.444 195.395 52.4743 195.335 52.535C195.279 52.5957 195.251 52.6727 195.251 52.766C195.251 52.8593 195.279 52.9363 195.335 52.997C195.395 53.0577 195.47 53.088 195.559 53.088ZM202.151 54.74C202.151 55.02 202.165 55.2347 202.193 55.384C202.226 55.5333 202.286 55.6733 202.375 55.804L202.333 55.93C202.188 55.93 201.901 55.9533 201.472 56C201.015 56.056 200.686 56.084 200.485 56.084C200.046 56.084 199.729 55.9953 199.533 55.818C199.342 55.636 199.246 55.3957 199.246 55.097C199.246 54.8637 199.3 54.6653 199.407 54.502C199.514 54.334 199.664 54.2057 199.855 54.117V54.089C199.421 53.9117 199.204 53.592 199.204 53.13C199.204 52.8173 199.29 52.57 199.463 52.388C199.636 52.2013 199.855 52.108 200.121 52.108C200.336 52.108 200.513 52.171 200.653 52.297C200.798 52.4183 200.87 52.577 200.87 52.773C200.87 52.9503 200.812 53.0997 200.695 53.221C200.583 53.3377 200.436 53.396 200.254 53.396C200.044 53.396 199.885 53.3143 199.778 53.151L199.764 53.165C199.773 53.3517 199.825 53.508 199.918 53.634C200.016 53.7553 200.172 53.816 200.387 53.816C200.588 53.816 200.763 53.7553 200.912 53.634C200.991 53.6993 201.031 53.7787 201.031 53.872C201.031 53.9793 200.989 54.0587 200.905 54.11C200.821 54.1613 200.681 54.215 200.485 54.271C200.051 54.397 199.834 54.649 199.834 55.027C199.834 55.4237 200.084 55.622 200.583 55.622C200.648 55.622 200.737 55.6173 200.849 55.608C200.966 55.5987 201.057 55.5917 201.122 55.587C201.295 55.5683 201.474 55.5543 201.661 55.545C201.605 55.3583 201.577 55.09 201.577 54.74V52.549C201.577 52.4183 201.61 52.3157 201.675 52.241C201.745 52.1617 201.841 52.122 201.962 52.122C202.027 52.122 202.09 52.1313 202.151 52.15V54.74ZM200.17 52.444C200.077 52.444 200 52.4743 199.939 52.535C199.878 52.5957 199.848 52.6727 199.848 52.766C199.848 52.8593 199.878 52.9363 199.939 52.997C200 53.0577 200.077 53.088 200.17 53.088C200.263 53.088 200.34 53.0577 200.401 52.997C200.462 52.9363 200.492 52.8593 200.492 52.766C200.492 52.6727 200.462 52.5957 200.401 52.535C200.34 52.4743 200.263 52.444 200.17 52.444Z" fill="black"/>
<rect x="173" y="58" width="30" height="3.75" fill="#DC4343"/>
<rect x="173" y="74.25" width="30" height="3.75" fill="#DC4343"/>
<rect x="173" y="61.75" width="30" height="3.75" fill="white"/>
<rect x="173" y="70.5" width="30" height="3.75" fill="white"/>
<rect x="173" y="65.5" width="30" height="5" fill="#3A55B7"/>
<path d="M175.525 80.1C175.543 80.156 175.553 80.2167 175.553 80.282C175.553 80.394 175.515 80.4803 175.441 80.541C175.371 80.6017 175.275 80.632 175.154 80.632H174.223V84.587C174.223 84.727 174.185 84.839 174.111 84.923C174.041 85.0023 173.94 85.042 173.81 85.042C173.744 85.042 173.677 85.0327 173.607 85.014V80.632H172.305C172.286 80.576 172.277 80.5153 172.277 80.45C172.277 80.338 172.312 80.2517 172.382 80.191C172.456 80.1303 172.554 80.1 172.676 80.1H175.525ZM179.611 80.058C179.681 80.058 179.751 80.0673 179.821 80.086V84.587C179.821 84.727 179.783 84.839 179.709 84.923C179.639 85.0023 179.538 85.042 179.408 85.042C179.342 85.042 179.275 85.0327 179.205 85.014V82.83H176.881V84.587C176.881 84.727 176.843 84.839 176.769 84.923C176.699 85.0023 176.598 85.042 176.468 85.042C176.402 85.042 176.335 85.0327 176.265 85.014V80.513C176.265 80.3777 176.3 80.268 176.37 80.184C176.44 80.1 176.54 80.058 176.671 80.058C176.741 80.058 176.811 80.0673 176.881 80.086V82.298H179.205V80.513C179.205 80.3777 179.24 80.268 179.31 80.184C179.38 80.1 179.48 80.058 179.611 80.058ZM180.835 85.056C180.728 85.056 180.637 85.0373 180.562 85L182.305 80.1H182.697L184.23 84.405C184.268 84.517 184.286 84.6057 184.286 84.671C184.286 84.7923 184.244 84.8857 184.16 84.951C184.081 85.0117 183.974 85.042 183.838 85.042L183.341 83.635H181.661L181.283 84.706C181.204 84.9393 181.055 85.056 180.835 85.056ZM183.166 83.117L182.501 80.996L181.836 83.117H183.166ZM185.245 85.042C185.18 85.042 185.112 85.0327 185.042 85.014V80.513C185.042 80.3777 185.077 80.268 185.147 80.184C185.217 80.1 185.318 80.058 185.448 80.058C185.518 80.058 185.588 80.0673 185.658 80.086V84.587C185.658 84.727 185.621 84.839 185.546 84.923C185.476 85.0023 185.376 85.042 185.245 85.042ZM189.508 84.468C189.527 84.524 189.536 84.5847 189.536 84.65C189.536 84.762 189.499 84.8483 189.424 84.909C189.354 84.9697 189.258 85 189.137 85H186.722L186.666 84.853C186.731 84.7177 186.773 84.5777 186.792 84.433C186.811 84.2837 186.82 84.0597 186.82 83.761V80.513C186.82 80.3777 186.855 80.268 186.925 80.184C186.995 80.1 187.095 80.058 187.226 80.058C187.296 80.058 187.366 80.0673 187.436 80.086V83.761C187.436 83.9103 187.429 84.041 187.415 84.153C187.406 84.2603 187.385 84.3653 187.352 84.468H189.508ZM190.146 85.056C190.039 85.056 189.948 85.0373 189.873 85L191.616 80.1H192.008L193.541 84.405C193.578 84.517 193.597 84.6057 193.597 84.671C193.597 84.7923 193.555 84.8857 193.471 84.951C193.392 85.0117 193.284 85.042 193.149 85.042L192.652 83.635H190.972L190.594 84.706C190.515 84.9393 190.365 85.056 190.146 85.056ZM192.477 83.117L191.812 80.996L191.147 83.117H192.477ZM194.542 85.056C194.467 85.056 194.399 85.0443 194.339 85.021V80.646C194.339 80.45 194.381 80.3007 194.465 80.198C194.553 80.0953 194.679 80.044 194.843 80.044C194.945 80.044 195.032 80.0603 195.102 80.093L197.237 84.09V80.499C197.237 80.3637 197.272 80.254 197.342 80.17C197.412 80.086 197.51 80.044 197.636 80.044C197.715 80.044 197.783 80.0557 197.839 80.079V84.454C197.839 84.65 197.794 84.7993 197.706 84.902C197.622 85.0047 197.498 85.056 197.335 85.056C197.232 85.056 197.146 85.0397 197.076 85.007L194.941 81.01V84.601C194.941 84.7363 194.906 84.846 194.836 84.93C194.766 85.014 194.668 85.056 194.542 85.056ZM200.171 80.002C200.67 80.002 201.097 80.107 201.452 80.317C201.811 80.5223 202.084 80.8163 202.271 81.199C202.462 81.577 202.558 82.025 202.558 82.543C202.558 83.061 202.462 83.5113 202.271 83.894C202.084 84.272 201.811 84.566 201.452 84.776C201.097 84.9813 200.67 85.084 200.171 85.084C199.863 85.084 199.441 85.0607 198.904 85.014L198.848 84.867C198.909 84.727 198.948 84.5753 198.967 84.412C198.99 84.244 199.002 84.0013 199.002 83.684V81.402C199.002 81.0847 198.99 80.8443 198.967 80.681C198.948 80.513 198.909 80.359 198.848 80.219L198.904 80.072C199.441 80.0253 199.863 80.002 200.171 80.002ZM200.185 84.566C200.745 84.566 201.172 84.3933 201.466 84.048C201.765 83.698 201.914 83.1963 201.914 82.543C201.914 81.8897 201.765 81.3903 201.466 81.045C201.172 80.695 200.745 80.52 200.185 80.52C199.998 80.52 199.772 80.5317 199.506 80.555C199.553 80.667 199.583 80.7907 199.597 80.926C199.611 81.0567 199.618 81.2153 199.618 81.402V83.684C199.618 83.8707 199.611 84.0317 199.597 84.167C199.583 84.2977 199.553 84.419 199.506 84.531C199.772 84.5543 199.998 84.566 200.185 84.566Z" fill="black"/>
<path d="M80.6133 109.51V103.469H81.7383V109.51C81.7383 110.072 81.623 110.547 81.3926 110.934C81.1621 111.32 80.8438 111.615 80.4375 111.818C80.0352 112.018 79.5723 112.117 79.0488 112.117C78.5254 112.117 78.0605 112.027 77.6543 111.848C77.248 111.668 76.9297 111.395 76.6992 111.027C76.4688 110.66 76.3535 110.197 76.3535 109.639H77.4844C77.4844 109.998 77.5508 110.293 77.6836 110.523C77.8164 110.754 78 110.924 78.2344 111.033C78.4727 111.143 78.7441 111.197 79.0488 111.197C79.3457 111.197 79.6113 111.135 79.8457 111.01C80.084 110.881 80.2715 110.691 80.4082 110.441C80.5449 110.188 80.6133 109.877 80.6133 109.51ZM86.8066 103.469V112H85.6934V103.469H86.8066ZM89.5488 103.469V104.395H82.957V103.469H89.5488ZM91.6113 111.092H91.7227C92.3477 111.092 92.8555 111.004 93.2461 110.828C93.6367 110.652 93.9375 110.416 94.1484 110.119C94.3594 109.822 94.5039 109.488 94.582 109.117C94.6602 108.742 94.6992 108.357 94.6992 107.963V106.656C94.6992 106.27 94.6543 105.926 94.5645 105.625C94.4785 105.324 94.3574 105.072 94.2012 104.869C94.0488 104.666 93.875 104.512 93.6797 104.406C93.4844 104.301 93.2773 104.248 93.0586 104.248C92.8086 104.248 92.584 104.299 92.3848 104.4C92.1895 104.498 92.0234 104.637 91.8867 104.816C91.7539 104.996 91.6523 105.207 91.582 105.449C91.5117 105.691 91.4766 105.955 91.4766 106.24C91.4766 106.494 91.5078 106.74 91.5703 106.979C91.6328 107.217 91.7285 107.432 91.8574 107.623C91.9863 107.814 92.1465 107.967 92.3379 108.08C92.5332 108.189 92.7617 108.244 93.0234 108.244C93.2656 108.244 93.4922 108.197 93.7031 108.104C93.918 108.006 94.1074 107.875 94.2715 107.711C94.4395 107.543 94.5723 107.354 94.6699 107.143C94.7715 106.932 94.8301 106.711 94.8457 106.48H95.3613C95.3613 106.805 95.2969 107.125 95.168 107.441C95.043 107.754 94.8672 108.039 94.6406 108.297C94.4141 108.555 94.1484 108.762 93.8438 108.918C93.5391 109.07 93.207 109.146 92.8477 109.146C92.4258 109.146 92.0605 109.064 91.752 108.9C91.4434 108.736 91.1895 108.518 90.9902 108.244C90.7949 107.971 90.6484 107.666 90.5508 107.33C90.457 106.99 90.4102 106.646 90.4102 106.299C90.4102 105.893 90.4668 105.512 90.5801 105.156C90.6934 104.801 90.8613 104.488 91.084 104.219C91.3066 103.945 91.582 103.732 91.9102 103.58C92.2422 103.428 92.625 103.352 93.0586 103.352C93.5469 103.352 93.9629 103.449 94.3066 103.645C94.6504 103.84 94.9297 104.102 95.1445 104.43C95.3633 104.758 95.5234 105.127 95.625 105.537C95.7266 105.947 95.7773 106.369 95.7773 106.803V107.195C95.7773 107.637 95.748 108.086 95.6895 108.543C95.6348 108.996 95.5273 109.43 95.3672 109.844C95.2109 110.258 94.9824 110.629 94.6816 110.957C94.3809 111.281 93.9883 111.539 93.5039 111.73C93.0234 111.918 92.4297 112.012 91.7227 112.012H91.6113V111.092ZM99.6562 107.928V108.818H96.7969V107.928H99.6562ZM101.678 111.092H101.789C102.414 111.092 102.922 111.004 103.312 110.828C103.703 110.652 104.004 110.416 104.215 110.119C104.426 109.822 104.57 109.488 104.648 109.117C104.727 108.742 104.766 108.357 104.766 107.963V106.656C104.766 106.27 104.721 105.926 104.631 105.625C104.545 105.324 104.424 105.072 104.268 104.869C104.115 104.666 103.941 104.512 103.746 104.406C103.551 104.301 103.344 104.248 103.125 104.248C102.875 104.248 102.65 104.299 102.451 104.4C102.256 104.498 102.09 104.637 101.953 104.816C101.82 104.996 101.719 105.207 101.648 105.449C101.578 105.691 101.543 105.955 101.543 106.24C101.543 106.494 101.574 106.74 101.637 106.979C101.699 107.217 101.795 107.432 101.924 107.623C102.053 107.814 102.213 107.967 102.404 108.08C102.6 108.189 102.828 108.244 103.09 108.244C103.332 108.244 103.559 108.197 103.77 108.104C103.984 108.006 104.174 107.875 104.338 107.711C104.506 107.543 104.639 107.354 104.736 107.143C104.838 106.932 104.896 106.711 104.912 106.48H105.428C105.428 106.805 105.363 107.125 105.234 107.441C105.109 107.754 104.934 108.039 104.707 108.297C104.48 108.555 104.215 108.762 103.91 108.918C103.605 109.07 103.273 109.146 102.914 109.146C102.492 109.146 102.127 109.064 101.818 108.9C101.51 108.736 101.256 108.518 101.057 108.244C100.861 107.971 100.715 107.666 100.617 107.33C100.523 106.99 100.477 106.646 100.477 106.299C100.477 105.893 100.533 105.512 100.646 105.156C100.76 104.801 100.928 104.488 101.15 104.219C101.373 103.945 101.648 103.732 101.977 103.58C102.309 103.428 102.691 103.352 103.125 103.352C103.613 103.352 104.029 103.449 104.373 103.645C104.717 103.84 104.996 104.102 105.211 104.43C105.43 104.758 105.59 105.127 105.691 105.537C105.793 105.947 105.844 106.369 105.844 106.803V107.195C105.844 107.637 105.814 108.086 105.756 108.543C105.701 108.996 105.594 109.43 105.434 109.844C105.277 110.258 105.049 110.629 104.748 110.957C104.447 111.281 104.055 111.539 103.57 111.73C103.09 111.918 102.496 112.012 101.789 112.012H101.678V111.092ZM108.428 111.092H108.539C109.164 111.092 109.672 111.004 110.062 110.828C110.453 110.652 110.754 110.416 110.965 110.119C111.176 109.822 111.32 109.488 111.398 109.117C111.477 108.742 111.516 108.357 111.516 107.963V106.656C111.516 106.27 111.471 105.926 111.381 105.625C111.295 105.324 111.174 105.072 111.018 104.869C110.865 104.666 110.691 104.512 110.496 104.406C110.301 104.301 110.094 104.248 109.875 104.248C109.625 104.248 109.4 104.299 109.201 104.4C109.006 104.498 108.84 104.637 108.703 104.816C108.57 104.996 108.469 105.207 108.398 105.449C108.328 105.691 108.293 105.955 108.293 106.24C108.293 106.494 108.324 106.74 108.387 106.979C108.449 107.217 108.545 107.432 108.674 107.623C108.803 107.814 108.963 107.967 109.154 108.08C109.35 108.189 109.578 108.244 109.84 108.244C110.082 108.244 110.309 108.197 110.52 108.104C110.734 108.006 110.924 107.875 111.088 107.711C111.256 107.543 111.389 107.354 111.486 107.143C111.588 106.932 111.646 106.711 111.662 106.48H112.178C112.178 106.805 112.113 107.125 111.984 107.441C111.859 107.754 111.684 108.039 111.457 108.297C111.23 108.555 110.965 108.762 110.66 108.918C110.355 109.07 110.023 109.146 109.664 109.146C109.242 109.146 108.877 109.064 108.568 108.9C108.26 108.736 108.006 108.518 107.807 108.244C107.611 107.971 107.465 107.666 107.367 107.33C107.273 106.99 107.227 106.646 107.227 106.299C107.227 105.893 107.283 105.512 107.396 105.156C107.51 104.801 107.678 104.488 107.9 104.219C108.123 103.945 108.398 103.732 108.727 103.58C109.059 103.428 109.441 103.352 109.875 103.352C110.363 103.352 110.779 103.449 111.123 103.645C111.467 103.84 111.746 104.102 111.961 104.43C112.18 104.758 112.34 105.127 112.441 105.537C112.543 105.947 112.594 106.369 112.594 106.803V107.195C112.594 107.637 112.564 108.086 112.506 108.543C112.451 108.996 112.344 109.43 112.184 109.844C112.027 110.258 111.799 110.629 111.498 110.957C111.197 111.281 110.805 111.539 110.32 111.73C109.84 111.918 109.246 112.012 108.539 112.012H108.428V111.092ZM115.178 111.092H115.289C115.914 111.092 116.422 111.004 116.812 110.828C117.203 110.652 117.504 110.416 117.715 110.119C117.926 109.822 118.07 109.488 118.148 109.117C118.227 108.742 118.266 108.357 118.266 107.963V106.656C118.266 106.27 118.221 105.926 118.131 105.625C118.045 105.324 117.924 105.072 117.768 104.869C117.615 104.666 117.441 104.512 117.246 104.406C117.051 104.301 116.844 104.248 116.625 104.248C116.375 104.248 116.15 104.299 115.951 104.4C115.756 104.498 115.59 104.637 115.453 104.816C115.32 104.996 115.219 105.207 115.148 105.449C115.078 105.691 115.043 105.955 115.043 106.24C115.043 106.494 115.074 106.74 115.137 106.979C115.199 107.217 115.295 107.432 115.424 107.623C115.553 107.814 115.713 107.967 115.904 108.08C116.1 108.189 116.328 108.244 116.59 108.244C116.832 108.244 117.059 108.197 117.27 108.104C117.484 108.006 117.674 107.875 117.838 107.711C118.006 107.543 118.139 107.354 118.236 107.143C118.338 106.932 118.396 106.711 118.412 106.48H118.928C118.928 106.805 118.863 107.125 118.734 107.441C118.609 107.754 118.434 108.039 118.207 108.297C117.98 108.555 117.715 108.762 117.41 108.918C117.105 109.07 116.773 109.146 116.414 109.146C115.992 109.146 115.627 109.064 115.318 108.9C115.01 108.736 114.756 108.518 114.557 108.244C114.361 107.971 114.215 107.666 114.117 107.33C114.023 106.99 113.977 106.646 113.977 106.299C113.977 105.893 114.033 105.512 114.146 105.156C114.26 104.801 114.428 104.488 114.65 104.219C114.873 103.945 115.148 103.732 115.477 103.58C115.809 103.428 116.191 103.352 116.625 103.352C117.113 103.352 117.529 103.449 117.873 103.645C118.217 103.84 118.496 104.102 118.711 104.43C118.93 104.758 119.09 105.127 119.191 105.537C119.293 105.947 119.344 106.369 119.344 106.803V107.195C119.344 107.637 119.314 108.086 119.256 108.543C119.201 108.996 119.094 109.43 118.934 109.844C118.777 110.258 118.549 110.629 118.248 110.957C117.947 111.281 117.555 111.539 117.07 111.73C116.59 111.918 115.996 112.012 115.289 112.012H115.178V111.092ZM121.928 111.092H122.039C122.664 111.092 123.172 111.004 123.562 110.828C123.953 110.652 124.254 110.416 124.465 110.119C124.676 109.822 124.82 109.488 124.898 109.117C124.977 108.742 125.016 108.357 125.016 107.963V106.656C125.016 106.27 124.971 105.926 124.881 105.625C124.795 105.324 124.674 105.072 124.518 104.869C124.365 104.666 124.191 104.512 123.996 104.406C123.801 104.301 123.594 104.248 123.375 104.248C123.125 104.248 122.9 104.299 122.701 104.4C122.506 104.498 122.34 104.637 122.203 104.816C122.07 104.996 121.969 105.207 121.898 105.449C121.828 105.691 121.793 105.955 121.793 106.24C121.793 106.494 121.824 106.74 121.887 106.979C121.949 107.217 122.045 107.432 122.174 107.623C122.303 107.814 122.463 107.967 122.654 108.08C122.85 108.189 123.078 108.244 123.34 108.244C123.582 108.244 123.809 108.197 124.02 108.104C124.234 108.006 124.424 107.875 124.588 107.711C124.756 107.543 124.889 107.354 124.986 107.143C125.088 106.932 125.146 106.711 125.162 106.48H125.678C125.678 106.805 125.613 107.125 125.484 107.441C125.359 107.754 125.184 108.039 124.957 108.297C124.73 108.555 124.465 108.762 124.16 108.918C123.855 109.07 123.523 109.146 123.164 109.146C122.742 109.146 122.377 109.064 122.068 108.9C121.76 108.736 121.506 108.518 121.307 108.244C121.111 107.971 120.965 107.666 120.867 107.33C120.773 106.99 120.727 106.646 120.727 106.299C120.727 105.893 120.783 105.512 120.896 105.156C121.01 104.801 121.178 104.488 121.4 104.219C121.623 103.945 121.898 103.732 122.227 103.58C122.559 103.428 122.941 103.352 123.375 103.352C123.863 103.352 124.279 103.449 124.623 103.645C124.967 103.84 125.246 104.102 125.461 104.43C125.68 104.758 125.84 105.127 125.941 105.537C126.043 105.947 126.094 106.369 126.094 106.803V107.195C126.094 107.637 126.064 108.086 126.006 108.543C125.951 108.996 125.844 109.43 125.684 109.844C125.527 110.258 125.299 110.629 124.998 110.957C124.697 111.281 124.305 111.539 123.82 111.73C123.34 111.918 122.746 112.012 122.039 112.012H121.928V111.092ZM128.678 111.092H128.789C129.414 111.092 129.922 111.004 130.312 110.828C130.703 110.652 131.004 110.416 131.215 110.119C131.426 109.822 131.57 109.488 131.648 109.117C131.727 108.742 131.766 108.357 131.766 107.963V106.656C131.766 106.27 131.721 105.926 131.631 105.625C131.545 105.324 131.424 105.072 131.268 104.869C131.115 104.666 130.941 104.512 130.746 104.406C130.551 104.301 130.344 104.248 130.125 104.248C129.875 104.248 129.65 104.299 129.451 104.4C129.256 104.498 129.09 104.637 128.953 104.816C128.82 104.996 128.719 105.207 128.648 105.449C128.578 105.691 128.543 105.955 128.543 106.24C128.543 106.494 128.574 106.74 128.637 106.979C128.699 107.217 128.795 107.432 128.924 107.623C129.053 107.814 129.213 107.967 129.404 108.08C129.6 108.189 129.828 108.244 130.09 108.244C130.332 108.244 130.559 108.197 130.77 108.104C130.984 108.006 131.174 107.875 131.338 107.711C131.506 107.543 131.639 107.354 131.736 107.143C131.838 106.932 131.896 106.711 131.912 106.48H132.428C132.428 106.805 132.363 107.125 132.234 107.441C132.109 107.754 131.934 108.039 131.707 108.297C131.48 108.555 131.215 108.762 130.91 108.918C130.605 109.07 130.273 109.146 129.914 109.146C129.492 109.146 129.127 109.064 128.818 108.9C128.51 108.736 128.256 108.518 128.057 108.244C127.861 107.971 127.715 107.666 127.617 107.33C127.523 106.99 127.477 106.646 127.477 106.299C127.477 105.893 127.533 105.512 127.646 105.156C127.76 104.801 127.928 104.488 128.15 104.219C128.373 103.945 128.648 103.732 128.977 103.58C129.309 103.428 129.691 103.352 130.125 103.352C130.613 103.352 131.029 103.449 131.373 103.645C131.717 103.84 131.996 104.102 132.211 104.43C132.43 104.758 132.59 105.127 132.691 105.537C132.793 105.947 132.844 106.369 132.844 106.803V107.195C132.844 107.637 132.814 108.086 132.756 108.543C132.701 108.996 132.594 109.43 132.434 109.844C132.277 110.258 132.049 110.629 131.748 110.957C131.447 111.281 131.055 111.539 130.57 111.73C130.09 111.918 129.496 112.012 128.789 112.012H128.678V111.092ZM135.428 111.092H135.539C136.164 111.092 136.672 111.004 137.062 110.828C137.453 110.652 137.754 110.416 137.965 110.119C138.176 109.822 138.32 109.488 138.398 109.117C138.477 108.742 138.516 108.357 138.516 107.963V106.656C138.516 106.27 138.471 105.926 138.381 105.625C138.295 105.324 138.174 105.072 138.018 104.869C137.865 104.666 137.691 104.512 137.496 104.406C137.301 104.301 137.094 104.248 136.875 104.248C136.625 104.248 136.4 104.299 136.201 104.4C136.006 104.498 135.84 104.637 135.703 104.816C135.57 104.996 135.469 105.207 135.398 105.449C135.328 105.691 135.293 105.955 135.293 106.24C135.293 106.494 135.324 106.74 135.387 106.979C135.449 107.217 135.545 107.432 135.674 107.623C135.803 107.814 135.963 107.967 136.154 108.08C136.35 108.189 136.578 108.244 136.84 108.244C137.082 108.244 137.309 108.197 137.52 108.104C137.734 108.006 137.924 107.875 138.088 107.711C138.256 107.543 138.389 107.354 138.486 107.143C138.588 106.932 138.646 106.711 138.662 106.48H139.178C139.178 106.805 139.113 107.125 138.984 107.441C138.859 107.754 138.684 108.039 138.457 108.297C138.23 108.555 137.965 108.762 137.66 108.918C137.355 109.07 137.023 109.146 136.664 109.146C136.242 109.146 135.877 109.064 135.568 108.9C135.26 108.736 135.006 108.518 134.807 108.244C134.611 107.971 134.465 107.666 134.367 107.33C134.273 106.99 134.227 106.646 134.227 106.299C134.227 105.893 134.283 105.512 134.396 105.156C134.51 104.801 134.678 104.488 134.9 104.219C135.123 103.945 135.398 103.732 135.727 103.58C136.059 103.428 136.441 103.352 136.875 103.352C137.363 103.352 137.779 103.449 138.123 103.645C138.467 103.84 138.746 104.102 138.961 104.43C139.18 104.758 139.34 105.127 139.441 105.537C139.543 105.947 139.594 106.369 139.594 106.803V107.195C139.594 107.637 139.564 108.086 139.506 108.543C139.451 108.996 139.344 109.43 139.184 109.844C139.027 110.258 138.799 110.629 138.498 110.957C138.197 111.281 137.805 111.539 137.32 111.73C136.84 111.918 136.246 112.012 135.539 112.012H135.428V111.092ZM142.178 111.092H142.289C142.914 111.092 143.422 111.004 143.812 110.828C144.203 110.652 144.504 110.416 144.715 110.119C144.926 109.822 145.07 109.488 145.148 109.117C145.227 108.742 145.266 108.357 145.266 107.963V106.656C145.266 106.27 145.221 105.926 145.131 105.625C145.045 105.324 144.924 105.072 144.768 104.869C144.615 104.666 144.441 104.512 144.246 104.406C144.051 104.301 143.844 104.248 143.625 104.248C143.375 104.248 143.15 104.299 142.951 104.4C142.756 104.498 142.59 104.637 142.453 104.816C142.32 104.996 142.219 105.207 142.148 105.449C142.078 105.691 142.043 105.955 142.043 106.24C142.043 106.494 142.074 106.74 142.137 106.979C142.199 107.217 142.295 107.432 142.424 107.623C142.553 107.814 142.713 107.967 142.904 108.08C143.1 108.189 143.328 108.244 143.59 108.244C143.832 108.244 144.059 108.197 144.27 108.104C144.484 108.006 144.674 107.875 144.838 107.711C145.006 107.543 145.139 107.354 145.236 107.143C145.338 106.932 145.396 106.711 145.412 106.48H145.928C145.928 106.805 145.863 107.125 145.734 107.441C145.609 107.754 145.434 108.039 145.207 108.297C144.98 108.555 144.715 108.762 144.41 108.918C144.105 109.07 143.773 109.146 143.414 109.146C142.992 109.146 142.627 109.064 142.318 108.9C142.01 108.736 141.756 108.518 141.557 108.244C141.361 107.971 141.215 107.666 141.117 107.33C141.023 106.99 140.977 106.646 140.977 106.299C140.977 105.893 141.033 105.512 141.146 105.156C141.26 104.801 141.428 104.488 141.65 104.219C141.873 103.945 142.148 103.732 142.477 103.58C142.809 103.428 143.191 103.352 143.625 103.352C144.113 103.352 144.529 103.449 144.873 103.645C145.217 103.84 145.496 104.102 145.711 104.43C145.93 104.758 146.09 105.127 146.191 105.537C146.293 105.947 146.344 106.369 146.344 106.803V107.195C146.344 107.637 146.314 108.086 146.256 108.543C146.201 108.996 146.094 109.43 145.934 109.844C145.777 110.258 145.549 110.629 145.248 110.957C144.947 111.281 144.555 111.539 144.07 111.73C143.59 111.918 142.996 112.012 142.289 112.012H142.178V111.092ZM150.223 107.928V108.818H147.363V107.928H150.223ZM152.244 111.092H152.355C152.98 111.092 153.488 111.004 153.879 110.828C154.27 110.652 154.57 110.416 154.781 110.119C154.992 109.822 155.137 109.488 155.215 109.117C155.293 108.742 155.332 108.357 155.332 107.963V106.656C155.332 106.27 155.287 105.926 155.197 105.625C155.111 105.324 154.99 105.072 154.834 104.869C154.682 104.666 154.508 104.512 154.312 104.406C154.117 104.301 153.91 104.248 153.691 104.248C153.441 104.248 153.217 104.299 153.018 104.4C152.822 104.498 152.656 104.637 152.52 104.816C152.387 104.996 152.285 105.207 152.215 105.449C152.145 105.691 152.109 105.955 152.109 106.24C152.109 106.494 152.141 106.74 152.203 106.979C152.266 107.217 152.361 107.432 152.49 107.623C152.619 107.814 152.779 107.967 152.971 108.08C153.166 108.189 153.395 108.244 153.656 108.244C153.898 108.244 154.125 108.197 154.336 108.104C154.551 108.006 154.74 107.875 154.904 107.711C155.072 107.543 155.205 107.354 155.303 107.143C155.404 106.932 155.463 106.711 155.479 106.48H155.994C155.994 106.805 155.93 107.125 155.801 107.441C155.676 107.754 155.5 108.039 155.273 108.297C155.047 108.555 154.781 108.762 154.477 108.918C154.172 109.07 153.84 109.146 153.48 109.146C153.059 109.146 152.693 109.064 152.385 108.9C152.076 108.736 151.822 108.518 151.623 108.244C151.428 107.971 151.281 107.666 151.184 107.33C151.09 106.99 151.043 106.646 151.043 106.299C151.043 105.893 151.1 105.512 151.213 105.156C151.326 104.801 151.494 104.488 151.717 104.219C151.939 103.945 152.215 103.732 152.543 103.58C152.875 103.428 153.258 103.352 153.691 103.352C154.18 103.352 154.596 103.449 154.939 103.645C155.283 103.84 155.562 104.102 155.777 104.43C155.996 104.758 156.156 105.127 156.258 105.537C156.359 105.947 156.41 106.369 156.41 106.803V107.195C156.41 107.637 156.381 108.086 156.322 108.543C156.268 108.996 156.16 109.43 156 109.844C155.844 110.258 155.615 110.629 155.314 110.957C155.014 111.281 154.621 111.539 154.137 111.73C153.656 111.918 153.062 112.012 152.355 112.012H152.244V111.092ZM158.994 111.092H159.105C159.73 111.092 160.238 111.004 160.629 110.828C161.02 110.652 161.32 110.416 161.531 110.119C161.742 109.822 161.887 109.488 161.965 109.117C162.043 108.742 162.082 108.357 162.082 107.963V106.656C162.082 106.27 162.037 105.926 161.947 105.625C161.861 105.324 161.74 105.072 161.584 104.869C161.432 104.666 161.258 104.512 161.062 104.406C160.867 104.301 160.66 104.248 160.441 104.248C160.191 104.248 159.967 104.299 159.768 104.4C159.572 104.498 159.406 104.637 159.27 104.816C159.137 104.996 159.035 105.207 158.965 105.449C158.895 105.691 158.859 105.955 158.859 106.24C158.859 106.494 158.891 106.74 158.953 106.979C159.016 107.217 159.111 107.432 159.24 107.623C159.369 107.814 159.529 107.967 159.721 108.08C159.916 108.189 160.145 108.244 160.406 108.244C160.648 108.244 160.875 108.197 161.086 108.104C161.301 108.006 161.49 107.875 161.654 107.711C161.822 107.543 161.955 107.354 162.053 107.143C162.154 106.932 162.213 106.711 162.229 106.48H162.744C162.744 106.805 162.68 107.125 162.551 107.441C162.426 107.754 162.25 108.039 162.023 108.297C161.797 108.555 161.531 108.762 161.227 108.918C160.922 109.07 160.59 109.146 160.23 109.146C159.809 109.146 159.443 109.064 159.135 108.9C158.826 108.736 158.572 108.518 158.373 108.244C158.178 107.971 158.031 107.666 157.934 107.33C157.84 106.99 157.793 106.646 157.793 106.299C157.793 105.893 157.85 105.512 157.963 105.156C158.076 104.801 158.244 104.488 158.467 104.219C158.689 103.945 158.965 103.732 159.293 103.58C159.625 103.428 160.008 103.352 160.441 103.352C160.93 103.352 161.346 103.449 161.689 103.645C162.033 103.84 162.312 104.102 162.527 104.43C162.746 104.758 162.906 105.127 163.008 105.537C163.109 105.947 163.16 106.369 163.16 106.803V107.195C163.16 107.637 163.131 108.086 163.072 108.543C163.018 108.996 162.91 109.43 162.75 109.844C162.594 110.258 162.365 110.629 162.064 110.957C161.764 111.281 161.371 111.539 160.887 111.73C160.406 111.918 159.812 112.012 159.105 112.012H158.994V111.092Z" fill="black"/>
<rect x="47" y="90" width="146" height="34" rx="17" fill="#FBD1CC" fill-opacity="0.5" stroke="#DC5D5E" stroke-width="2"/>
<path d="M209.293 142.707C209.683 143.098 210.317 143.098 210.707 142.707C211.098 142.317 211.098 141.683 210.707 141.293L209.293 142.707ZM189 120C188.448 120 188 120.448 188 121V130C188 130.552 188.448 131 189 131C189.552 131 190 130.552 190 130V122H198C198.552 122 199 121.552 199 121C199 120.448 198.552 120 198 120H189ZM210.707 141.293L189.707 120.293L188.293 121.707L209.293 142.707L210.707 141.293Z" fill="#DC5D5E"/>
</svg>
