<svg width="12" height="13" viewBox="0 0 12 13" fill="none" xmlns="http://www.w3.org/2000/svg">
<path d="M12 6.5C12 8.0913 11.3679 9.61742 10.2426 10.7426C9.11742 11.8679 7.5913 12.5 6 12.5C4.4087 12.5 2.88258 11.8679 1.75736 10.7426C0.632141 9.61742 0 8.0913 0 6.5C0 4.9087 0.632141 3.38258 1.75736 2.25736C2.88258 1.13214 4.4087 0.5 6 0.5C7.5913 0.5 9.11742 1.13214 10.2426 2.25736C11.3679 3.38258 12 4.9087 12 6.5ZM6 3.125C6 3.02554 5.96049 2.93016 5.89016 2.85984C5.81984 2.78951 5.72446 2.75 5.625 2.75C5.52554 2.75 5.43016 2.78951 5.35984 2.85984C5.28951 2.93016 5.25 3.02554 5.25 3.125V7.25C5.25002 7.3161 5.26751 7.38102 5.3007 7.43818C5.33389 7.49534 5.3816 7.54272 5.439 7.5755L8.064 9.0755C8.15014 9.12206 8.25108 9.13307 8.34524 9.10619C8.4394 9.07931 8.5193 9.01667 8.56789 8.93165C8.61647 8.84663 8.62987 8.74598 8.60522 8.65122C8.58058 8.55645 8.51984 8.47508 8.436 8.4245L6 7.0325V3.125Z" fill="white"/>
</svg>
