<svg width="31" height="22" viewBox="0 0 31 22" fill="none" xmlns="http://www.w3.org/2000/svg">
<path d="M23.4574 9.59875L21.6062 6.38747H16.8768L19.0625 10.174C19.3263 10.6314 19.3263 11.1879 19.0625 11.6453L16.2975 16.4363C16.1656 16.6626 15.9771 16.8465 15.7605 16.9738C15.5391 17.1012 15.2894 17.1719 15.0256 17.1719H9.50017C8.97259 17.1719 8.48741 16.8937 8.22833 16.4363L5.46326 11.6453C5.19947 11.1879 5.19947 10.6314 5.46326 10.174L8.22833 5.38306C8.22833 5.38306 8.23775 5.3642 8.26131 5.33119C8.52039 4.88793 10.4046 1.76624 11.5351 0.544922H7.79496C6.85757 0.544922 5.99555 1.04477 5.52449 1.85584L1.05892 9.59875C0.592582 10.4098 0.592582 11.4095 1.05892 12.2206L5.52449 19.9588C5.99084 20.7698 6.85757 21.2697 7.79496 21.2697H16.7214C17.6588 21.2697 18.5208 20.7698 18.9919 19.9588L20.5982 17.1719L23.4527 12.2206C23.9191 11.4095 23.9191 10.4098 23.4527 9.59875H23.4574Z" fill="url(#paint0_linear_2778_16759)"/>
<path d="M29.9662 9.59875L25.5006 1.85584C25.0343 1.04477 24.1676 0.544922 23.2349 0.544922H14.3037C13.3663 0.544922 12.5043 1.04477 12.038 1.85584L10.427 4.64272L7.57241 9.59403C7.10607 10.4051 7.10607 11.4048 7.57241 12.2159L9.51315 15.578H14.2425L11.972 11.6406C11.7082 11.1832 11.7082 10.6267 11.972 10.1693L14.7371 5.37834C14.869 5.152 15.0574 4.96338 15.2741 4.84077C15.4955 4.71345 15.7452 4.64272 16.009 4.64272H21.5344C22.0573 4.64272 22.5424 4.92094 22.8062 5.37834L25.5713 10.1693C25.8351 10.6267 25.8351 11.1832 25.5713 11.6406L22.8062 16.4316C22.8062 16.4316 22.8015 16.441 22.7921 16.4598C22.599 16.7758 20.71 19.8928 19.4759 21.2697H23.2349C24.1723 21.2697 25.0343 20.7698 25.5006 19.9588L29.9662 12.2206C30.4326 11.4095 30.4326 10.4098 29.9662 9.59875Z" fill="url(#paint1_linear_2778_16759)"/>
<defs>
<linearGradient id="paint0_linear_2778_16759" x1="7.2721" y1="19.11" x2="17.2079" y2="2.78947" gradientUnits="userSpaceOnUse">
<stop stop-color="#45B97C"/>
<stop offset="0.05" stop-color="#45B984"/>
<stop offset="0.23" stop-color="#46BDA2"/>
<stop offset="0.39" stop-color="#46BFB4"/>
<stop offset="0.51" stop-color="#47C0BB"/>
<stop offset="0.61" stop-color="#3BABA9"/>
<stop offset="0.81" stop-color="#1E777B"/>
<stop offset="1" stop-color="#00424D"/>
</linearGradient>
<linearGradient id="paint1_linear_2778_16759" x1="22.5472" y1="1.86056" x2="15.4827" y2="18.7368" gradientUnits="userSpaceOnUse">
<stop stop-color="#45B97C"/>
<stop offset="0.05" stop-color="#45B984"/>
<stop offset="0.23" stop-color="#46BDA2"/>
<stop offset="0.39" stop-color="#46BFB4"/>
<stop offset="0.51" stop-color="#47C0BB"/>
<stop offset="0.61" stop-color="#3BABA9"/>
<stop offset="0.81" stop-color="#1E777B"/>
<stop offset="1" stop-color="#00424D"/>
</linearGradient>
</defs>
</svg>
