<svg width="43" height="12" viewBox="0 0 43 12" fill="none" xmlns="http://www.w3.org/2000/svg">
<path d="M5.56075 11.4072C7.53302 11.4072 8.70177 10.6779 9.75365 9.50805L8.32193 8.00391C7.51841 8.76358 6.80255 9.24977 5.6338 9.24977C3.88067 9.24977 2.66809 7.73043 2.66809 5.90723V5.87684C2.66809 4.05363 3.90989 2.56468 5.6338 2.56468C6.65646 2.56468 7.45997 3.02049 8.24888 3.76496L9.6806 2.04811C8.73099 1.07573 7.57685 0.407227 5.64841 0.407227C2.50738 0.407227 0.315971 2.88375 0.315971 5.90723V5.93761C0.315971 8.99148 2.55121 11.4072 5.56075 11.4072Z" fill="white"/>
<path d="M11.5547 11.2249H19.3415V9.14341H13.79V6.90999H18.6111V4.8285H13.79V2.67104H19.2685V0.589546H11.5547V11.2249Z" fill="white"/>
<path d="M21.3419 11.2249H23.5917V7.82159H25.3302H25.3595L27.5509 11.2249H30.1806L27.6824 7.42656C28.9826 6.92518 29.8738 5.84645 29.8738 4.1296V4.09922C29.8738 3.09645 29.567 2.26082 28.9972 1.66828C28.3252 0.969381 27.3171 0.589546 26.0169 0.589546H21.3419V11.2249ZM23.5917 5.75529V2.70142H25.827C26.9227 2.70142 27.5947 3.218 27.5947 4.22076V4.25115C27.5947 5.14756 26.9665 5.75529 25.8708 5.75529H23.5917Z" fill="white"/>
<path d="M36.8667 11.4072C40.0223 11.4072 42.316 8.93071 42.316 5.90723V5.87684C42.316 2.85336 40.0515 0.407227 36.8959 0.407227C33.7402 0.407227 31.4466 2.88375 31.4466 5.90723V5.93761C31.4466 8.96109 33.711 11.4072 36.8667 11.4072ZM36.8959 9.24977C35.0843 9.24977 33.7987 7.73043 33.7987 5.90723V5.87684C33.7987 4.05363 35.0551 2.56468 36.8667 2.56468C38.6782 2.56468 39.9639 4.08402 39.9639 5.90723V5.93761C39.9639 7.76082 38.7074 9.24977 36.8959 9.24977Z" fill="white"/>
</svg>
