<svg width="20" height="20" viewBox="0 0 20 20" fill="none" xmlns="http://www.w3.org/2000/svg">
<path d="M10 20C15.5228 20 20 15.5228 20 10C20 4.47715 15.5228 0 10 0C4.47715 0 0 4.47715 0 10C0 15.5228 4.47715 20 10 20Z" fill="url(#paint0_linear_33_70)"/>
<path d="M4.9549 11.4739C5.11082 11.3855 5.29612 11.3616 5.47003 11.4073C5.64394 11.4531 5.79222 11.5648 5.88225 11.7179C6.29923 12.4277 6.89927 13.0171 7.62198 13.4267C8.34468 13.8364 9.16452 14.0518 9.99896 14.0513C10.8334 14.0518 11.6532 13.8364 12.3759 13.4267C13.0986 13.0171 13.6987 12.4277 14.1157 11.7179C14.1599 11.6415 14.2191 11.5744 14.2899 11.5206C14.3606 11.4667 14.4416 11.4271 14.528 11.4041C14.6144 11.381 14.7046 11.375 14.7933 11.3863C14.8821 11.3977 14.9677 11.4261 15.0453 11.4701C15.1228 11.5141 15.1907 11.5727 15.2451 11.6425C15.2995 11.7123 15.3393 11.7921 15.3622 11.877C15.385 11.962 15.3906 12.0507 15.3785 12.1378C15.3663 12.2249 15.3368 12.3088 15.2915 12.3846C14.7553 13.2971 13.9839 14.0548 13.0548 14.5814C12.1257 15.1081 11.0717 15.3851 9.99896 15.3846C8.92619 15.3851 7.87222 15.1081 6.94312 14.5814C6.01402 14.0548 5.24258 13.2971 4.70643 12.3846C4.61641 12.2315 4.59201 12.0495 4.63861 11.8787C4.68521 11.708 4.79898 11.5624 4.9549 11.4739ZM8.6412 7.38461C8.6412 8.48861 8.03293 9.38461 7.28345 9.38461C6.53397 9.38461 5.92569 8.48861 5.92569 7.38461C5.92569 6.28061 6.53397 5.38461 7.28345 5.38461C8.03293 5.38461 8.6412 6.28061 8.6412 7.38461ZM14.0722 7.38461C14.0722 8.48861 13.464 9.38461 12.7145 9.38461C11.965 9.38461 11.3567 8.48861 11.3567 7.38461C11.3567 6.28061 11.965 5.38461 12.7145 5.38461C13.464 5.38461 14.0722 6.28061 14.0722 7.38461Z" fill="white"/>
<defs>
<linearGradient id="paint0_linear_33_70" x1="10" y1="0" x2="10" y2="20" gradientUnits="userSpaceOnUse">
<stop stop-color="#FFD359"/>
<stop offset="0.0702" stop-color="#FFCD4F"/>
<stop offset="0.2689" stop-color="#FFC037"/>
<stop offset="0.4806" stop-color="#FFB726"/>
<stop offset="0.7119" stop-color="#FFB21C"/>
<stop offset="1" stop-color="#FFB019"/>
</linearGradient>
</defs>
</svg>
