<svg width="247" height="244" viewBox="0 0 247 244" fill="none" xmlns="http://www.w3.org/2000/svg">
<g filter="url(#filter0_d_2626_19908)">
<path d="M103.222 73.344L100.494 68.611H93.5233L96.7447 74.1919C97.1335 74.866 97.1335 75.6861 96.7447 76.3602L92.6694 83.4214C92.475 83.755 92.1973 84.0261 91.8779 84.2137C91.5516 84.4014 91.1837 84.5056 90.7949 84.5056H82.6512C81.8737 84.5056 81.1586 84.0956 80.7767 83.4214L76.7014 76.3602C76.3127 75.6861 76.3127 74.866 76.7014 74.1919L80.7767 67.1307C80.7767 67.1307 80.7906 67.1029 80.8253 67.0542C81.2072 66.4009 83.9842 61.8 85.6504 60H80.138C78.7564 60 77.4859 60.7367 76.7917 61.9321L70.2101 73.344C69.5228 74.5394 69.5228 76.0127 70.2101 77.2081L76.7917 88.6131C77.479 89.8085 78.7564 90.5452 80.138 90.5452H93.2942C94.6758 90.5452 95.9463 89.8085 96.6405 88.6131L99.008 84.5056L103.215 77.2081C103.902 76.0127 103.902 74.5394 103.215 73.344H103.222Z" fill="url(#paint0_linear_2626_19908)"/>
<path d="M112.815 73.344L106.234 61.9321C105.546 60.7367 104.269 60 102.894 60H89.731C88.3494 60 87.0789 60.7367 86.3916 61.9321L84.0172 66.0395L79.81 73.337C79.1227 74.5324 79.1227 76.0058 79.81 77.2012L82.6704 82.1565H89.6407L86.2944 76.3533C85.9056 75.6792 85.9056 74.8591 86.2944 74.1849L90.3697 67.1237C90.5641 66.7901 90.8418 66.5121 91.1612 66.3314C91.4875 66.1438 91.8554 66.0395 92.2442 66.0395H100.388C101.158 66.0395 101.874 66.4496 102.262 67.1237L106.338 74.1849C106.726 74.8591 106.726 75.6792 106.338 76.3533L102.262 83.4145C102.262 83.4145 102.255 83.4284 102.242 83.4562C101.957 83.9218 99.1729 88.5158 97.3539 90.5452H102.894C104.276 90.5452 105.546 89.8085 106.234 88.6131L112.815 77.2081C113.502 76.0127 113.502 74.5394 112.815 73.344Z" fill="url(#paint1_linear_2626_19908)"/>
<path d="M68.2549 119.545C71.1663 119.545 72.8916 118.55 74.4444 116.955L72.3309 114.904C71.1448 115.94 70.088 116.603 68.3627 116.603C65.7748 116.603 63.9848 114.531 63.9848 112.045V112.003C63.9848 109.517 65.8179 107.487 68.3627 107.487C69.8724 107.487 71.0585 108.108 72.2231 109.124L74.3366 106.782C72.9348 105.457 71.231 104.545 68.3843 104.545C63.7475 104.545 60.5126 107.922 60.5126 112.045V112.086C60.5126 116.251 63.8122 119.545 68.2549 119.545Z" fill="white"/>
<path d="M77.1031 119.296H88.598V116.458H80.4028V113.412H87.5196V110.574H80.4028V107.632H88.4901V104.794H77.1031V119.296Z" fill="white"/>
<path d="M91.5508 119.296H94.8721V114.655H97.4384H97.4816L100.717 119.296H104.598L100.911 114.117C102.83 113.433 104.146 111.962 104.146 109.621V109.579C104.146 108.212 103.693 107.073 102.852 106.265C101.86 105.311 100.371 104.794 98.4521 104.794H91.5508V119.296ZM94.8721 111.838V107.673H98.1717C99.7892 107.673 100.781 108.378 100.781 109.745V109.787C100.781 111.009 99.8539 111.838 98.2364 111.838H94.8721Z" fill="white"/>
<path d="M114.468 119.545C119.127 119.545 122.513 116.168 122.513 112.045V112.003C122.513 107.881 119.17 104.545 114.512 104.545C109.853 104.545 106.467 107.922 106.467 112.045V112.086C106.467 116.209 109.81 119.545 114.468 119.545ZM114.512 116.603C111.837 116.603 109.939 114.531 109.939 112.045V112.003C109.939 109.517 111.794 107.487 114.468 107.487C117.143 107.487 119.04 109.559 119.04 112.045V112.086C119.04 114.573 117.186 116.603 114.512 116.603Z" fill="white"/>
</g>
<defs>
<filter id="filter0_d_2626_19908" x="0.512604" y="0" width="246" height="243.545" filterUnits="userSpaceOnUse" color-interpolation-filters="sRGB">
<feFlood flood-opacity="0" result="BackgroundImageFix"/>
<feColorMatrix in="SourceAlpha" type="matrix" values="0 0 0 0 0 0 0 0 0 0 0 0 0 0 0 0 0 0 127 0" result="hardAlpha"/>
<feOffset dx="32" dy="32"/>
<feGaussianBlur stdDeviation="46"/>
<feComposite in2="hardAlpha" operator="out"/>
<feColorMatrix type="matrix" values="0 0 0 0 0 0 0 0 0 0 0 0 0 0 0 0 0 0 0.54 0"/>
<feBlend mode="normal" in2="BackgroundImageFix" result="effect1_dropShadow_2626_19908"/>
<feBlend mode="normal" in="SourceGraphic" in2="effect1_dropShadow_2626_19908" result="shape"/>
</filter>
<linearGradient id="paint0_linear_2626_19908" x1="79.3674" y1="87.3621" x2="94.0112" y2="63.3081" gradientUnits="userSpaceOnUse">
<stop stop-color="#45B97C"/>
<stop offset="0.05" stop-color="#45B984"/>
<stop offset="0.23" stop-color="#46BDA2"/>
<stop offset="0.39" stop-color="#46BFB4"/>
<stop offset="0.51" stop-color="#47C0BB"/>
<stop offset="0.61" stop-color="#3BABA9"/>
<stop offset="0.81" stop-color="#1E777B"/>
<stop offset="1" stop-color="#00424D"/>
</linearGradient>
<linearGradient id="paint1_linear_2626_19908" x1="101.881" y1="61.939" x2="91.4686" y2="86.8121" gradientUnits="userSpaceOnUse">
<stop stop-color="#45B97C"/>
<stop offset="0.05" stop-color="#45B984"/>
<stop offset="0.23" stop-color="#46BDA2"/>
<stop offset="0.39" stop-color="#46BFB4"/>
<stop offset="0.51" stop-color="#47C0BB"/>
<stop offset="0.61" stop-color="#3BABA9"/>
<stop offset="0.81" stop-color="#1E777B"/>
<stop offset="1" stop-color="#00424D"/>
</linearGradient>
</defs>
</svg>
