<svg width="131" height="41" viewBox="0 0 131 41" fill="none" xmlns="http://www.w3.org/2000/svg">
<rect x="1.0126" y="1.04492" width="129" height="39" rx="5.5" fill="black"/>
<path fill-rule="evenodd" clip-rule="evenodd" d="M9.9476 8.09202C9.6566 8.40002 9.4856 8.87702 9.4856 9.49602V31.594C9.4856 32.213 9.6566 32.69 9.9476 32.998L10.0216 33.07L22.4006 20.691V20.399L10.0216 8.02002L9.9476 8.09202Z" fill="#00D7FE"/>
<mask id="mask0_2626_19917" style="mask-type:alpha" maskUnits="userSpaceOnUse" x="22" y="16" width="11" height="9">
<path d="M26.5256 24.819L22.4006 20.691V20.399L26.5276 16.272L31.5096 19.102C32.9056 19.896 32.9056 21.194 31.5096 21.987L26.6206 24.765L26.5256 24.819Z" fill="white"/>
</mask>
<g mask="url(#mask0_2626_19917)">
<path fill-rule="evenodd" clip-rule="evenodd" d="M26.5256 24.819L22.4006 20.691V20.399L26.5276 16.272L31.5096 19.102C32.9056 19.896 32.9056 21.194 31.5096 21.987L26.6206 24.765L26.5256 24.819Z" fill="url(#paint0_linear_2626_19917)"/>
</g>
<mask id="mask1_2626_19917" style="mask-type:alpha" maskUnits="userSpaceOnUse" x="9" y="20" width="18" height="14">
<path d="M26.6206 24.7649L22.4006 20.5449L9.9476 32.9979C10.4086 33.4849 11.1686 33.5449 12.0246 33.0589L26.6206 24.7649Z" fill="white"/>
</mask>
<g mask="url(#mask1_2626_19917)">
<path fill-rule="evenodd" clip-rule="evenodd" d="M26.6206 24.7649L22.4006 20.5449L9.9476 32.9979C10.4086 33.4849 11.1686 33.5449 12.0246 33.0589L26.6206 24.7649Z" fill="url(#paint1_linear_2626_19917)"/>
</g>
<mask id="mask2_2626_19917" style="mask-type:alpha" maskUnits="userSpaceOnUse" x="9" y="7" width="18" height="14">
<path d="M26.6206 16.3251L12.0246 8.03109C11.1686 7.54509 10.4086 7.60509 9.9476 8.09209L22.4006 20.5451L26.6206 16.3251Z" fill="white"/>
</mask>
<g mask="url(#mask2_2626_19917)">
<path fill-rule="evenodd" clip-rule="evenodd" d="M26.6206 16.3251L12.0246 8.03109C11.1686 7.54509 10.4086 7.60509 9.9476 8.09209L22.4006 20.5451L26.6206 16.3251Z" fill="url(#paint2_linear_2626_19917)"/>
</g>
<path fill-rule="evenodd" clip-rule="evenodd" d="M104.407 31.4979H106.273V18.9969H104.407V31.4979ZM121.214 23.4999L119.075 28.9199H119.011L116.791 23.4999H114.781L118.11 31.0749L116.212 35.2889H118.159L123.289 23.4999H121.214ZM110.632 30.0779C110.02 30.0779 109.168 29.7729 109.168 29.0169C109.168 28.0519 110.23 27.6819 111.146 27.6819C111.967 27.6819 112.352 27.8589 112.851 28.0999C112.706 29.2579 111.709 30.0779 110.632 30.0779ZM110.857 23.2269C109.506 23.2269 108.107 23.8219 107.528 25.1409L109.184 25.8319C109.538 25.1409 110.197 24.9149 110.889 24.9149C111.854 24.9149 112.835 25.4939 112.851 26.5239V26.6519C112.513 26.4589 111.79 26.1699 110.905 26.1699C109.12 26.1699 107.302 27.1509 107.302 28.9839C107.302 30.6569 108.766 31.7349 110.406 31.7349C111.661 31.7349 112.352 31.1719 112.787 30.5119H112.851V31.4769H114.652V26.6849C114.652 24.4649 112.996 23.2269 110.857 23.2269ZM99.3246 25.0219H96.6706V20.7369H99.3246C100.72 20.7369 101.512 21.8919 101.512 22.8789C101.512 23.8479 100.72 25.0219 99.3246 25.0219ZM99.2766 18.9969H94.8056V31.4979H96.6706V26.7619H99.2766C101.345 26.7619 103.378 25.2639 103.378 22.8789C103.378 20.4939 101.345 18.9969 99.2766 18.9969ZM74.8956 30.0799C73.6066 30.0799 72.5276 29.0009 72.5276 27.5189C72.5276 26.0209 73.6066 24.9249 74.8956 24.9249C76.1686 24.9249 77.1666 26.0209 77.1666 27.5189C77.1666 29.0009 76.1686 30.0799 74.8956 30.0799ZM77.0376 24.1999H76.9736C76.5546 23.7009 75.7496 23.2499 74.7346 23.2499C72.6076 23.2499 70.6586 25.1179 70.6586 27.5189C70.6586 29.9029 72.6076 31.7559 74.7346 31.7559C75.7496 31.7559 76.5546 31.3049 76.9736 30.7889H77.0376V31.4009C77.0376 33.0289 76.1686 33.8989 74.7666 33.8989C73.6226 33.8989 72.9136 33.0769 72.6236 32.3839L70.9966 33.0609C71.4636 34.1889 72.7046 35.5739 74.7666 35.5739C76.9576 35.5739 78.8106 34.2849 78.8106 31.1439V23.5069H77.0376V24.1999ZM80.0996 31.4979H81.9686V18.9959H80.0996V31.4979ZM84.7226 27.3739C84.6746 25.7309 85.9956 24.8929 86.9456 24.8929C87.6876 24.8929 88.3156 25.2629 88.5246 25.7949L84.7226 27.3739ZM90.5226 25.9559C90.1686 25.0059 89.0886 23.2499 86.8816 23.2499C84.6906 23.2499 82.8706 24.9729 82.8706 27.5029C82.8706 29.8869 84.6746 31.7559 87.0906 31.7559C89.0406 31.7559 90.1686 30.5639 90.6356 29.8709L89.1856 28.9039C88.7026 29.6129 88.0416 30.0799 87.0906 30.0799C86.1406 30.0799 85.4636 29.6449 85.0286 28.7919L90.7156 26.4399L90.5226 25.9559ZM45.2146 24.5549V26.3589H49.5316C49.4026 27.3739 49.0646 28.1149 48.5496 28.6309C47.9206 29.2589 46.9376 29.9509 45.2146 29.9509C42.5566 29.9509 40.4776 27.8089 40.4776 25.1509C40.4776 22.4919 42.5566 20.3499 45.2146 20.3499C46.6486 20.3499 47.6956 20.9139 48.4686 21.6389L49.7416 20.3659C48.6616 19.3349 47.2286 18.5449 45.2146 18.5449C41.5736 18.5449 38.5126 21.5099 38.5126 25.1509C38.5126 28.7919 41.5736 31.7559 45.2146 31.7559C47.1796 31.7559 48.6616 31.1119 49.8216 29.9029C51.0136 28.7109 51.3846 27.0359 51.3846 25.6819C51.3846 25.2629 51.3526 24.8769 51.2876 24.5549H45.2146ZM56.2936 30.0799C55.0046 30.0799 53.8926 29.0169 53.8926 27.5029C53.8926 25.9719 55.0046 24.9249 56.2936 24.9249C57.5816 24.9249 58.6936 25.9719 58.6936 27.5029C58.6936 29.0169 57.5816 30.0799 56.2936 30.0799ZM56.2936 23.2499C53.9406 23.2499 52.0236 25.0379 52.0236 27.5029C52.0236 29.9509 53.9406 31.7559 56.2936 31.7559C58.6456 31.7559 60.5626 29.9509 60.5626 27.5029C60.5626 25.0379 58.6456 23.2499 56.2936 23.2499ZM65.6066 30.0799C64.3176 30.0799 63.2056 29.0169 63.2056 27.5029C63.2056 25.9719 64.3176 24.9249 65.6066 24.9249C66.8956 24.9249 68.0066 25.9719 68.0066 27.5029C68.0066 29.0169 66.8956 30.0799 65.6066 30.0799ZM65.6066 23.2499C63.2546 23.2499 61.3376 25.0379 61.3376 27.5029C61.3376 29.9509 63.2546 31.7559 65.6066 31.7559C67.9586 31.7559 69.8756 29.9509 69.8756 27.5029C69.8756 25.0379 67.9586 23.2499 65.6066 23.2499Z" fill="#FFFFFE"/>
<path d="M43.9838 11.3589V13.7012C43.9047 13.8184 43.7787 13.9502 43.6059 14.0967C43.433 14.2402 43.1942 14.3662 42.8896 14.4746C42.5878 14.5801 42.1982 14.6328 41.7206 14.6328C41.331 14.6328 40.9721 14.5654 40.644 14.4307C40.3188 14.293 40.036 14.0938 39.7958 13.833C39.5585 13.5693 39.3739 13.25 39.2421 12.875C39.1132 12.4971 39.0487 12.0693 39.0487 11.5918V11.0952C39.0487 10.6177 39.1044 10.1914 39.2157 9.81641C39.33 9.44141 39.497 9.12354 39.7167 8.86279C39.9364 8.59912 40.206 8.3999 40.5253 8.26514C40.8446 8.12744 41.2108 8.05859 41.6239 8.05859C42.1132 8.05859 42.5219 8.14355 42.85 8.31348C43.1811 8.48047 43.4389 8.71191 43.6234 9.00781C43.8109 9.30371 43.9311 9.64062 43.9838 10.0186H43.1357C43.0976 9.78711 43.0214 9.57617 42.9071 9.38574C42.7958 9.19531 42.6361 9.04297 42.4281 8.92871C42.2201 8.81152 41.9521 8.75293 41.6239 8.75293C41.328 8.75293 41.0717 8.80713 40.8549 8.91553C40.6381 9.02393 40.4594 9.1792 40.3188 9.38135C40.1781 9.5835 40.0727 9.82812 40.0023 10.1152C39.935 10.4023 39.9013 10.7261 39.9013 11.0864V11.5918C39.9013 11.9609 39.9438 12.2905 40.0287 12.5806C40.1166 12.8706 40.2411 13.1182 40.4023 13.3232C40.5634 13.5254 40.7553 13.6792 40.9779 13.7847C41.2035 13.8901 41.4525 13.9429 41.725 13.9429C42.0268 13.9429 42.2714 13.918 42.4589 13.8682C42.6464 13.8154 42.7929 13.7539 42.8983 13.6836C43.0038 13.6104 43.0844 13.5415 43.14 13.4771V12.0444H41.6591V11.3589H43.9838ZM49.185 13.855V14.5449H45.7968V13.855H49.185ZM45.9682 8.14648V14.5449H45.12V8.14648H45.9682ZM48.7367 10.8975V11.5874H45.7968V10.8975H48.7367ZM49.141 8.14648V8.84082H45.7968V8.14648H49.141ZM52.4174 8.14648V14.5449H51.5825V8.14648H52.4174ZM54.4741 8.14648V8.84082H49.5302V8.14648H54.4741ZM57.8496 8.14648V14.5449H57.0015V8.14648H57.8496ZM61.3545 8.14648V14.5449H60.5195V8.14648H61.3545ZM63.4111 8.14648V8.84082H58.4673V8.14648H63.4111ZM70.8033 11.1436V11.5479C70.8033 12.0283 70.7432 12.459 70.6231 12.8398C70.503 13.2207 70.3301 13.5444 70.1045 13.811C69.879 14.0776 69.608 14.2812 69.2915 14.4219C68.9781 14.5625 68.6265 14.6328 68.2369 14.6328C67.8589 14.6328 67.5118 14.5625 67.1954 14.4219C66.8819 14.2812 66.6094 14.0776 66.378 13.811C66.1495 13.5444 65.9722 13.2207 65.8462 12.8398C65.7203 12.459 65.6573 12.0283 65.6573 11.5479V11.1436C65.6573 10.6631 65.7188 10.2339 65.8418 9.85596C65.9678 9.4751 66.1451 9.15137 66.3736 8.88477C66.6021 8.61523 66.8731 8.41016 67.1866 8.26953C67.503 8.12891 67.8501 8.05859 68.2281 8.05859C68.6177 8.05859 68.9693 8.12891 69.2828 8.26953C69.5992 8.41016 69.8702 8.61523 70.0957 8.88477C70.3243 9.15137 70.4986 9.4751 70.6187 9.85596C70.7417 10.2339 70.8033 10.6631 70.8033 11.1436ZM69.9639 11.5479V11.1348C69.9639 10.7539 69.9244 10.417 69.8453 10.124C69.7691 9.83105 69.6563 9.58496 69.5069 9.38574C69.3575 9.18652 69.1744 9.03564 68.9576 8.93311C68.7437 8.83057 68.5005 8.7793 68.2281 8.7793C67.9644 8.7793 67.7256 8.83057 67.5118 8.93311C67.3008 9.03564 67.1192 9.18652 66.9668 9.38574C66.8174 9.58496 66.7017 9.83105 66.6197 10.124C66.5376 10.417 66.4966 10.7539 66.4966 11.1348V11.5479C66.4966 11.9316 66.5376 12.2715 66.6197 12.5674C66.7017 12.8604 66.8189 13.1079 66.9712 13.3101C67.1265 13.5093 67.3096 13.6602 67.5206 13.7627C67.7344 13.8652 67.9732 13.9165 68.2369 13.9165C68.5123 13.9165 68.7569 13.8652 68.9707 13.7627C69.1846 13.6602 69.3648 13.5093 69.5113 13.3101C69.6607 13.1079 69.7735 12.8604 69.8497 12.5674C69.9258 12.2715 69.9639 11.9316 69.9639 11.5479ZM76.7252 8.14648V14.5449H75.8726L72.6514 9.60986V14.5449H71.8033V8.14648H72.6514L75.8858 13.0947V8.14648H76.7252Z" fill="white"/>
<rect x="1.0126" y="1.04492" width="129" height="39" rx="5.5" stroke="#A6A6A6"/>
<defs>
<linearGradient id="paint0_linear_2626_19917" x1="30.6014" y1="20.5453" x2="22.4006" y2="20.5453" gradientUnits="userSpaceOnUse">
<stop stop-color="#FFBC00"/>
<stop offset="1" stop-color="#FFDA03"/>
</linearGradient>
<linearGradient id="paint1_linear_2626_19917" x1="24.3272" y1="24.5157" x2="13.6237" y2="33.3383" gradientUnits="userSpaceOnUse">
<stop stop-color="#E22652"/>
<stop offset="1" stop-color="#FF3A44"/>
</linearGradient>
<linearGradient id="paint2_linear_2626_19917" x1="11.8333" y1="9.59126" x2="18.9695" y2="15.8662" gradientUnits="userSpaceOnUse">
<stop stop-color="#0ED574"/>
<stop offset="1" stop-color="#07F076"/>
</linearGradient>
</defs>
</svg>
