<svg width="45" height="31" viewBox="0 0 45 31" fill="none" xmlns="http://www.w3.org/2000/svg">
<path d="M34.2221 13.344L31.4937 8.61102H24.5233L27.7447 14.1919C28.1334 14.866 28.1334 15.6861 27.7447 16.3602L23.6694 23.4214C23.475 23.755 23.1973 24.0261 22.8779 24.2137C22.5516 24.4014 22.1837 24.5056 21.7949 24.5056H13.6512C12.8736 24.5056 12.1586 24.0956 11.7767 23.4214L7.70142 16.3602C7.31263 15.6861 7.31263 14.866 7.70142 14.1919L11.7767 7.13068C11.7767 7.13068 11.7906 7.10288 11.8253 7.05423C12.2072 6.40093 14.9842 1.80004 16.6504 0H11.138C9.75642 0 8.48593 0.736698 7.79167 1.93209L1.2101 13.344C0.522782 14.5394 0.522782 16.0127 1.2101 17.2081L7.79167 28.6131C8.47899 29.8085 9.75642 30.5452 11.138 30.5452H24.2942C25.6758 30.5452 26.9463 29.8085 27.6405 28.6131L30.0079 24.5056L34.2152 17.2081C34.9025 16.0127 34.9025 14.5394 34.2152 13.344H34.2221Z" fill="url(#paint0_linear_2622_13446)"/>
<path d="M43.8151 13.344L37.2335 1.93209C36.5462 0.736698 35.2687 0 33.8941 0H20.731C19.3494 0 18.0789 0.736698 17.3916 1.93209L15.0172 6.03953L10.81 13.337C10.1227 14.5324 10.1227 16.0058 10.81 17.2012L13.6704 22.1565H20.6407L17.2944 16.3533C16.9056 15.6792 16.9056 14.8591 17.2944 14.1849L21.3697 7.12373C21.5641 6.79013 21.8418 6.51213 22.1611 6.33143C22.4874 6.14378 22.8554 6.03953 23.2442 6.03953H31.3878C32.1585 6.03953 32.8736 6.44958 33.2623 7.12373L37.3376 14.1849C37.7264 14.8591 37.7264 15.6792 37.3376 16.3533L33.2623 23.4145C33.2623 23.4145 33.2554 23.4284 33.2415 23.4562C32.9569 23.9218 30.1729 28.5158 28.3539 30.5452H33.8941C35.2757 30.5452 36.5462 29.8085 37.2335 28.6131L43.8151 17.2081C44.5024 16.0127 44.5024 14.5394 43.8151 13.344Z" fill="url(#paint1_linear_2622_13446)"/>
<defs>
<linearGradient id="paint0_linear_2622_13446" x1="10.3674" y1="27.3621" x2="25.0112" y2="3.30813" gradientUnits="userSpaceOnUse">
<stop stop-color="#45B97C"/>
<stop offset="0.05" stop-color="#45B984"/>
<stop offset="0.23" stop-color="#46BDA2"/>
<stop offset="0.39" stop-color="#46BFB4"/>
<stop offset="0.51" stop-color="#47C0BB"/>
<stop offset="0.61" stop-color="#3BABA9"/>
<stop offset="0.81" stop-color="#1E777B"/>
<stop offset="1" stop-color="#00424D"/>
</linearGradient>
<linearGradient id="paint1_linear_2622_13446" x1="32.8805" y1="1.93904" x2="22.4686" y2="26.8121" gradientUnits="userSpaceOnUse">
<stop stop-color="#45B97C"/>
<stop offset="0.05" stop-color="#45B984"/>
<stop offset="0.23" stop-color="#46BDA2"/>
<stop offset="0.39" stop-color="#46BFB4"/>
<stop offset="0.51" stop-color="#47C0BB"/>
<stop offset="0.61" stop-color="#3BABA9"/>
<stop offset="0.81" stop-color="#1E777B"/>
<stop offset="1" stop-color="#00424D"/>
</linearGradient>
</defs>
</svg>
