<svg width="63" height="16" viewBox="0 0 63 16" fill="none" xmlns="http://www.w3.org/2000/svg">
<path d="M8.25487 15.5449C11.1663 15.5449 12.8916 14.5504 14.4444 12.9551L12.3309 10.904C11.1447 11.9399 10.088 12.6029 8.3627 12.6029C5.77474 12.6029 3.98474 10.5311 3.98474 8.04492V8.00349C3.98474 5.5173 5.81788 3.48691 8.3627 3.48691C9.87234 3.48691 11.0585 4.10846 12.2231 5.12365L14.3366 2.78249C12.9347 1.45652 11.231 0.544922 8.38426 0.544922C3.74751 0.544922 0.512573 3.92199 0.512573 8.04492V8.08636C0.512573 12.2507 3.81221 15.5449 8.25487 15.5449Z" fill="white"/>
<path d="M17.1031 15.2963H28.5979V12.4579H20.4027V9.41233H27.5196V6.57393H20.4027V3.63194H28.4901V0.79354H17.1031V15.2963Z" fill="white"/>
<path d="M31.5508 15.2963H34.872V10.6554H37.4384H37.4815L40.7165 15.2963H44.5984L40.9106 10.1167C42.83 9.43304 44.1455 7.96205 44.1455 5.62089V5.57945C44.1455 4.21205 43.6926 3.07255 42.8515 2.26453C41.8595 1.3115 40.3714 0.79354 38.452 0.79354H31.5508V15.2963ZM34.872 7.83774V3.67337H38.1717C39.7891 3.67337 40.7812 4.37779 40.7812 5.7452V5.78663C40.7812 7.00901 39.8538 7.83774 38.2364 7.83774H34.872Z" fill="white"/>
<path d="M54.4684 15.5449C59.1267 15.5449 62.5126 12.1678 62.5126 8.04492V8.00349C62.5126 3.88056 59.1698 0.544922 54.5115 0.544922C49.8532 0.544922 46.4673 3.92199 46.4673 8.04492V8.08636C46.4673 12.2093 49.81 15.5449 54.4684 15.5449ZM54.5115 12.6029C51.8373 12.6029 49.9394 10.5311 49.9394 8.04492V8.00349C49.9394 5.5173 51.7941 3.48691 54.4684 3.48691C57.1426 3.48691 59.0404 5.55873 59.0404 8.04492V8.08636C59.0404 10.5725 57.1857 12.6029 54.5115 12.6029Z" fill="white"/>
</svg>
