<svg width="12" height="12" viewBox="0 0 12 12" fill="none" xmlns="http://www.w3.org/2000/svg">
<path fill-rule="evenodd" clip-rule="evenodd" d="M6.15215 9.74017L8.79245 6.98102L0.913537 6.94296C0.792976 6.94249 0.673687 6.91688 0.562497 6.8676C0.451308 6.81832 0.3504 6.74634 0.265549 6.65578C0.180698 6.56522 0.113569 6.45786 0.0680057 6.33983C0.0224421 6.22181 -0.000662428 6.09545 1.44532e-05 5.96797C0.000575588 5.84057 0.0248778 5.71453 0.0715319 5.59707C0.118186 5.47961 0.186277 5.37302 0.271913 5.28339C0.357548 5.19377 0.45905 5.12287 0.570614 5.07475C0.682178 5.02663 0.801618 5.00223 0.922106 5.00295L8.79931 5.0401L6.19414 2.25285C6.10923 2.16245 6.042 2.05524 5.9963 1.93735C5.9506 1.81946 5.92732 1.6932 5.9278 1.56579C5.92828 1.43838 5.9525 1.31232 5.99908 1.19481C6.04567 1.07731 6.1137 0.970665 6.19928 0.880978C6.37232 0.699938 6.60625 0.598919 6.84967 0.600108C7.0931 0.601297 7.32613 0.704598 7.49758 0.887321L11.7824 5.46235C11.9228 5.61256 12.0011 5.8156 12 6.02682C11.9989 6.23804 11.9184 6.44014 11.7764 6.58867L7.44616 11.1193C7.27327 11.3003 7.03949 11.4013 6.7962 11.4001C6.55291 11.3989 6.32003 11.2956 6.14872 11.113C6.06367 11.0226 5.99629 10.9154 5.95043 10.7975C5.90457 10.6796 5.88113 10.5533 5.88145 10.4258C5.88177 10.2983 5.90584 10.1722 5.95229 10.0545C5.99874 9.93687 6.06665 9.83006 6.15215 9.74017Z" fill="#A5DACB"/>
</svg>
