<svg width="12" height="12" viewBox="0 0 12 12" fill="none" xmlns="http://www.w3.org/2000/svg">
<path fill-rule="evenodd" clip-rule="evenodd" d="M6.15215 9.74008L8.79245 6.98093L0.913537 6.94287C0.792976 6.9424 0.673687 6.91679 0.562497 6.86751C0.451308 6.81823 0.3504 6.74625 0.265549 6.65569C0.180698 6.56513 0.113569 6.45777 0.0680057 6.33974C0.0224421 6.22172 -0.000662428 6.09535 1.44532e-05 5.96788C0.000575588 5.84048 0.0248778 5.71444 0.0715319 5.59698C0.118186 5.47951 0.186277 5.37292 0.271913 5.2833C0.357548 5.19368 0.45905 5.12278 0.570614 5.07466C0.682178 5.02654 0.801618 5.00214 0.922106 5.00285L8.79931 5.04L6.19414 2.25276C6.10923 2.16236 6.042 2.05515 5.9963 1.93726C5.9506 1.81937 5.92732 1.69311 5.9278 1.5657C5.92828 1.43829 5.9525 1.31223 5.99908 1.19472C6.04567 1.07722 6.1137 0.970574 6.19928 0.880887C6.37232 0.699846 6.60625 0.598827 6.84967 0.600016C7.0931 0.601206 7.32613 0.704506 7.49758 0.88723L11.7824 5.46226C11.9228 5.61247 12.0011 5.81551 12 6.02673C11.9989 6.23795 11.9184 6.44005 11.7764 6.58857L7.44616 11.1192C7.27327 11.3002 7.03949 11.4012 6.7962 11.4C6.55291 11.3988 6.32003 11.2955 6.14872 11.1129C6.06367 11.0225 5.99629 10.9153 5.95043 10.7974C5.90457 10.6795 5.88113 10.5532 5.88145 10.4257C5.88177 10.2982 5.90584 10.1721 5.95229 10.0544C5.99874 9.93678 6.06665 9.82996 6.15215 9.74008Z" fill="#A5DACB"/>
</svg>
