<svg width="72" height="72" viewBox="0 0 72 72" fill="none" xmlns="http://www.w3.org/2000/svg">
<rect width="72" height="72" rx="36" fill="#333333" fill-opacity="0.5"/>
<path d="M47.3896 35.3896C47.0845 35.3896 46.7919 35.5108 46.5762 35.7266C46.3605 35.9423 46.2393 36.2349 46.2393 36.54C46.2257 36.8788 46.195 37.2166 46.1472 37.5523L45.2039 37.0691C44.9453 36.949 44.7374 36.7412 44.6173 36.4825C44.2914 35.8106 43.7831 35.244 43.1505 34.8473C42.5178 34.4507 41.7864 34.24 41.0397 34.2393C40.8479 34.2516 40.656 34.2156 40.4817 34.1347C40.3074 34.0538 40.1561 33.9305 40.0417 33.776C39.9273 33.6216 39.8534 33.4409 39.8268 33.2506C39.8002 33.0602 39.8217 32.8662 39.8893 32.6863C40.0075 32.3543 40.1498 32.0314 40.315 31.72C40.3905 31.5886 40.4394 31.4436 40.4589 31.2933C40.4784 31.1429 40.4681 30.9902 40.4286 30.8439C40.389 30.6976 40.3211 30.5604 40.2286 30.4404C40.136 30.3203 40.0208 30.2196 39.8893 30.1441C39.7579 30.0685 39.6129 30.0196 39.4626 30.0001C39.3122 29.9806 39.1595 29.991 39.0132 30.0305C38.8669 30.07 38.7297 30.138 38.6097 30.2305C38.4896 30.323 38.3889 30.4383 38.3134 30.5697C38.0747 31.0048 37.8819 31.4636 37.7382 31.9386C37.468 32.733 37.4964 33.5986 37.8183 34.3736C38.1401 35.1485 38.7332 35.7796 39.4867 36.1489C39.9685 36.3912 40.5004 36.5173 41.0397 36.517C41.353 36.5151 41.6606 36.6015 41.9271 36.7663C42.1936 36.931 42.4083 37.1676 42.5466 37.4488C42.8971 38.1443 43.4616 38.7088 44.1571 39.0593L45.6066 39.7955C45.4655 40.2556 45.2925 40.7053 45.0889 41.1414L41.7874 40.3131C41.4942 40.2422 41.1888 40.2385 40.894 40.3023C40.5992 40.366 40.3226 40.4956 40.0849 40.6812C39.8551 40.8627 39.6687 41.0932 39.5394 41.3559C39.41 41.6186 39.3409 41.9069 39.3372 42.1997V42.6138L38.1868 43.0164C38.074 42.5539 37.801 42.1463 37.4161 41.8661C37.1611 41.6839 36.8665 41.565 36.5565 41.519C36.2465 41.473 35.93 41.5013 35.6331 41.6015L34.6553 41.9236C33.4877 42.307 32.5171 43.1331 31.952 44.2243C31.4991 45.1366 31.4247 46.1908 31.7449 47.1577L31.9635 47.8134C28.868 47.2204 26.1245 45.4465 24.3136 42.8669L27.063 40.1176C27.5645 39.5908 27.841 38.8893 27.8337 38.162C27.8366 38.0378 27.8873 37.9195 27.9751 37.8317C28.0629 37.7439 28.1812 37.6933 28.3054 37.6903H29.6628C30.398 37.6903 31.1032 37.3983 31.6231 36.8783C32.143 36.3584 32.4351 35.6533 32.4351 34.918V34.0898C32.4368 33.5757 32.2943 33.0715 32.0239 32.6343C31.7535 32.1971 31.3659 31.8445 30.9051 31.6165C30.6724 31.5034 30.4764 31.3267 30.34 31.1068C30.2036 30.8869 30.1323 30.6329 30.1344 30.3741V30.0865C30.1367 29.404 29.9698 28.7316 29.6486 28.1293C29.3274 27.5271 28.8619 27.0138 28.2938 26.6355L27.3391 25.9913C28.8569 24.9519 30.5925 24.2736 32.413 24.0084C34.2334 23.7432 36.0904 23.8981 37.8417 24.4613C38.1331 24.5529 38.4489 24.5249 38.7196 24.3836C38.9904 24.2423 39.1939 23.9992 39.2854 23.7079C39.3769 23.4165 39.349 23.1007 39.2077 22.83C39.0664 22.5592 38.8233 22.3557 38.5319 22.2642C36.5986 21.6787 34.5635 21.5075 32.5595 21.7618C30.5555 22.016 28.6276 22.69 26.9017 23.7397C25.1758 24.7894 23.6906 26.1913 22.5431 27.8538C21.3956 29.5163 20.6116 31.4021 20.2422 33.3882C19.8729 35.3742 19.9264 37.4157 20.3994 39.3797C20.8724 41.3436 21.7543 43.1857 22.9873 44.7857C24.2204 46.3858 25.7771 47.7078 27.5556 48.6656C29.3342 49.6234 31.2948 50.1953 33.3094 50.3442C33.4011 50.3552 33.4938 50.3552 33.5854 50.3442H33.7235H34.1606C37.8792 50.3557 41.457 48.9228 44.1396 46.3476C46.8221 43.7723 48.3998 40.256 48.54 36.54C48.54 36.2349 48.4188 35.9423 48.203 35.7266C47.9873 35.5108 47.6947 35.3896 47.3896 35.3896ZM25.533 27.5558L27.04 28.5566C27.2857 28.7289 27.4862 28.9579 27.6244 29.2243C27.7625 29.4907 27.8344 29.7865 27.8337 30.0865V30.3741C27.8316 31.058 28.0213 31.7288 28.3812 32.3103C28.7411 32.8919 29.2568 33.3609 29.8698 33.6641C29.9486 33.7041 30.015 33.7649 30.0616 33.84C30.1083 33.915 30.1334 34.0014 30.1344 34.0898V34.918C30.1315 35.0422 30.0809 35.1604 29.993 35.2483C29.9052 35.3361 29.7869 35.3867 29.6628 35.3896H28.3054C27.5701 35.3896 26.8649 35.6817 26.345 36.2016C25.8251 36.7216 25.533 37.4267 25.533 38.162C25.5339 38.2258 25.5222 38.2891 25.4985 38.3483C25.4748 38.4076 25.4396 38.4615 25.395 38.5071L23.0943 40.8078C22.1321 38.6077 21.8501 36.17 22.2847 33.8084C22.7193 31.4468 23.8506 29.2692 25.533 27.5558ZM34.4137 48.0435L33.873 46.4445C33.7536 46.0636 33.7866 45.6512 33.9651 45.2941C34.2536 44.7466 34.745 44.3338 35.334 44.1438L35.9322 43.9367C36.045 44.3992 36.318 44.8068 36.7029 45.0871C36.9579 45.2692 37.2525 45.3882 37.5625 45.4342C37.8725 45.4802 38.189 45.4519 38.4859 45.3516L40.2805 44.7535C40.6816 44.6228 41.0301 44.3666 41.2745 44.0228C41.5189 43.679 41.6463 43.2657 41.6379 42.8439V42.6138L43.858 43.166C42.7631 44.6486 41.3419 45.8596 39.7043 46.7053C38.0666 47.551 36.2565 48.0089 34.4137 48.0435Z" fill="#59B29F"/>
<path d="M51.6228 25.8187C51.3976 25.3309 51.0576 24.9049 50.6318 24.5772C50.206 24.2495 49.7072 24.0299 49.178 23.9372C48.6488 23.8445 48.105 23.8814 47.5931 24.0448C47.0813 24.2082 46.6167 24.4932 46.2391 24.8754C45.8615 24.4932 45.3969 24.2082 44.8851 24.0448C44.3733 23.8814 43.8295 23.8445 43.3003 23.9372C42.7711 24.0299 42.2722 24.2495 41.8464 24.5772C41.4207 24.9049 41.0806 25.3309 40.8555 25.8187C40.5567 26.4288 40.436 27.1107 40.5072 27.7862C40.5784 28.4618 40.8387 29.1036 41.2581 29.6379L43.9384 33.0889C44.2034 33.4503 44.5498 33.7442 44.9495 33.9468C45.3492 34.1493 45.791 34.2549 46.2391 34.2549C46.6872 34.2549 47.1291 34.1493 47.5288 33.9468C47.9285 33.7442 48.2749 33.4503 48.5398 33.0889L51.2431 29.6379C51.6589 29.1013 51.915 28.4584 51.9822 27.7829C52.0493 27.1074 51.9247 26.4267 51.6228 25.8187ZM49.4141 28.2345L46.7108 31.6855C46.6562 31.7592 46.5851 31.8192 46.5032 31.8605C46.4213 31.9018 46.3309 31.9233 46.2391 31.9233C46.1474 31.9233 46.0569 31.9018 45.975 31.8605C45.8931 31.8192 45.822 31.7592 45.7675 31.6855L43.0642 28.2345C42.9138 28.0339 42.8214 27.7958 42.7971 27.5463C42.7727 27.2968 42.8174 27.0454 42.9261 26.8195C43.0141 26.6264 43.157 26.4633 43.3371 26.3508C43.5171 26.2383 43.7262 26.1813 43.9384 26.1868C44.0793 26.188 44.2184 26.2182 44.3471 26.2756C44.4758 26.333 44.5912 26.4164 44.6862 26.5204L45.4569 27.3372C45.5645 27.4521 45.6945 27.5437 45.839 27.6064C45.9834 27.669 46.1392 27.7013 46.2966 27.7013C46.4541 27.7013 46.6099 27.669 46.7543 27.6064C46.8987 27.5437 47.0288 27.4521 47.1364 27.3372L47.9071 26.5204C48.0853 26.3241 48.3327 26.2045 48.5973 26.1868C48.7998 26.1923 48.9966 26.2545 49.1654 26.3664C49.3342 26.4782 49.4682 26.6353 49.5521 26.8195C49.6609 27.0454 49.7055 27.2968 49.6812 27.5463C49.6568 27.7958 49.5645 28.0339 49.4141 28.2345Z" fill="#59B29F"/>
</svg>
