<svg width="131" height="99" viewBox="0 0 131 99" fill="none" xmlns="http://www.w3.org/2000/svg">
<g clip-path="url(#clip0_593_7024)">
<path opacity="0.14" d="M100.163 98.9329L63.1305 77.1307C62.8259 76.9628 62.7243 76.5596 62.9274 76.2909L92.8171 26.2366C92.9864 25.9343 93.3926 25.8335 93.6634 26.035L130.695 47.8372C131 48.0052 131.102 48.4083 130.899 48.677L101.009 98.7313C100.84 99.0001 100.467 99.1009 100.163 98.9329Z" fill="#14733E"/>
<path d="M99.2148 96.9173L62.1828 75.1151C61.8781 74.9471 61.7766 74.544 61.9797 74.2753L91.8693 24.221C92.0386 23.9186 92.4448 23.8179 92.7156 24.0194L129.748 45.8216C130.052 45.9895 130.154 46.3927 129.951 46.6614L100.061 96.7157C99.8918 96.9844 99.5195 97.0852 99.2148 96.9173Z" fill="#68CC90"/>
<path opacity="0.14" d="M109.843 96.3126L67.4969 88.5525C67.1584 88.4853 66.9214 88.1494 66.9891 87.8135L77.6181 30.6038C77.6858 30.2678 78.0243 30.0327 78.3628 30.0999L120.709 37.86C121.048 37.9272 121.285 38.2631 121.217 38.599L110.588 95.8087C110.52 96.1447 110.182 96.3798 109.843 96.3126Z" fill="#14733E"/>
<path d="M76.8335 28.3858L65.9771 86.8262L109.551 94.7986L120.408 36.3582L76.8335 28.3858Z" fill="white"/>
<path opacity="0.39" d="M108.93 94.7003L66.5833 86.9402C66.2448 86.873 66.0078 86.5371 66.0755 86.2012L76.7045 28.9915C76.7722 28.6555 77.1107 28.4204 77.4492 28.4876L119.796 36.2477C120.134 36.3148 120.371 36.6508 120.303 36.9867L109.674 94.1964C109.607 94.5324 109.268 94.7675 108.93 94.7003Z" fill="#68CC90"/>
<path d="M113.804 43.2348C113.77 43.2348 113.77 43.2348 113.736 43.2348L103.141 41.2864C102.972 41.2528 102.837 41.0849 102.87 40.8833C102.904 40.7153 103.074 40.581 103.277 40.6146L113.872 42.563C114.041 42.5966 114.176 42.7645 114.143 42.9661C114.109 43.1341 113.973 43.2348 113.804 43.2348Z" fill="white"/>
<path d="M113.195 46.5942C113.161 46.5942 113.161 46.5942 113.127 46.5942L102.532 44.6458C102.363 44.6122 102.227 44.4442 102.261 44.2427C102.295 44.0747 102.464 43.9403 102.667 43.9739L113.262 45.9224C113.432 45.9559 113.567 46.1239 113.533 46.3255C113.499 46.4934 113.364 46.5942 113.195 46.5942Z" fill="white"/>
<path d="M112.518 50.2558C112.484 50.2558 112.484 50.2558 112.45 50.2558L101.855 48.3074C101.686 48.2738 101.55 48.1059 101.584 47.9043C101.618 47.7363 101.787 47.602 101.991 47.6356L112.586 49.584C112.755 49.6176 112.89 49.7855 112.856 49.9871C112.823 50.1551 112.687 50.2558 112.518 50.2558Z" fill="white"/>
<path opacity="0.14" d="M96.1003 53.3799L77.9228 50.0541C77.5504 49.987 77.3135 49.651 77.3812 49.2815L80.9693 29.8981C81.037 29.5285 81.3755 29.2934 81.7478 29.3606L99.9253 32.6863C100.298 32.7535 100.535 33.0894 100.467 33.459L96.8788 52.8424C96.845 53.1783 96.4726 53.4471 96.1003 53.3799Z" fill="#14733E"/>
<path d="M95.457 52.2379L78.1596 49.0801C77.7872 49.0129 77.5503 48.677 77.618 48.3075L81.0368 29.9654C81.1045 29.5959 81.443 29.3608 81.8154 29.4279L99.1128 32.5857C99.4852 32.6529 99.7221 32.9889 99.6544 33.3584L96.2356 51.7004C96.1679 52.0699 95.8294 52.3051 95.457 52.2379Z" fill="#42D687"/>
<path opacity="0.07" d="M99.316 35.0715L80.6646 31.6449L81.0031 29.8981C81.0708 29.5285 81.4093 29.2934 81.7816 29.3606L99.1467 32.5519C99.4852 32.6191 99.7222 32.9551 99.6545 33.291L99.316 35.0715Z" fill="#E6FAEF"/>
<path d="M85.8777 40.7826C85.7423 40.7826 85.6069 40.7826 85.4715 40.749L85.2007 40.7154C83.8467 40.4802 82.9328 39.1701 83.1697 37.7928L83.8129 34.299C83.8806 34.0303 84.1175 33.8287 84.3883 33.8959C84.6591 33.9295 84.8622 34.1983 84.7945 34.467L84.1514 37.9607C84.016 38.767 84.5576 39.5732 85.37 39.7076L85.6408 39.7412C86.2839 39.8756 86.8932 39.4388 86.9948 38.8006L88.6534 29.9319C88.7888 29.2936 88.3488 28.6553 87.6718 28.521L87.2317 28.4538C86.5209 28.3194 85.8439 28.7897 85.7423 29.4952L85.7085 29.7303C85.6408 29.9991 85.4038 30.2006 85.133 30.1334C84.8622 30.0999 84.6591 29.8311 84.7268 29.5624L84.7607 29.3272C84.9976 28.0842 86.1824 27.278 87.4348 27.4796L87.8749 27.5467C89.0935 27.7819 89.8721 28.9241 89.669 30.1334L88.0103 39.0021C87.841 40.0771 86.9271 40.7826 85.8777 40.7826Z" fill="#14733E"/>
<path d="M87.6717 33.3586C87.6379 33.3586 87.6379 33.3586 87.6717 33.3586L80.8678 32.1157C80.7663 32.1157 80.6986 32.0149 80.7324 31.9141C80.7663 31.8133 80.834 31.7461 80.9355 31.7797L87.7056 33.0227C87.8071 33.0227 87.8748 33.1235 87.841 33.2243C87.8071 33.2914 87.7394 33.3586 87.6717 33.3586Z" fill="white"/>
<path d="M108.354 68.0602C108.32 68.0602 108.32 68.0602 108.286 68.0602L75.8917 62.1478C75.7225 62.1142 75.5871 61.9462 75.6209 61.7446C75.6548 61.5767 75.824 61.4423 76.0271 61.4759L108.422 67.3883C108.591 67.4219 108.726 67.5899 108.693 67.7915C108.659 67.9594 108.523 68.0602 108.354 68.0602Z" fill="white"/>
<path d="M106.019 80.5236C105.985 80.5236 105.985 80.5236 105.951 80.5236L73.5563 74.6111C73.387 74.5775 73.2516 74.4096 73.2855 74.208C73.3193 74.04 73.4886 73.9057 73.6917 73.9393L106.086 79.8517C106.256 79.8853 106.391 80.0533 106.357 80.2548C106.323 80.4228 106.188 80.5236 106.019 80.5236Z" fill="white"/>
<path d="M90.1088 71.1845C90.075 71.1845 90.075 71.1845 90.0411 71.1845L74.7409 68.3963C74.5716 68.3627 74.4362 68.1947 74.4701 67.9932C74.5039 67.8252 74.6732 67.6908 74.8763 67.7244L90.1765 70.5127C90.3458 70.5463 90.4812 70.7142 90.4473 70.9158C90.4135 71.0502 90.2781 71.1845 90.1088 71.1845Z" fill="white"/>
<path d="M92.2079 59.7964C92.1741 59.7964 92.1741 59.7964 92.1402 59.7964L76.84 57.0081C76.6707 56.9745 76.5353 56.8065 76.5692 56.605C76.603 56.437 76.7723 56.3026 76.9754 56.3362L92.2756 59.1245C92.4449 59.1581 92.5803 59.3261 92.5464 59.5276C92.5126 59.6956 92.3772 59.7964 92.2079 59.7964Z" fill="white"/>
<path d="M107.203 74.2416C107.169 74.2416 107.169 74.2416 107.135 74.2416L92.546 71.5877C92.3768 71.5541 92.2414 71.3861 92.2752 71.1846C92.3091 71.0166 92.4783 70.8822 92.6814 70.9158L107.271 73.5697C107.44 73.6033 107.575 73.7713 107.542 73.9728C107.508 74.1408 107.372 74.2416 107.203 74.2416Z" fill="white"/>
<path d="M103.785 8.2304H85.7762C85.1669 8.2304 84.6592 7.7265 84.6592 7.12182V1.10859C84.6592 0.503902 85.1669 0 85.7762 0H103.785C104.394 0 104.902 0.503902 104.902 1.10859V7.08823C104.902 7.7265 104.394 8.2304 103.785 8.2304Z" fill="#42D687"/>
<path d="M117.324 17.1663H92.14C91.5307 17.1663 91.0229 16.6624 91.0229 16.0577V7.15546C91.0229 6.55078 91.5307 6.04688 92.14 6.04688H117.324C117.934 6.04688 118.442 6.55078 118.442 7.15546V16.0577C118.442 16.6624 117.968 17.1663 117.324 17.1663Z" fill="#68CC90"/>
<path d="M97.7254 14.8149H125.618C126.464 14.8149 127.141 15.4868 127.141 16.3266V24.7922C127.141 25.632 126.464 26.3039 125.618 26.3039H97.7254C96.8792 26.3039 96.2021 25.632 96.2021 24.7922V16.3266C96.2021 15.4868 96.8792 14.8149 97.7254 14.8149Z" fill="white"/>
<path opacity="0.74" d="M97.7254 14.8149H125.618C126.464 14.8149 127.141 15.4868 127.141 16.3266V24.7922C127.141 25.632 126.464 26.3039 125.618 26.3039H97.7254C96.8792 26.3039 96.2021 25.632 96.2021 24.7922V16.3266C96.2021 15.4868 96.8792 14.8149 97.7254 14.8149Z" fill="#4C946D"/>
<path d="M117.325 21.937C116.58 21.937 115.971 21.3323 115.971 20.5933C115.971 19.8542 116.58 19.2495 117.325 19.2495C118.069 19.2495 118.679 19.8542 118.679 20.5933C118.679 21.3323 118.069 21.937 117.325 21.937ZM117.325 19.5854C116.783 19.5854 116.309 20.0222 116.309 20.5933C116.309 21.1307 116.749 21.6011 117.325 21.6011C117.866 21.6011 118.34 21.1643 118.34 20.5933C118.34 20.0558 117.866 19.5854 117.325 19.5854Z" fill="white"/>
<path d="M111.773 21.937C111.029 21.937 110.419 21.3323 110.419 20.5933C110.419 19.8542 111.029 19.2495 111.773 19.2495C112.518 19.2495 113.127 19.8542 113.127 20.5933C113.127 21.3323 112.518 21.937 111.773 21.937ZM111.773 19.5854C111.232 19.5854 110.758 20.0222 110.758 20.5933C110.758 21.1307 111.198 21.6011 111.773 21.6011C112.315 21.6011 112.789 21.1643 112.789 20.5933C112.789 20.0558 112.315 19.5854 111.773 19.5854Z" fill="white"/>
<path d="M106.594 21.937C105.85 21.937 105.24 21.3323 105.24 20.5933C105.24 19.8542 105.85 19.2495 106.594 19.2495C107.339 19.2495 107.948 19.8542 107.948 20.5933C107.948 21.3323 107.339 21.937 106.594 21.937ZM106.594 19.5854C106.053 19.5854 105.579 20.0222 105.579 20.5933C105.579 21.1307 106.019 21.6011 106.594 21.6011C107.136 21.6011 107.61 21.1643 107.61 20.5933C107.61 20.0558 107.17 19.5854 106.594 19.5854Z" fill="white"/>
<path d="M29.89 0.806152H73.1167C73.9968 0.806152 74.7076 1.51162 74.7076 2.38505V65.5408C74.7076 68.5306 72.2704 70.9493 69.2578 70.9493H39.2665C32.8689 70.9493 27.6898 65.8095 27.6898 59.4604V3.02332C27.6559 1.81396 28.6714 0.806152 29.89 0.806152Z" fill="white"/>
<path opacity="0.39" d="M28.1974 0.806152H73.8273C74.3012 0.806152 74.6736 1.17568 74.6736 1.64599V65.776C74.6736 68.6314 72.3379 70.9158 69.4945 70.9158H38.217C32.3948 70.9158 27.6558 66.2127 27.6558 60.4346V1.34365C27.6558 1.04131 27.8927 0.806152 28.1974 0.806152Z" fill="#4C946D"/>
<path opacity="0.39" d="M32.1917 0.806152H73.9966C74.3689 0.806152 74.6736 1.10849 74.6736 1.47802V65.9775C74.6736 68.7322 72.4395 70.9493 69.6638 70.9493H42.2113C36.4907 70.9493 31.8193 66.347 31.8193 60.6362V1.17568C31.8193 0.97412 31.9886 0.806152 32.1917 0.806152Z" fill="#14733E"/>
<path d="M38.3862 70.9158H76.163C80.4958 70.9158 84.0501 67.4221 84.0501 63.0886V60.1323H45.8333V63.0886C45.8333 67.2877 42.5498 70.6807 38.3862 70.9158Z" fill="#39895D"/>
<g opacity="0.28">
<path opacity="0.28" d="M43.396 70.9158H77.0092C80.8681 70.9158 84.0162 67.4221 84.0162 63.0886V60.1323H50.0306V63.0886C50.0306 67.2877 47.0857 70.6807 43.396 70.9158Z" fill="#14733E"/>
</g>
<path d="M67.5312 52.0698H40.3834C40.1803 52.0698 40.0449 51.9354 40.0449 51.7339C40.0449 51.5323 40.1803 51.3979 40.3834 51.3979H67.5312C67.7343 51.3979 67.8697 51.5323 67.8697 51.7339C67.8697 51.9019 67.7343 52.0698 67.5312 52.0698Z" fill="white"/>
<path d="M68.1066 40.7153H39.8756C39.6725 40.7153 39.5371 40.581 39.5371 40.3794C39.5371 40.1778 39.6725 40.0435 39.8756 40.0435H68.1066C68.3097 40.0435 68.4451 40.1778 68.4451 40.3794C68.4451 40.5474 68.3097 40.7153 68.1066 40.7153Z" fill="white"/>
<path d="M53.9574 46.3926H39.5372C39.3341 46.3926 39.1987 46.2582 39.1987 46.0566C39.1987 45.8551 39.3341 45.7207 39.5372 45.7207H53.9574C54.1605 45.7207 54.2959 45.8551 54.2959 46.0566C54.2959 46.2246 54.1605 46.3926 53.9574 46.3926Z" fill="white"/>
<path d="M52.874 46.3926H40.6202C40.4171 46.3926 40.2817 46.2582 40.2817 46.0566C40.2817 45.8551 40.4171 45.7207 40.6202 45.7207H52.874C53.0771 45.7207 53.2125 45.8551 53.2125 46.0566C53.2125 46.2246 53.0432 46.3926 52.874 46.3926Z" fill="white"/>
<path d="M58.6625 28.5884H40.0787C39.8756 28.5884 39.7402 28.454 39.7402 28.2524C39.7402 28.0509 39.8756 27.9165 40.0787 27.9165H58.6625C58.8656 27.9165 59.001 28.0509 59.001 28.2524C59.001 28.4204 58.8317 28.5884 58.6625 28.5884Z" fill="white"/>
<path d="M67.2605 28.5884H61.6075C61.4044 28.5884 61.269 28.454 61.269 28.2524C61.269 28.0509 61.4044 27.9165 61.6075 27.9165H67.2605C67.4636 27.9165 67.599 28.0509 67.599 28.2524C67.599 28.4204 67.4636 28.5884 67.2605 28.5884Z" fill="white"/>
<path d="M68.1066 34.2656H47.9996C47.7965 34.2656 47.6611 34.1313 47.6611 33.9297C47.6611 33.7281 47.7965 33.5938 47.9996 33.5938H68.1066C68.3097 33.5938 68.4451 33.7281 68.4451 33.9297C68.4451 34.1313 68.3097 34.2656 68.1066 34.2656Z" fill="white"/>
<path d="M46.0025 34.2656H39.8756C39.6725 34.2656 39.5371 34.1313 39.5371 33.9297C39.5371 33.7281 39.6725 33.5938 39.8756 33.5938H46.0025C46.2056 33.5938 46.341 33.7281 46.341 33.9297C46.341 34.1313 46.1717 34.2656 46.0025 34.2656Z" fill="white"/>
<path d="M67.5312 23.7842H40.3834C40.1803 23.7842 40.0449 23.6498 40.0449 23.4482C40.0449 23.2467 40.1803 23.1123 40.3834 23.1123H67.5312C67.7343 23.1123 67.8697 23.2467 67.8697 23.4482C67.8697 23.6162 67.7343 23.7842 67.5312 23.7842Z" fill="white"/>
<path d="M67.5312 12.4297H40.3834C40.1803 12.4297 40.0449 12.2953 40.0449 12.0937C40.0449 11.8922 40.1803 11.7578 40.3834 11.7578H67.5312C67.7343 11.7578 67.8697 11.8922 67.8697 12.0937C67.8697 12.2953 67.7343 12.4297 67.5312 12.4297Z" fill="white"/>
<path d="M50.3355 18.1069H40.045C39.8419 18.1069 39.7065 17.9726 39.7065 17.771C39.7065 17.5694 39.8419 17.4351 40.045 17.4351H50.3355C50.5386 17.4351 50.674 17.5694 50.674 17.771C50.674 17.939 50.5386 18.1069 50.3355 18.1069Z" fill="white"/>
<path d="M67.3281 18.1069H55.0743C54.8712 18.1069 54.7358 17.9726 54.7358 17.771C54.7358 17.5694 54.8712 17.4351 55.0743 17.4351H67.3281C67.5312 17.4351 67.6666 17.5694 67.6666 17.771C67.6666 17.939 67.5312 18.1069 67.3281 18.1069Z" fill="white"/>
<path opacity="0.21" d="M103.842 57.3707C112.209 49.0664 112.209 35.6025 103.842 27.2982C95.4738 18.9939 81.907 18.9939 73.5393 27.2982C65.1716 35.6025 65.1716 49.0664 73.5393 57.3707C81.907 65.675 95.4738 65.675 103.842 57.3707Z" fill="white"/>
<path opacity="0.76" d="M71.8975 43.8398C71.1528 43.8398 70.5435 43.2351 70.5435 42.496C70.5435 31.7797 79.3445 23.0454 90.1427 23.0454C90.8874 23.0454 91.4967 23.6501 91.4967 24.3891C91.4967 25.1282 90.8874 25.7329 90.1427 25.7329C80.8339 25.7329 73.2515 33.2578 73.2515 42.496C73.2515 43.2687 72.6422 43.8398 71.8975 43.8398Z" fill="white"/>
<path opacity="0.58" d="M88.6871 64.2642C76.5011 64.2642 66.583 54.4213 66.583 42.3277C66.583 30.234 76.5011 20.3911 88.6871 20.3911C100.873 20.3911 110.791 30.234 110.791 42.3277C110.791 54.4213 100.873 64.2642 88.6871 64.2642ZM88.6871 21.7349C77.2458 21.7349 67.937 30.9731 67.937 42.3277C67.937 53.6823 77.2458 62.9205 88.6871 62.9205C100.128 62.9205 109.437 53.6823 109.437 42.3277C109.437 30.9731 100.128 21.7349 88.6871 21.7349Z" fill="#14733E"/>
<path d="M108.388 57.5459C108.422 57.5123 108.456 57.4787 108.489 57.4787C111.739 53.2795 113.702 48.0389 113.702 42.328C113.702 28.6219 102.498 17.5024 88.6871 17.5024C74.8763 17.5024 63.6719 28.6219 63.6719 42.328C63.6719 56.0342 74.8763 67.1536 88.6871 67.1536C94.4078 67.1536 99.6884 65.2388 103.886 62.0138L106.763 59.1584L108.388 57.5459ZM88.6871 63.5927C76.8396 63.5927 67.26 54.0858 67.26 42.328C67.26 30.5703 76.8396 21.0634 88.6871 21.0634C100.535 21.0634 110.114 30.5703 110.114 42.328C110.114 54.0522 100.535 63.5927 88.6871 63.5927Z" fill="#14733E"/>
<path d="M88.6872 67.4895C74.7071 67.4895 63.3335 56.2021 63.3335 42.328C63.3335 28.4539 74.7071 17.1665 88.6872 17.1665C102.667 17.1665 114.041 28.4539 114.041 42.328C114.041 47.9381 112.213 53.2459 108.76 57.6803L108.693 57.7474C108.659 57.781 108.625 57.781 108.625 57.8146L104.123 62.2826C99.6547 65.6755 94.3064 67.4895 88.6872 67.4895ZM88.6872 17.8384C75.0795 17.8384 64.0105 28.8234 64.0105 42.328C64.0105 55.8326 75.0795 66.8177 88.6872 66.8177C94.1371 66.8177 99.35 65.0708 103.683 61.7787L108.151 57.3443C108.185 57.3107 108.219 57.2771 108.253 57.2435C111.604 52.9436 113.364 47.7702 113.364 42.328C113.364 28.8234 102.295 17.8384 88.6872 17.8384ZM88.6872 63.9286C76.6704 63.9286 66.9216 54.2537 66.9216 42.328C66.9216 30.4023 76.6704 20.7274 88.6872 20.7274C100.704 20.7274 110.453 30.4023 110.453 42.328C110.453 54.2537 100.704 63.9286 88.6872 63.9286ZM88.6872 21.3993C77.0766 21.3993 67.5986 30.7719 67.5986 42.328C67.5986 53.8506 77.0428 63.2568 88.6872 63.2568C100.298 63.2568 109.776 53.8842 109.776 42.328C109.776 30.7719 100.332 21.3993 88.6872 21.3993Z" fill="#14733E"/>
<path d="M107.778 61.4429L106.797 60.4687C106.424 60.0992 106.424 59.4945 106.797 59.125L103.92 61.9804L103.886 62.014C103.513 62.3836 103.513 62.9883 103.886 63.3578L105.07 64.5336C105.443 63.9289 106.56 62.6523 107.778 61.4429Z" fill="#348659"/>
<path d="M106.797 59.1249C106.424 59.4944 106.424 60.0991 106.797 60.4687L107.778 61.4429C108.963 60.2671 110.182 59.1585 110.859 58.6882L109.742 57.5796C109.403 57.2437 108.862 57.2101 108.489 57.5124C108.455 57.546 108.422 57.5796 108.388 57.5796L106.797 59.1249Z" fill="#348659"/>
<path opacity="0.43" d="M106.797 59.1249C106.424 59.4944 106.424 60.0991 106.797 60.4687L107.778 61.4429C108.963 60.2671 110.182 59.1585 110.859 58.6882L109.742 57.5796C109.403 57.2437 108.862 57.2101 108.489 57.5124C108.455 57.546 108.422 57.5796 108.388 57.5796L106.797 59.1249Z" fill="#14733E"/>
<path d="M129.003 76.1229L111.401 58.4527C111.333 58.3855 111.13 58.4863 110.859 58.6542C110.182 59.1246 108.93 60.2331 107.779 61.4089C106.56 62.6183 105.443 63.8948 105.037 64.5331C104.901 64.7347 104.868 64.9026 104.901 64.9362L122.503 82.6064C124.298 84.3868 127.209 84.3868 128.969 82.6064C130.797 80.8259 130.797 77.9369 129.003 76.1229Z" fill="#42D687"/>
<path opacity="0.14" d="M129.003 76.1233L111.401 58.4531C111.164 58.218 109.167 59.9984 107.44 61.7453C105.985 63.257 127.209 84.3873 129.003 82.6068C130.797 80.8264 130.797 77.9374 129.003 76.1233Z" fill="#14733E"/>
<path d="M64.0106 54.2199H6.12687C2.74186 54.2199 0 51.4989 0 48.1395C0 44.7802 2.74186 42.0591 6.12687 42.0591H64.0106C67.3956 42.0591 70.1375 44.7802 70.1375 48.1395C70.1036 51.4989 67.3618 54.2199 64.0106 54.2199Z" fill="white"/>
<path d="M64.0106 54.2199H54.6003L54.5664 42.0591H64.0106C67.3956 42.0591 70.1375 44.7802 70.1375 48.1395C70.1036 51.4989 67.3618 54.2199 64.0106 54.2199Z" fill="#42D687"/>
<path d="M61.6073 50.256C60.1179 50.256 58.9331 49.0802 58.9331 47.6021C58.9331 46.124 60.1179 44.9482 61.6073 44.9482C63.0967 44.9482 64.2814 46.124 64.2814 47.6021C64.2814 48.3076 64.0106 48.9795 63.5029 49.4834C62.9951 49.9873 62.3181 50.256 61.6073 50.256ZM61.6073 45.6201C60.4902 45.6201 59.6101 46.5271 59.6101 47.6021C59.6101 48.7107 60.5241 49.5841 61.6073 49.5841C62.1489 49.5841 62.6566 49.3826 63.029 49.013C63.4013 48.6435 63.6044 48.1396 63.6044 47.6021C63.6044 46.4935 62.7243 45.6201 61.6073 45.6201Z" fill="white"/>
<path d="M65.3646 51.7004C65.2631 51.7004 65.1954 51.6668 65.1277 51.5996L62.9951 49.4832C62.8597 49.3488 62.8597 49.1473 62.9951 49.0129C63.1305 48.8785 63.3336 48.8785 63.469 49.0129L65.6016 51.1293C65.737 51.2637 65.737 51.4652 65.6016 51.5996C65.5677 51.6668 65.4662 51.7004 65.3646 51.7004Z" fill="white"/>
</g>
<defs>
<clipPath id="clip0_593_7024">
<rect width="131" height="99" fill="white"/>
</clipPath>
</defs>
</svg>
