<svg width="52" height="52" viewBox="0 0 52 52" fill="none" xmlns="http://www.w3.org/2000/svg">
<rect width="52" height="52" rx="16" fill="#4CB596"/>
<path d="M18 18H24V24H18V18ZM34 18V24H28V18H34ZM28 29H30V27H28V25H30V27H32V25H34V27H32V29H34V32H32V34H30V32H27V34H25V30H28V29ZM30 29V32H32V29H30ZM18 34V28H24V34H18ZM20 20V22H22V20H20ZM30 20V22H32V20H30ZM20 30V32H22V30H20ZM18 25H20V27H18V25ZM23 25H27V29H25V27H23V25ZM25 20H27V24H25V20ZM16 16V20H14V16C14 15.4696 14.2107 14.9609 14.5858 14.5858C14.9609 14.2107 15.4696 14 16 14H20V16H16ZM36 14C36.5304 14 37.0391 14.2107 37.4142 14.5858C37.7893 14.9609 38 15.4696 38 16V20H36V16H32V14H36ZM16 32V36H20V38H16C15.4696 38 14.9609 37.7893 14.5858 37.4142C14.2107 37.0391 14 36.5304 14 36V32H16ZM36 36V32H38V36C38 36.5304 37.7893 37.0391 37.4142 37.4142C37.0391 37.7893 36.5304 38 36 38H32V36H36Z" fill="white"/>
</svg>
