<svg width="72" height="72" viewBox="0 0 72 72" fill="none" xmlns="http://www.w3.org/2000/svg">
<rect width="72" height="72" rx="36" fill="#333333" fill-opacity="0.5"/>
<path d="M35.9994 22C34.5819 22 33.3132 22.91 32.4644 24.345L29.2444 29.77L31.2044 30.89L34.3894 25.5C34.9626 24.5288 35.5401 24.24 35.9994 24.24C36.4588 24.24 37.0363 24.5288 37.6094 25.5L41.1094 31.415L39.3244 32.5L44.9244 35.86V29.14L43.0344 30.26L39.5344 24.345C38.6857 22.91 37.4169 22 35.9994 22ZM29.2094 32.045L23.6094 35.405L25.3244 36.42L22.2094 41.705C21.3651 43.1356 21.1769 44.7194 21.8944 45.94C22.6119 47.1606 24.0644 47.76 25.7444 47.76H32.6394V45.52H25.7444C24.5851 45.52 24.0338 45.1525 23.8194 44.785C23.6051 44.4175 23.5613 43.7963 24.1344 42.825L27.2144 37.575L29.2094 38.765V32.045ZM47.0594 37.19L45.1694 38.345L47.8644 42.825C48.4419 43.8006 48.3938 44.4175 48.1794 44.785C47.9651 45.1525 47.4138 45.52 46.2544 45.52H40.4794V43.28L34.8794 46.64L40.4794 50V47.76H46.2544C47.9344 47.76 49.3869 47.1606 50.1044 45.94C50.8219 44.7194 50.6382 43.14 49.7894 41.705V41.67L47.0594 37.19Z" fill="#59B29F"/>
</svg>
