<svg width="25" height="24" viewBox="0 0 25 24" fill="none" xmlns="http://www.w3.org/2000/svg">
<g clip-path="url(#clip0_852_5479)">
<path d="M12.7728 23.9342C19.4884 23.9342 24.9324 18.591 24.9324 11.9998C24.9324 5.40863 19.4884 0.0654297 12.7728 0.0654297C6.0573 0.0654297 0.613281 5.40863 0.613281 11.9998C0.613281 18.591 6.0573 23.9342 12.7728 23.9342Z" fill="#1FA37C"/>
<path d="M16.0059 13.878C15.7771 13.7468 15.4939 13.7486 15.2671 13.8822L14.1118 14.5577C13.8548 14.7091 13.5296 14.6903 13.2927 14.5094C12.8829 14.1949 12.2229 13.6661 11.6483 13.1022C11.0738 12.5383 10.535 11.8914 10.2155 11.4883C10.0312 11.2568 10.0111 10.9371 10.1659 10.6853L10.8541 9.55097C10.9907 9.32738 10.9916 9.04847 10.8569 8.82347L9.16196 5.98144C8.99863 5.70675 8.67004 5.57034 8.35531 5.64722C8.04917 5.72034 7.65086 5.89847 7.23344 6.30863C5.92674 7.59113 5.23327 9.75488 10.1472 14.5774C15.0607 19.3999 17.2644 18.7197 18.572 17.4363C18.9899 17.0257 19.1714 16.6347 19.2468 16.3328C19.3242 16.0253 19.1862 15.7047 18.9078 15.5444C18.21 15.1436 16.7041 14.2788 16.0064 13.8775L16.0059 13.878Z" fill="#10523E"/>
</g>
<defs>
<clipPath id="clip0_852_5479">
<rect width="24.4528" height="24" fill="white" transform="translate(0.546875)"/>
</clipPath>
</defs>
</svg>
