<svg width="24" height="24" viewBox="0 0 24 24" fill="none" xmlns="http://www.w3.org/2000/svg">
<path d="M11.9998 23.9342C18.591 23.9342 23.9342 18.591 23.9342 11.9998C23.9342 5.40863 18.591 0.0654297 11.9998 0.0654297C5.40863 0.0654297 0.0654297 5.40863 0.0654297 11.9998C0.0654297 18.591 5.40863 23.9342 11.9998 23.9342Z" fill="#1FA37C"/>
<path d="M15.5943 5.4585H8.40648C6.77852 5.4585 5.45898 6.77803 5.45898 8.406V15.5943C5.45898 17.2222 6.77852 18.5418 8.40648 18.5418H12.0004V13.363H10.4366V11.4552H12.0004V10.0447C12.0004 8.3549 13.1723 7.43475 14.6816 7.43475C15.404 7.43475 16.1807 7.48912 16.3612 7.51303V9.27787H15.1584C14.3371 9.27787 14.1805 9.66646 14.1805 10.2388V11.4552H16.1362L15.8807 13.363H14.1805V18.5418H15.5938C17.2218 18.5418 18.5413 17.2222 18.5413 15.5943V8.406C18.5413 6.77803 17.2218 5.4585 15.5938 5.4585H15.5943Z" fill="#10523E"/>
</svg>
