<svg width="14" height="20" viewBox="0 0 14 20" fill="none" xmlns="http://www.w3.org/2000/svg">
<path d="M3.9775 8.76125C4.05179 8.84098 4.14138 8.90492 4.24093 8.94928C4.34047 8.99363 4.44793 9.01748 4.55689 9.0194C4.66585 9.02133 4.77409 9.00128 4.87513 8.96047C4.97618 8.91965 5.06797 8.8589 5.14503 8.78185C5.22209 8.70479 5.28284 8.613 5.32365 8.51195C5.36447 8.4109 5.38451 8.30267 5.38259 8.19371C5.38066 8.08475 5.35682 7.97729 5.31246 7.87774C5.26811 7.7782 5.20416 7.68861 5.12443 7.61432L3.26337 5.75326L12.666 5.75326C12.8813 5.75326 13.0877 5.66776 13.2399 5.51558C13.392 5.36339 13.4775 5.15698 13.4775 4.94175C13.4775 4.72653 13.392 4.52012 13.2399 4.36793C13.0877 4.21575 12.8813 4.13025 12.666 4.13025L3.26337 4.13025L5.12443 2.26919C5.20416 2.1949 5.26811 2.10531 5.31246 2.00576C5.35682 1.90622 5.38067 1.79876 5.38259 1.6898C5.38451 1.58084 5.36447 1.47261 5.32365 1.37156C5.28284 1.27051 5.22209 1.17872 5.14503 1.10166C5.06797 1.0246 4.97618 0.963855 4.87513 0.923041C4.77409 0.882226 4.66585 0.862182 4.55689 0.864104C4.44793 0.866027 4.34047 0.889877 4.24093 0.93423C4.14138 0.978583 4.05179 1.04253 3.9775 1.12226L0.731472 4.36829C0.579504 4.52045 0.494145 4.7267 0.494145 4.94175C0.494145 5.1568 0.579504 5.36306 0.731472 5.51522L3.9775 8.76125Z" fill="white"/>
<path d="M8.84725 17.7296C8.76752 17.8038 8.70358 17.8934 8.65922 17.993C8.61487 18.0925 8.59102 18.2 8.5891 18.3089C8.58717 18.4179 8.60722 18.5261 8.64803 18.6272C8.68885 18.7282 8.7496 18.82 8.82665 18.8971C8.90371 18.9741 8.9955 19.0349 9.09655 19.0757C9.1976 19.1165 9.30583 19.1366 9.41479 19.1346C9.52375 19.1327 9.63121 19.1089 9.73076 19.0645C9.8303 19.0202 9.91989 18.9562 9.99418 18.8765L13.2402 15.6305C13.3922 15.4783 13.4775 15.272 13.4775 15.057C13.4775 14.8419 13.3922 14.6357 13.2402 14.4835L9.99418 11.2375C9.84035 11.0942 9.63688 11.0161 9.42665 11.0198C9.21641 11.0235 9.01582 11.1087 8.86714 11.2574C8.71846 11.4061 8.63329 11.6067 8.62958 11.8169C8.62587 12.0271 8.70391 12.2306 8.84726 12.3844L10.7083 14.2455L1.30565 14.2455C1.09043 14.2455 0.884016 14.331 0.73183 14.4832C0.579643 14.6354 0.494145 14.8418 0.494145 15.057C0.494145 15.2722 0.579643 15.4786 0.73183 15.6308C0.884016 15.783 1.09043 15.8685 1.30565 15.8685L10.7083 15.8685L8.84725 17.7296Z" fill="white"/>
</svg>
