<svg width="129" height="114" viewBox="0 0 129 114" fill="none" xmlns="http://www.w3.org/2000/svg">
<g clip-path="url(#clip0_592_6791)">
<path d="M29.1845 84.0167C29.1845 84.0167 7.38577 75.8688 2.72485 97.0249L7.31406 96.0957C7.31406 96.0957 1.90022 102.278 0 114C11.724 111.713 17.7474 106.173 17.7474 106.173L16.9586 110.784C38.0403 105.494 29.1845 84.0167 29.1845 84.0167Z" fill="url(#paint0_linear_592_6791)"/>
<path d="M29.1846 84.0165C29.1846 84.0165 15.5963 78.9419 12.6563 92.1287L15.5246 91.557C15.5246 91.557 12.1543 95.4165 10.9712 102.743C18.2853 101.313 22.0498 97.8466 22.0498 97.8466L21.5838 100.741C34.706 97.4178 29.1846 84.0165 29.1846 84.0165Z" fill="url(#paint1_linear_592_6791)"/>
<path d="M44.6013 82.9445L29.7222 68.2567L33.8094 64.147L48.6885 78.8347L44.6013 82.9445Z" fill="url(#paint2_linear_592_6791)"/>
<path d="M41.0163 44.6704C41.0163 44.6704 27.2128 43.6698 21.5122 49.3519C15.3812 55.4986 10.3259 63.0033 6.23866 73.7243C4.05162 79.4422 9.82399 73.5457 13.6603 70.0435C20.3648 63.9325 23.6634 64.0754 30.0452 65.5406C30.0094 65.5049 33.4513 58.5005 41.0163 44.6704Z" fill="url(#paint3_linear_592_6791)"/>
<path opacity="0.33" d="M41.0159 44.6704C41.0159 44.6704 27.2124 43.6698 21.5117 49.3519C15.3808 55.4986 10.3255 63.0033 6.23825 73.7243C5.84386 74.7964 5.70045 75.4754 5.77216 75.7971C5.77216 75.7971 11.6521 62.2171 18.1057 55.5701C24.5593 48.9231 28.8617 46.4215 41.0159 44.6704Z" fill="white"/>
<path d="M68.3003 71.5806C68.3003 71.5806 69.4476 85.3034 63.7828 90.9856C57.6519 97.1323 50.1585 102.207 39.4026 106.388C33.6661 108.604 39.5818 102.814 43.0237 98.9906C49.0829 92.2721 48.9395 88.9843 47.4337 82.6589C47.4337 82.6947 54.4609 79.2282 68.3003 71.5806Z" fill="url(#paint4_linear_592_6791)"/>
<path d="M111.79 19.7621C114.085 4.93142 111.145 1.42923 111.145 1.42923C111.145 1.42923 107.595 -1.46544 92.7163 0.96465C76.9768 3.50195 66.9737 13.1509 60.1616 19.8694C51.3417 28.5534 36.857 48.5302 29.9731 65.5051L38.7213 74.0462L47.3978 82.6944C64.4281 75.7258 84.3984 61.1095 93.039 52.2825C99.7436 45.4568 109.388 35.4505 111.79 19.7621Z" fill="url(#paint5_linear_592_6791)"/>
<path d="M32.2319 67.6849L38.7572 74.0818L47.4337 82.73C64.464 75.7614 84.4343 61.1451 93.0749 52.3181C99.7436 45.4924 109.388 35.4862 111.79 19.7978C114.085 4.96704 111.145 1.46484 111.145 1.46484" fill="url(#paint6_linear_592_6791)"/>
<path opacity="0.09" d="M31.2642 66.7202L46.1791 81.408" stroke="#1D262D" stroke-width="1.8919" stroke-miterlimit="10"/>
<path d="M30.0093 65.5052L38.7575 74.0463L47.434 82.6945C50.8759 81.3008 54.4253 79.5497 58.0107 77.6557L34.9929 54.9629C33.0927 58.5008 31.4076 62.0745 30.0093 65.5052Z" fill="url(#paint7_linear_592_6791)"/>
<path d="M53.3857 60.3589L47.4341 82.6943L45.749 81.5865L44.6017 82.9445L38.7935 77.2266L53.3857 60.3589Z" fill="url(#paint8_linear_592_6791)"/>
<path d="M79.8096 5.00293L107.847 32.6631" stroke="#1D262D" stroke-width="1.8919" stroke-miterlimit="10"/>
<path d="M111.181 1.42923C111.181 1.42923 107.632 -1.46544 92.7526 0.96465C87.9124 1.75086 83.6459 3.18032 79.8096 5.03863L107.847 32.6988C109.639 28.875 111.074 24.6223 111.827 19.7979C114.085 4.93142 111.181 1.42923 111.181 1.42923Z" fill="url(#paint9_linear_592_6791)"/>
<path d="M107.954 38.6312L74.1802 5.682L75.6143 4.2168L109.388 37.166L107.954 38.6312Z" fill="url(#paint10_linear_592_6791)"/>
<path d="M105.875 41.3116L72.1367 8.36235L73.0689 7.39746L106.843 40.3467L105.875 41.3116Z" fill="url(#paint11_linear_592_6791)"/>
<path opacity="0.09" d="M34.9927 54.9629L58.0105 77.6199" stroke="#1D262D" stroke-width="1.8919" stroke-miterlimit="10"/>
<path d="M53.2421 59.5372C53.2421 59.5372 51.9514 57.5717 39.5462 70.0081C27.141 82.4444 16.5643 94.3805 17.5323 95.3454C18.5362 96.3103 30.4036 85.6965 42.8447 73.2601C55.2499 60.788 53.2421 59.5372 53.2421 59.5372Z" fill="url(#paint12_linear_592_6791)"/>
<path opacity="0.33" d="M53.2422 59.5372C53.2422 59.5372 51.9514 57.5717 39.5462 70.0081C27.141 82.4444 16.5643 94.3805 17.5323 95.3454C17.5323 95.3454 21.0101 90.378 30.3319 80.4789C39.6538 70.5798 50.3381 59.7874 53.2422 59.5372Z" fill="white"/>
<path d="M71.671 56.6781C80.2053 56.6781 87.1238 49.7821 87.1238 41.2756C87.1238 32.769 80.2053 25.873 71.671 25.873C63.1367 25.873 56.2183 32.769 56.2183 41.2756C56.2183 49.7821 63.1367 56.6781 71.671 56.6781Z" fill="url(#paint13_linear_592_6791)"/>
<path d="M71.5744 56.1065C80.0493 56.0808 86.8987 49.212 86.8729 40.7646C86.8471 32.3173 79.9558 25.4902 71.4809 25.5159C63.006 25.5416 56.1567 32.4104 56.1825 40.8578C56.2083 49.3052 63.0995 56.1322 71.5744 56.1065Z" fill="#D9DADB"/>
<path d="M71.7426 56.1063C80.1185 56.1063 86.9085 49.3383 86.9085 40.9897C86.9085 32.641 80.1185 25.873 71.7426 25.873C63.3667 25.873 56.5767 32.641 56.5767 40.9897C56.5767 49.3383 63.3667 56.1063 71.7426 56.1063Z" fill="url(#paint14_linear_592_6791)"/>
<path d="M71.5263 52.6402C78.0805 52.602 83.3627 47.2751 83.3243 40.7422C83.286 34.2093 77.9416 28.9443 71.3874 28.9825C64.8332 29.0208 59.5511 34.3477 59.5895 40.8806C59.6278 47.4135 64.9721 52.6785 71.5263 52.6402Z" fill="#B2E1F7"/>
<path d="M71.5276 52.3895C77.8046 52.3895 82.8931 47.3175 82.8931 41.061C82.8931 34.8044 77.8046 29.7324 71.5276 29.7324C65.2506 29.7324 60.1621 34.8044 60.1621 41.061C60.1621 47.3175 65.2506 52.3895 71.5276 52.3895Z" fill="url(#paint15_linear_592_6791)"/>
<path d="M82.0322 32.0913L56.7915 43.1697L58.62 47.2437L83.8249 36.1653L82.0322 32.0913Z" fill="url(#paint16_linear_592_6791)"/>
<path d="M84.5417 38.3809L59.3369 49.495L60.2332 51.532L85.4381 40.4536L84.5417 38.3809Z" fill="url(#paint17_linear_592_6791)"/>
<path d="M61.8472 32.3052C61.9189 31.9478 61.7038 31.6262 61.3453 31.5547C60.9867 31.4832 60.6641 31.6977 60.5924 32.055C60.5206 32.4124 60.7358 32.734 61.0943 32.8055C61.4528 32.877 61.7755 32.6625 61.8472 32.3052Z" fill="#AEB1B3"/>
<path d="M59.5884 35.8433C59.6601 35.4859 59.445 35.1643 59.0865 35.0928C58.7279 35.0213 58.4053 35.2357 58.3336 35.5931C58.2619 35.9505 58.477 36.2721 58.8355 36.3436C59.194 36.4151 59.5167 36.2006 59.5884 35.8433Z" fill="#AEB1B3"/>
<path d="M64.3926 29.8755C64.4643 29.5181 64.2492 29.1965 63.8907 29.125C63.5321 29.0535 63.2095 29.268 63.1378 29.6253C63.0661 29.9827 63.2812 30.3043 63.6397 30.3758C63.9982 30.4473 64.3209 30.1971 64.3926 29.8755Z" fill="#AEB1B3"/>
<path d="M59.0148 43.4912C58.7997 43.2053 58.3694 43.1696 58.1184 43.4197C57.8316 43.6342 57.7958 44.063 58.0467 44.3131C58.2619 44.599 58.6921 44.6348 58.9431 44.3846C59.2299 44.1702 59.2658 43.7771 59.0148 43.4912Z" fill="#AEB1B3"/>
<path d="M60.4132 47.458C60.1981 47.1721 59.7679 47.1364 59.5169 47.3865C59.2301 47.6009 59.1942 48.0298 59.4452 48.2799C59.6603 48.5658 60.0905 48.6016 60.3415 48.3514C60.5925 48.137 60.6283 47.7439 60.4132 47.458Z" fill="#AEB1B3"/>
<path d="M58.7638 39.3457C58.5487 39.0598 58.1184 39.0241 57.8675 39.2742C57.5806 39.4886 57.5448 39.9175 57.7958 40.1676C58.0467 40.4178 58.4411 40.4893 58.6921 40.2391C58.9431 40.0247 58.9789 39.6316 58.7638 39.3457Z" fill="#AEB1B3"/>
<path d="M65.8269 52.6753C65.4684 52.6753 65.1815 52.9969 65.2174 53.3543C65.2174 53.7117 65.5401 53.9976 65.8986 53.9618C66.2571 53.9618 66.5439 53.6402 66.5081 53.2828C66.4722 52.9612 66.1854 52.6753 65.8269 52.6753Z" fill="#AEB1B3"/>
<path d="M69.8064 54.0332C69.4479 54.0332 69.161 54.3548 69.1969 54.7122C69.1969 55.0696 69.5196 55.3555 69.8781 55.3197C70.2366 55.3197 70.5235 54.9981 70.4876 54.6407C70.4518 54.3191 70.1649 54.0332 69.8064 54.0332Z" fill="#AEB1B3"/>
<path d="M62.385 50.3525C62.0265 50.3525 61.7396 50.6742 61.7755 51.0315C61.7755 51.3889 62.0982 51.6748 62.4567 51.6391C62.8152 51.6033 63.1021 51.3174 63.0662 50.9601C63.0303 50.6384 62.7435 50.3525 62.385 50.3525Z" fill="#AEB1B3"/>
<path d="M77.3717 52.9253C77.1565 53.2112 77.2282 53.6043 77.5151 53.8187C77.8019 54.0332 78.1963 53.9617 78.4114 53.6758C78.6265 53.3899 78.5548 52.9968 78.268 52.7824C77.9812 52.568 77.5868 52.6394 77.3717 52.9253Z" fill="#AEB1B3"/>
<path d="M80.67 50.6739C80.4549 50.9598 80.5266 51.3529 80.8134 51.5673C81.1002 51.7817 81.4946 51.7102 81.7098 51.4243C81.9249 51.1384 81.8532 50.7453 81.5663 50.5309C81.2795 50.3165 80.8851 50.388 80.67 50.6739Z" fill="#AEB1B3"/>
<path d="M73.4278 54.0332C73.2127 54.3191 73.2844 54.7122 73.5712 54.9267C73.858 55.1411 74.2524 55.0696 74.4675 54.7837C74.6827 54.4978 74.611 54.1047 74.3241 53.8903C74.0732 53.6759 73.6429 53.7474 73.4278 54.0332Z" fill="#AEB1B3"/>
<path d="M84.1479 44.2055C84.2196 44.5629 84.5781 44.7773 84.9367 44.6701C85.2952 44.5986 85.5103 44.2412 85.4028 43.8839C85.3311 43.5265 84.9725 43.3121 84.614 43.4193C84.2555 43.5265 84.0403 43.8481 84.1479 44.2055Z" fill="#AEB1B3"/>
<path d="M84.5781 40.3818C84.6498 40.7391 85.0083 40.9536 85.3668 40.8463C85.7254 40.7749 85.9405 40.4175 85.8329 40.0601C85.7612 39.7028 85.4027 39.4884 85.0442 39.5956C84.6856 39.667 84.4705 40.0244 84.5781 40.3818Z" fill="#AEB1B3"/>
<path d="M82.8212 48.0297C82.8929 48.3871 83.2515 48.6015 83.61 48.4943C83.9685 48.4228 84.1837 48.0655 84.0761 47.7081C84.0044 47.3507 83.6459 47.1363 83.2873 47.2435C82.9288 47.3507 82.7137 47.7081 82.8212 48.0297Z" fill="#AEB1B3"/>
<path d="M82.3554 33.306C82.6781 33.449 83.0725 33.306 83.2159 32.9844C83.3593 32.6627 83.2159 32.2696 82.8932 32.1267C82.5705 31.9838 82.1762 32.1267 82.0327 32.4483C81.8535 32.77 81.9969 33.1631 82.3554 33.306Z" fill="#AEB1B3"/>
<path d="M79.3792 30.3758C79.7019 30.5188 80.0963 30.3758 80.2397 30.0542C80.3831 29.7326 80.2397 29.3395 79.917 29.1965C79.5944 29.0536 79.2 29.1965 79.0566 29.5182C78.9132 29.8755 79.0566 30.2329 79.3792 30.3758Z" fill="#AEB1B3"/>
<path d="M84.0404 36.9154C84.3631 37.0583 84.7575 36.9154 84.9009 36.5938C85.0443 36.2721 84.9009 35.879 84.5782 35.7361C84.2555 35.5931 83.8611 35.7361 83.7177 36.0577C83.5743 36.3793 83.7177 36.7724 84.0404 36.9154Z" fill="#AEB1B3"/>
<path d="M72.1176 27.6009C72.2115 27.2582 72.0088 26.9045 71.6649 26.811C71.3211 26.7175 70.9663 26.9195 70.8725 27.2623C70.7787 27.605 70.9814 27.9586 71.3252 28.0521C71.669 28.1456 72.0238 27.9436 72.1176 27.6009Z" fill="#AEB1B3"/>
<path d="M67.7988 28.6959C68.1215 28.5173 68.229 28.1241 68.0856 27.8383C67.9063 27.5166 67.512 27.4094 67.2251 27.5524C66.9024 27.731 66.7949 28.1241 66.9383 28.41C67.0817 28.7317 67.4761 28.8389 67.7988 28.6959Z" fill="#AEB1B3"/>
<path d="M76.2933 28.2759C76.4361 27.9504 76.2872 27.5711 75.9607 27.4287C75.6341 27.2863 75.2536 27.4348 75.1107 27.7603C74.9679 28.0857 75.1168 28.465 75.4433 28.6074C75.7699 28.7498 76.1504 28.6014 76.2933 28.2759Z" fill="#AEB1B3"/>
<path d="M61.7037 32.1626C61.7754 31.8052 61.5602 31.4836 61.2017 31.4121C60.8432 31.3407 60.5205 31.5551 60.4488 31.9124C60.3771 32.2698 60.5922 32.5914 60.9507 32.6629C61.3093 32.7344 61.632 32.52 61.7037 32.1626Z" fill="#D9DADB"/>
<path d="M59.4805 35.7002C59.5522 35.3428 59.3371 35.0212 58.9786 34.9497C58.62 34.8783 58.2974 35.0927 58.2257 35.45C58.1539 35.8074 58.3691 36.129 58.7276 36.2005C59.0503 36.272 59.4088 36.0576 59.4805 35.7002Z" fill="#D9DADB"/>
<path d="M64.2852 29.7324C64.3569 29.3751 64.1418 29.0534 63.7832 28.982C63.4247 28.9105 63.102 29.1249 63.0303 29.4823C62.9586 29.8396 63.1738 30.1613 63.5323 30.2327C63.855 30.3042 64.2135 30.0898 64.2852 29.7324Z" fill="#D9DADB"/>
<path d="M58.8712 43.3481C58.6561 43.0622 58.2259 43.0265 57.9749 43.2767C57.6881 43.4911 57.6522 43.9199 57.9032 44.1701C58.1183 44.456 58.5485 44.4917 58.7995 44.2416C59.0505 43.9914 59.1222 43.634 58.8712 43.3481Z" fill="#D9DADB"/>
<path d="M60.2697 47.3149C60.0546 47.029 59.6244 46.9933 59.3734 47.2435C59.1224 47.4936 59.0507 47.8867 59.3017 48.1369C59.5168 48.4228 59.947 48.4585 60.198 48.2083C60.449 47.9939 60.4848 47.6008 60.2697 47.3149Z" fill="#D9DADB"/>
<path d="M58.6202 39.2383C58.4051 38.9524 57.9749 38.9166 57.7239 39.1668C57.4371 39.3812 57.4012 39.8101 57.6522 40.0602C57.8673 40.3461 58.2976 40.3819 58.5485 40.1317C58.7995 39.9173 58.8354 39.4884 58.6202 39.2383Z" fill="#D9DADB"/>
<path d="M65.6833 52.568C65.3248 52.568 65.038 52.8896 65.0738 53.247C65.0738 53.6043 65.3965 53.8902 65.755 53.8545C66.1136 53.8545 66.4004 53.5329 66.3646 53.1755C66.3287 52.8181 66.0419 52.5322 65.6833 52.568Z" fill="#D9DADB"/>
<path d="M69.6628 53.8901C69.3043 53.8901 69.0175 54.2118 69.0533 54.5691C69.0533 54.9265 69.376 55.2124 69.7345 55.1767C70.0931 55.1767 70.3799 54.855 70.3441 54.4977C70.3082 54.176 70.0214 53.8901 69.6628 53.8901Z" fill="#D9DADB"/>
<path d="M62.2414 50.2095C61.8829 50.2095 61.5961 50.5311 61.6319 50.8885C61.6319 51.2458 61.9546 51.5317 62.3131 51.496C62.6717 51.496 62.9585 51.1744 62.9226 50.817C62.9226 50.4954 62.6 50.2095 62.2414 50.2095Z" fill="#D9DADB"/>
<path d="M77.2281 52.7823C77.013 53.0682 77.0847 53.4613 77.3715 53.6757C77.6583 53.8901 78.0527 53.8186 78.2678 53.5327C78.483 53.2468 78.4113 52.8537 78.1244 52.6393C77.8376 52.4249 77.4432 52.4964 77.2281 52.7823Z" fill="#D9DADB"/>
<path d="M80.5626 50.5313C80.3475 50.8172 80.4192 51.2103 80.706 51.4247C80.9928 51.6391 81.3872 51.5677 81.6023 51.2818C81.8174 50.9959 81.7457 50.6028 81.4589 50.3883C81.1721 50.1739 80.7777 50.2454 80.5626 50.5313Z" fill="#D9DADB"/>
<path d="M73.2843 53.8902C73.0691 54.1761 73.1408 54.5692 73.4277 54.7836C73.7145 54.998 74.1089 54.9265 74.324 54.6406C74.5391 54.3548 74.4674 53.9617 74.1806 53.7472C73.9296 53.5328 73.4994 53.6043 73.2843 53.8902Z" fill="#D9DADB"/>
<path d="M84.0043 44.0629C84.0761 44.4203 84.4346 44.6347 84.7931 44.5275C85.1517 44.456 85.3668 44.0987 85.2592 43.7413C85.1875 43.3839 84.829 43.1695 84.4704 43.2767C84.1119 43.3839 83.8968 43.7413 84.0043 44.0629Z" fill="#D9DADB"/>
<path d="M84.4345 40.2387C84.5062 40.5961 84.8648 40.8105 85.2233 40.7033C85.5818 40.6318 85.797 40.2744 85.6894 39.9171C85.6177 39.5597 85.2592 39.3453 84.9006 39.4525C84.5421 39.524 84.3628 39.8813 84.4345 40.2387Z" fill="#D9DADB"/>
<path d="M82.6779 47.9223C82.7496 48.2797 83.1081 48.4941 83.4666 48.3869C83.8252 48.3154 84.0403 47.958 83.9327 47.6007C83.861 47.2433 83.5025 47.0289 83.144 47.1361C82.8213 47.2076 82.6062 47.5649 82.6779 47.9223Z" fill="#D9DADB"/>
<path d="M82.2118 33.1629C82.5345 33.3059 82.9288 33.1629 83.0723 32.8413C83.2157 32.5197 83.0723 32.1266 82.7496 31.9836C82.4269 31.8407 82.0325 31.9836 81.8891 32.3053C81.7457 32.6269 81.8891 33.02 82.2118 33.1629Z" fill="#D9DADB"/>
<path d="M80.1067 29.948C80.2644 29.6294 80.1331 29.2437 79.8135 29.0865C79.4938 28.9292 79.1069 29.0601 78.9491 29.3787C78.7914 29.6973 78.9227 30.083 79.2423 30.2402C79.562 30.3974 79.9489 30.2666 80.1067 29.948Z" fill="#D9DADB"/>
<path d="M83.9328 36.7723C84.2554 36.9153 84.6498 36.7723 84.7932 36.4507C84.9367 36.1291 84.7932 35.736 84.4706 35.593C84.1479 35.4501 83.7535 35.593 83.6101 35.9146C83.4308 36.2363 83.6101 36.6294 83.9328 36.7723Z" fill="#D9DADB"/>
<path d="M71.9795 27.4339C72.0733 27.0912 71.8706 26.7375 71.5267 26.644C71.1829 26.5505 70.8281 26.7525 70.7343 27.0953C70.6405 27.438 70.8432 27.7916 71.187 27.8851C71.5309 27.9786 71.8856 27.7766 71.9795 27.4339Z" fill="#D9DADB"/>
<path d="M67.6552 28.5529C67.9779 28.3742 68.0854 27.9811 67.942 27.6952C67.7628 27.3736 67.3684 27.2663 67.0816 27.4093C66.7589 27.588 66.6513 27.9811 66.7947 28.267C66.9382 28.5886 67.3325 28.7316 67.6552 28.5529Z" fill="#D9DADB"/>
<path d="M76.1658 28.1148C76.3087 27.7893 76.1598 27.41 75.8332 27.2676C75.5067 27.1252 75.1261 27.2736 74.9833 27.5991C74.8404 27.9246 74.9893 28.3039 75.3159 28.4463C75.6424 28.5887 76.023 28.4402 76.1658 28.1148Z" fill="#D9DADB"/>
<path d="M61.4855 31.5613L60.6235 32.4204L60.7249 32.5215L61.5869 31.6623L61.4855 31.5613Z" fill="#C2C4C6"/>
<path d="M59.2306 35.1027L58.3687 35.9619L58.4701 36.063L59.332 35.2038L59.2306 35.1027Z" fill="#C2C4C6"/>
<path d="M64.0163 29.1071L63.1543 29.9663L63.2557 30.0674L64.1177 29.2082L64.0163 29.1071Z" fill="#C2C4C6"/>
<path d="M58.779 43.2834L57.917 44.1426L58.0184 44.2437L58.8804 43.3845L58.779 43.2834Z" fill="#C2C4C6"/>
<path d="M60.1574 47.261L59.2954 48.1201L59.3968 48.2212L60.2588 47.362L60.1574 47.261Z" fill="#C2C4C6"/>
<path d="M58.4943 39.157L57.6323 40.0161L57.7337 40.1172L58.5957 39.258L58.4943 39.157Z" fill="#C2C4C6"/>
<path d="M66.1027 52.7209L65.2407 53.5801L65.3421 53.6812L66.2041 52.822L66.1027 52.7209Z" fill="#C2C4C6"/>
<path d="M70.068 54.0495L69.2061 54.9087L69.3075 55.0098L70.1694 54.1506L70.068 54.0495Z" fill="#C2C4C6"/>
<path d="M62.6481 50.3728L61.7861 51.2319L61.8875 51.333L62.7495 50.4738L62.6481 50.3728Z" fill="#C2C4C6"/>
<path d="M78.1466 52.6794L77.2847 53.5386L77.3861 53.6397L78.248 52.7805L78.1466 52.6794Z" fill="#C2C4C6"/>
<path d="M81.4499 50.4445L80.5879 51.3037L80.6893 51.4048L81.5513 50.5456L81.4499 50.4445Z" fill="#C2C4C6"/>
<path d="M74.2145 53.7986L73.3525 54.6577L73.454 54.7588L74.3159 53.8996L74.2145 53.7986Z" fill="#C2C4C6"/>
<path d="M84.9977 43.4485L84.1357 44.3076L84.2371 44.4087L85.0991 43.5495L84.9977 43.4485Z" fill="#C2C4C6"/>
<path d="M85.4635 39.5998L84.6016 40.459L84.703 40.5601L85.5649 39.7009L85.4635 39.5998Z" fill="#C2C4C6"/>
<path d="M83.691 47.2575L82.8291 48.1167L82.9305 48.2178L83.7925 47.3586L83.691 47.2575Z" fill="#C2C4C6"/>
<path d="M82.8541 32.1096L81.9922 32.9688L82.0936 33.0698L82.9556 32.2107L82.8541 32.1096Z" fill="#C2C4C6"/>
<path d="M79.9025 29.1823L79.0405 30.0415L79.1419 30.1426L80.0039 29.2834L79.9025 29.1823Z" fill="#C2C4C6"/>
<path d="M84.5563 35.6902L83.6943 36.5493L83.7957 36.6504L84.6577 35.7912L84.5563 35.6902Z" fill="#C2C4C6"/>
<path d="M71.7741 26.8054L70.9121 27.6646L71.0135 27.7656L71.8755 26.9065L71.7741 26.8054Z" fill="#C2C4C6"/>
<path d="M67.7423 27.489L66.8804 28.3481L66.9818 28.4492L67.8437 27.5901L67.7423 27.489Z" fill="#C2C4C6"/>
<path d="M75.9547 27.3811L75.0928 28.2402L75.1942 28.3413L76.0561 27.4822L75.9547 27.3811Z" fill="#C2C4C6"/>
<path opacity="0.33" d="M111.181 1.42923C111.181 1.42923 107.632 -1.46544 92.7525 0.96465C77.0129 3.50195 67.0098 13.1509 60.1977 19.8694C51.3778 28.5534 36.8931 48.5302 30.0093 65.5051C30.0093 65.5051 61.7036 -0.75071 111.181 1.42923Z" fill="white"/>
<path opacity="0.33" d="M31.8375 67.2563L30.26 68.7929L29.7222 68.2569L31.2639 66.7202L31.8375 67.2563Z" fill="white"/>
<g opacity="0.48">
<path opacity="0.48" d="M47.4341 82.6944C47.4341 82.6944 110.643 50.7816 111.181 1.4292L129 9.21979L69.9858 99.848C69.9858 99.848 58.0825 95.3809 47.4341 82.6944Z" fill="url(#paint18_linear_592_6791)"/>
</g>
<path d="M47.4341 82.6947L48.6889 87.2333C48.6889 87.2333 60.8432 81.2652 68.3007 71.6163C68.3007 71.5806 54.8199 79.6213 47.4341 82.6947Z" fill="url(#paint19_linear_592_6791)"/>
<path opacity="0.33" d="M41.9482 100.849C45.677 97.2037 47.0752 93.6658 47.3262 92.9868C47.2545 93.1298 47.147 93.4157 46.8601 93.8802C46.0355 95.4169 44.7806 97.0608 43.0238 98.9906C40.7651 101.456 37.5383 104.744 37.0363 106.174C36.9646 106.46 37.0005 106.674 37.1439 106.781C37.1439 106.817 37.7893 104.887 41.9482 100.849Z" fill="white"/>
</g>
<defs>
<linearGradient id="paint0_linear_592_6791" x1="-8.2484" y1="120.223" x2="28.6512" y2="85.3524" gradientUnits="userSpaceOnUse">
<stop stop-color="#87BE9E"/>
<stop offset="0.9964" stop-color="#C4DFD0"/>
</linearGradient>
<linearGradient id="paint1_linear_592_6791" x1="8.66762" y1="104.478" x2="31.409" y2="82.0305" gradientUnits="userSpaceOnUse">
<stop offset="0.00355872" stop-color="#C4DFD0"/>
<stop offset="1" stop-color="#E4F0E9"/>
</linearGradient>
<linearGradient id="paint2_linear_592_6791" x1="51.2721" y1="93.214" x2="30.0155" y2="58.3543" gradientUnits="userSpaceOnUse">
<stop stop-color="#76C9F0"/>
<stop offset="1" stop-color="#AEB1B3"/>
</linearGradient>
<linearGradient id="paint3_linear_592_6791" x1="19.4124" y1="55.7396" x2="53.5112" y2="94.8368" gradientUnits="userSpaceOnUse">
<stop offset="0.00355872" stop-color="#469A69"/>
<stop offset="1" stop-color="#0B7A39"/>
</linearGradient>
<linearGradient id="paint4_linear_592_6791" x1="55.6403" y1="104.13" x2="44.7096" y2="48.8689" gradientUnits="userSpaceOnUse">
<stop offset="0.00355872" stop-color="#469A69"/>
<stop offset="1" stop-color="#0B7A39"/>
</linearGradient>
<linearGradient id="paint5_linear_592_6791" x1="65.6766" y1="21.7892" x2="90.857" y2="81.4544" gradientUnits="userSpaceOnUse">
<stop offset="0.00355872" stop-color="#F3FAFE"/>
<stop offset="1" stop-color="#DAF0FB"/>
</linearGradient>
<linearGradient id="paint6_linear_592_6791" x1="69.1342" y1="28.3978" x2="90.4963" y2="79.0155" gradientUnits="userSpaceOnUse">
<stop offset="0.00355872" stop-color="#F3FAFE"/>
<stop offset="1" stop-color="#DAF0FB"/>
</linearGradient>
<linearGradient id="paint7_linear_592_6791" x1="28.7382" y1="52.7891" x2="51.5016" y2="80.9663" gradientUnits="userSpaceOnUse">
<stop stop-color="#CDCFD1"/>
<stop offset="1" stop-color="#AEB1B3"/>
</linearGradient>
<linearGradient id="paint8_linear_592_6791" x1="45.3626" y1="66.5569" x2="50.0115" y2="80.9378" gradientUnits="userSpaceOnUse">
<stop stop-color="#3D444A"/>
<stop offset="1" stop-color="#3D444A" stop-opacity="0"/>
</linearGradient>
<linearGradient id="paint9_linear_592_6791" x1="95.9195" y1="6.19135" x2="143.054" y2="44.1176" gradientUnits="userSpaceOnUse">
<stop offset="0.00355872" stop-color="#469A69"/>
<stop offset="1" stop-color="#0B7A39"/>
</linearGradient>
<linearGradient id="paint10_linear_592_6791" x1="156.258" y1="88.0644" x2="69.0712" y2="-2.633" gradientUnits="userSpaceOnUse">
<stop stop-color="#0B7A39"/>
<stop offset="0.9964" stop-color="#469A69"/>
</linearGradient>
<linearGradient id="paint11_linear_592_6791" x1="153.599" y1="90.621" x2="66.4123" y2="-0.0763572" gradientUnits="userSpaceOnUse">
<stop stop-color="#0B7A39"/>
<stop offset="0.9964" stop-color="#469A69"/>
</linearGradient>
<linearGradient id="paint12_linear_592_6791" x1="28.127" y1="67.0637" x2="54.8029" y2="105.345" gradientUnits="userSpaceOnUse">
<stop offset="0.00355872" stop-color="#469A69"/>
<stop offset="1" stop-color="#0B7A39"/>
</linearGradient>
<linearGradient id="paint13_linear_592_6791" x1="74.6212" y1="47.4666" x2="84.244" y2="67.68" gradientUnits="userSpaceOnUse">
<stop stop-color="#3D444A"/>
<stop offset="0.6767" stop-color="#3D444A" stop-opacity="0.3233"/>
<stop offset="1" stop-color="#3D444A" stop-opacity="0"/>
</linearGradient>
<linearGradient id="paint14_linear_592_6791" x1="64.6933" y1="24.6006" x2="83.5913" y2="68.9548" gradientUnits="userSpaceOnUse">
<stop stop-color="#CDCFD1"/>
<stop offset="1" stop-color="#AEB1B3"/>
</linearGradient>
<linearGradient id="paint15_linear_592_6791" x1="62.4303" y1="27.1714" x2="84.7854" y2="61.4462" gradientUnits="userSpaceOnUse">
<stop stop-color="#D6EFFA"/>
<stop offset="1" stop-color="#B2E1F7"/>
</linearGradient>
<linearGradient id="paint16_linear_592_6791" x1="82.5117" y1="31.6229" x2="58.5523" y2="47.5396" gradientUnits="userSpaceOnUse">
<stop stop-color="#FAFBFB"/>
<stop offset="1" stop-color="#FAFBFB" stop-opacity="0"/>
</linearGradient>
<linearGradient id="paint17_linear_592_6791" x1="85.5879" y1="36.2536" x2="61.6285" y2="52.1703" gradientUnits="userSpaceOnUse">
<stop stop-color="#FAFBFB"/>
<stop offset="1" stop-color="#FAFBFB" stop-opacity="0"/>
</linearGradient>
<linearGradient id="paint18_linear_592_6791" x1="128.912" y1="73.2024" x2="77.23" y2="40.8238" gradientUnits="userSpaceOnUse">
<stop stop-color="#3D444A"/>
<stop offset="1" stop-color="#3D444A" stop-opacity="0"/>
</linearGradient>
<linearGradient id="paint19_linear_592_6791" x1="54.8305" y1="71.2333" x2="60.1605" y2="83.2129" gradientUnits="userSpaceOnUse">
<stop stop-color="#3D444A"/>
<stop offset="1" stop-color="#3D444A" stop-opacity="0"/>
</linearGradient>
<clipPath id="clip0_592_6791">
<rect width="129" height="114" fill="white"/>
</clipPath>
</defs>
</svg>
