<svg width="14" height="14" viewBox="0 0 14 14" fill="none" xmlns="http://www.w3.org/2000/svg">
<path fill-rule="evenodd" clip-rule="evenodd" d="M5.93602 4.61204V1.0977C5.92732 0.956774 5.94794 0.815581 5.99662 0.682811C6.04531 0.550041 6.12101 0.428503 6.21909 0.325676C6.31718 0.22285 6.43556 0.140911 6.56695 0.0849022C6.69834 0.0288935 6.83995 0 6.98309 0C7.12622 0 7.26785 0.0288935 7.39924 0.0849022C7.53063 0.140911 7.649 0.22285 7.74708 0.325676C7.84516 0.428503 7.92088 0.550041 7.96956 0.682811C8.01824 0.815581 8.03887 0.956774 8.03016 1.0977V4.61204L8.67122 3.94903C8.76581 3.84545 8.88064 3.76179 9.00881 3.70308C9.13698 3.64436 9.27587 3.6118 9.41712 3.60734C9.55837 3.60288 9.69908 3.62662 9.8308 3.67714C9.96251 3.72765 10.0825 3.8039 10.1836 3.9013C10.2847 3.99871 10.3648 4.11526 10.4191 4.24396C10.4734 4.37265 10.5008 4.51085 10.4996 4.65025C10.4985 4.78965 10.4687 4.92737 10.4122 5.05515C10.3558 5.18293 10.2737 5.29814 10.1709 5.39386L7.74266 7.85811C7.6457 7.9558 7.52995 8.03341 7.40219 8.08639C7.27443 8.13937 7.13722 8.16667 6.99863 8.16667C6.86004 8.16667 6.72285 8.13937 6.59508 8.08639C6.46732 8.03341 6.35156 7.9558 6.2546 7.85811L3.80691 5.43601C3.70952 5.34024 3.63225 5.22646 3.57953 5.10117C3.52681 4.97589 3.49967 4.84158 3.49967 4.70594C3.49967 4.57029 3.52681 4.43598 3.57953 4.3107C3.63225 4.18541 3.70952 4.07163 3.80691 3.97586C4.0035 3.78278 4.26963 3.67439 4.54705 3.67439C4.82447 3.67439 5.09059 3.78278 5.28718 3.97586L5.93602 4.61204ZM0.594899 12.7419C0.596213 13.073 0.720098 13.3904 0.939828 13.6255C1.16104 13.8628 1.46182 13.9975 1.77635 14H12.2151C12.5305 14 12.833 13.867 13.0561 13.6303C13.2791 13.3935 13.4044 13.0725 13.4044 12.7377V9.60708C13.4285 9.42807 13.416 9.24566 13.3678 9.07222C13.3197 8.89877 13.237 8.73833 13.1253 8.60175C13.0137 8.46517 12.8757 8.35564 12.7207 8.28058C12.5657 8.20551 12.3973 8.16667 12.227 8.16667C12.0566 8.16667 11.8882 8.20551 11.7332 8.28058C11.5782 8.35564 11.4402 8.46517 11.3286 8.60175C11.2169 8.73833 11.1343 8.89877 11.0861 9.07222C11.0379 9.24566 11.0255 9.42807 11.0495 9.60708V11.4922H2.94986V9.60708C2.97389 9.42807 2.96141 9.24566 2.91326 9.07222C2.86511 8.89877 2.78241 8.73833 2.67076 8.60175C2.55911 8.46517 2.42112 8.35564 2.26612 8.28058C2.11113 8.20551 1.94275 8.16667 1.77238 8.16667C1.60201 8.16667 1.43364 8.20551 1.27865 8.28058C1.12365 8.35564 0.985658 8.46517 0.874009 8.60175C0.762361 8.73833 0.679663 8.89877 0.63151 9.07222C0.583358 9.24566 0.570866 9.42807 0.594899 9.60708V12.7419Z" fill="#00FFB7"/>
</svg>
