<svg width="72" height="72" viewBox="0 0 72 72" fill="none" xmlns="http://www.w3.org/2000/svg">
<rect width="72" height="72" rx="36" fill="#333333" fill-opacity="0.5"/>
<path d="M43.4068 25.1842L42.6822 24.2913C42.6282 24.3351 42.5783 24.3837 42.5331 24.4366L38.7672 28.8376H27.3771C27.0833 28.8376 26.8007 28.95 26.5872 29.1518L24.4698 31.1532C24.1499 31.4556 24.0307 31.914 24.1627 32.3339C24.2948 32.7539 24.655 33.0615 25.0903 33.1264L33.8196 34.4267L28.4812 40.8583H26.0818C25.7313 40.8583 25.3999 41.0182 25.1817 41.2925L23.5999 43.2814C23.3251 43.6269 23.2724 44.0993 23.4642 44.4969C23.656 44.8945 24.0585 45.1472 24.5 45.1472H27.5722L27.8772 48.1175C27.9223 48.5562 28.2143 48.9305 28.6289 49.081C29.0434 49.2315 29.5076 49.1316 29.8235 48.8239L31.4676 47.2228C31.6899 47.0063 31.8153 46.7092 31.8153 46.3989V43.6638L37.413 37.9095L39.4085 46.6547C39.496 47.0381 39.7733 47.3502 40.1437 47.4822C40.5141 47.6142 40.9263 47.5477 41.2365 47.3061L43.2916 45.705C43.5918 45.4711 43.7568 45.1039 43.7324 44.7241L42.9465 32.4769L47.0463 28.8472C47.086 28.8121 47.1232 28.7742 47.1577 28.7339L46.284 27.9862C47.1577 28.7339 47.1579 28.7336 47.1582 28.7334L47.1586 28.7328L47.1597 28.7316L47.1624 28.7283L47.1701 28.7193L47.1939 28.6907C47.2133 28.6671 47.2398 28.6346 47.2719 28.594C47.336 28.5129 47.4234 28.3987 47.5231 28.2585C47.7196 27.9821 47.9769 27.5861 48.1945 27.1322C48.4063 26.6902 48.6166 26.1192 48.6464 25.5093C48.6779 24.8655 48.5045 24.1404 47.9083 23.5598C47.3168 22.9837 46.5906 22.8239 45.9545 22.8534C45.3449 22.8817 44.7696 23.0816 44.3182 23.2867C43.8559 23.4968 43.4516 23.7459 43.1686 23.9368C43.0251 24.0335 42.9082 24.1184 42.8252 24.1806C42.7837 24.2118 42.7504 24.2374 42.7263 24.2563L42.6971 24.2793L42.6878 24.2868L42.6845 24.2894L42.6832 24.2904L42.6827 24.2909C42.6824 24.2911 42.6822 24.2913 43.4068 25.1842Z" stroke="#59B29F" stroke-width="2.3" stroke-linecap="square" stroke-linejoin="round"/>
</svg>
