<svg width="15" height="15" viewBox="0 0 15 15" fill="none" xmlns="http://www.w3.org/2000/svg">
<path d="M14.8332 7.5L13.2065 5.64L13.4332 3.18L11.0265 2.63333L9.7665 0.5L7.49984 1.47333L5.23317 0.5L3.97317 2.62667L1.5665 3.16667L1.79317 5.63333L0.166504 7.5L1.79317 9.36L1.5665 11.8267L3.97317 12.3733L5.23317 14.5L7.49984 13.52L9.7665 14.4933L11.0265 12.3667L13.4332 11.82L13.2065 9.36L14.8332 7.5ZM5.75317 10.1733L4.1665 8.57333C4.1047 8.51166 4.05567 8.4384 4.02222 8.35775C3.98876 8.2771 3.97154 8.19065 3.97154 8.10333C3.97154 8.01602 3.98876 7.92957 4.02222 7.84892C4.05567 7.76827 4.1047 7.69501 4.1665 7.63333L4.21317 7.58667C4.47317 7.32667 4.89984 7.32667 5.15984 7.58667L6.23317 8.66667L9.6665 5.22667C9.9265 4.96667 10.3532 4.96667 10.6132 5.22667L10.6598 5.27333C10.9198 5.53333 10.9198 5.95333 10.6598 6.21333L6.71317 10.1733C6.43984 10.4333 6.01984 10.4333 5.75317 10.1733Z" fill="#00FFB7"/>
</svg>
