<svg width="36" height="37" viewBox="0 0 36 37" fill="none" xmlns="http://www.w3.org/2000/svg">
<path d="M10.7941 7.46251L3.159 15.4157C1.55584 17.0857 1.55584 19.7932 3.159 21.4632L15.9838 34.8223C17.5869 36.4923 20.1862 36.4923 21.7893 34.8223L29.4244 26.8691C31.0276 25.1992 31.0276 22.4916 29.4244 20.8217L16.5996 7.46252C14.9965 5.79256 12.3972 5.79256 10.7941 7.46251Z" fill="#00664E"/>
<path d="M13.9397 23.6297C13.9641 23.6318 13.9886 23.6287 14.0118 23.6208C14.035 23.6128 14.0565 23.6001 14.075 23.5833C14.0934 23.5666 14.1085 23.5462 14.1193 23.5233C14.13 23.5004 14.1363 23.4755 14.1378 23.45C14.2826 21.3941 14.0379 19.3287 13.4177 17.3715C12.7975 15.4144 11.814 13.6039 10.5233 12.0435C9.23258 10.4831 7.65998 9.20333 5.89531 8.27728C4.13063 7.35124 2.20844 6.79706 0.238524 6.6464C0.189481 6.6431 0.14117 6.66013 0.104084 6.69378C0.0669988 6.72744 0.0441337 6.775 0.0404551 6.82615C-0.104325 8.882 0.140364 10.9475 0.760549 12.9046C1.38073 14.8618 2.36426 16.6722 3.65497 18.2326C4.94567 19.7931 6.51827 21.0728 8.28295 21.9989C10.0476 22.9249 11.9698 23.4791 13.9397 23.6297Z" fill="url(#paint0_radial_1_3396)"/>
<path d="M25.5209 5.10336C25.521 6.78178 25.3391 8.45465 24.9789 10.089C24.0935 14.1191 22.1563 17.8034 19.389 20.7202C16.6217 23.637 13.1362 25.6684 9.33126 26.582C9.31254 26.585 9.29352 26.585 9.2748 26.582C9.2165 26.5817 9.16002 26.5605 9.11445 26.5219C9.06888 26.4834 9.03686 26.4297 9.02356 26.3694C8.98968 26.2048 8.95581 26.0401 8.92475 25.8754C8.73492 24.8876 8.60947 23.8871 8.5493 22.881C8.52107 22.4079 8.50696 21.9348 8.50696 21.4647C8.51691 16.4722 10.1238 11.631 13.0647 7.73313C16.0056 3.83523 20.1065 1.11131 24.6966 0.00692423C24.7628 -0.00922654 24.8324 0.00313507 24.8901 0.0413007C24.9478 0.0794663 24.9888 0.140324 25.0043 0.210542C25.3348 1.75951 25.508 3.34158 25.5209 4.92969V5.10336Z" fill="url(#paint1_radial_1_3396)"/>
<path d="M13.0034 24.1369C16.2698 24.1369 18.9177 21.3786 18.9177 17.9762C18.9177 14.5737 16.2698 11.8154 13.0034 11.8154C9.73703 11.8154 7.08911 14.5737 7.08911 17.9762C7.08911 21.3786 9.73703 24.1369 13.0034 24.1369Z" fill="#FAD61C"/>
<path d="M13.0034 23.2047C15.7756 23.2047 18.0229 20.8638 18.0229 17.9761C18.0229 15.0885 15.7756 12.7476 13.0034 12.7476C10.2313 12.7476 7.98401 15.0885 7.98401 17.9761C7.98401 20.8638 10.2313 23.2047 13.0034 23.2047Z" fill="#FACA4F"/>
<path d="M15.6298 13.5132C16.1469 14.3536 16.421 15.3312 16.4195 16.3295C16.4195 19.2171 14.1722 21.558 11.4001 21.558C10.4727 21.5595 9.56329 21.2921 8.77356 20.7857C9.22718 21.5257 9.85251 22.1347 10.5918 22.5564C11.3311 22.9781 12.1605 23.1989 13.0033 23.1984C15.7755 23.1984 18.0228 20.8575 18.0228 17.9699C18.0233 17.0758 17.8036 16.1966 17.3846 15.4163C16.9656 14.636 16.3614 13.9807 15.6298 13.5132Z" fill="#F8C030"/>
<path d="M8.86317 18.4548C8.86317 15.9057 10.847 13.8392 13.2941 13.8392C13.9731 13.8387 14.643 14.0009 15.2521 14.3134C15.8612 14.6259 16.393 15.0802 16.8064 15.6412C16.4181 14.9374 15.8584 14.3527 15.1838 13.9462C14.5092 13.5397 13.7436 13.3258 12.9642 13.3262C10.5171 13.3262 8.53272 15.3925 8.53272 17.9416C8.53131 18.9595 8.85438 19.9491 9.45125 20.7551C9.06465 20.0555 8.86182 19.2621 8.86317 18.4548Z" fill="#F7DB5E"/>
<path d="M11.8532 20.3864C15.2897 20.3864 15.5665 17.2086 15.5886 15.6985C15.5888 15.6574 15.5815 15.6167 15.5669 15.5787C15.5524 15.5408 15.531 15.5064 15.5041 15.4777C15.4771 15.4489 15.4451 15.4263 15.4099 15.4112C15.3748 15.3961 15.3372 15.3888 15.2994 15.3897C10.4159 15.4872 10.4159 18.0607 10.4159 20.3864V21.6363" stroke="#E89F1E" stroke-linecap="round" stroke-linejoin="round"/>
<path d="M10.4159 20.3865C10.4159 20.3865 10.4159 18.5117 12.7157 18.1992" stroke="#E89F1E" stroke-linecap="round" stroke-linejoin="round"/>
<g opacity="0.2">
<path opacity="0.2" d="M4.65757 23.0147C4.69161 23.0532 4.72848 23.0886 4.76252 23.1211C4.26326 22.6099 4.09306 22.4238 4.65757 23.0147Z" fill="#2D2926"/>
</g>
<g opacity="0.2">
<path opacity="0.2" d="M34.639 17.3082L19.2794 33.3107C18.9631 33.6413 18.5873 33.9036 18.1735 34.0826C17.7597 34.2616 17.316 34.3537 16.868 34.3537C16.4199 34.3537 15.9762 34.2616 15.5624 34.0826C15.1486 33.9036 14.7728 33.6413 14.4565 33.3107L8.82789 27.4328C8.69632 27.2945 8.57582 27.1453 8.46759 26.9865L7.83494 26.3246L7.79806 26.2891L7.68458 26.1679L7.625 26.1059L7.23066 25.7099L4.79651 23.1684C5.17766 23.5499 5.68641 23.7619 6.21501 23.7594C7.17676 23.7594 8.07892 23.1004 8.53568 22.7044C8.73143 22.533 8.84775 22.4089 8.84775 22.4089L25.5861 4.97314V5.14455C25.5862 6.80102 25.4034 8.45201 25.0414 10.065C25.6459 9.84498 26.2977 9.80703 26.922 9.95548C27.5462 10.1039 28.1177 10.4328 28.5706 10.9043L34.2106 16.7822C34.3709 16.9412 34.5145 17.1175 34.639 17.3082Z" fill="#2D2926"/>
<path opacity="0.2" d="M4.70012 23.0647L4.80791 23.1711C4.30865 22.651 4.13561 22.4708 4.70012 23.0647Z" fill="#2D2926"/>
</g>
<path d="M34.4443 21.8904L21.4983 35.8474C21.1834 36.1883 20.8092 36.4587 20.3972 36.6433C19.9852 36.8278 19.5434 36.9228 19.0973 36.9228C18.6511 36.9228 18.2094 36.8278 17.7974 36.6433C17.3853 36.4587 17.0111 36.1883 16.6962 35.8474L11.0947 29.7967C10.962 29.6549 10.841 29.501 10.7331 29.3366C10.5099 29.099 9.24442 27.7279 8.17665 26.5763L8.13993 26.5397L8.02694 26.4148L7.96762 26.3508C7.83485 26.2076 7.70774 26.0675 7.58627 25.9426C7.39984 25.7384 7.23318 25.5556 7.08911 25.4033C7.46975 25.7947 7.97558 26.0129 8.5015 26.0126C8.75844 26.0093 9.01353 25.9651 9.25855 25.8816C9.95691 25.6126 10.5923 25.1821 11.1201 24.6203L24.0491 10.6754C24.364 10.3346 24.7382 10.0641 25.1503 9.87962C25.5623 9.69509 26.004 9.6001 26.4502 9.6001C26.8963 9.6001 27.3381 9.69509 27.7501 9.87962C28.1621 10.0641 28.5363 10.3346 28.8513 10.6754L34.4669 16.7354C34.625 16.9025 34.7661 17.0874 34.8878 17.2868C35.3176 17.9916 35.5083 18.8349 35.4275 19.6739C35.3466 20.513 34.9993 21.296 34.4443 21.8904Z" fill="#1FA37C"/>
<path d="M6.92663 24.9413L7.08909 25.107C6.31632 24.3152 6.05288 24.016 6.92663 24.9413Z" fill="url(#paint2_linear_1_3396)"/>
<path d="M28.8416 19.959L33.3188 15.2996L29.9809 11.8154L25.5008 16.4778C25.0595 16.9404 24.8119 17.5662 24.8119 18.2184C24.8119 18.8706 25.0595 19.4964 25.5008 19.959C25.9448 20.4188 26.5453 20.6768 27.1712 20.6768C27.7971 20.6768 28.3977 20.4188 28.8416 19.959Z" fill="white"/>
<path d="M26.9386 19.9379C27.7215 19.9379 28.3562 19.2767 28.3562 18.4611C28.3562 17.6455 27.7215 16.9844 26.9386 16.9844C26.1556 16.9844 25.5209 17.6455 25.5209 18.4611C25.5209 19.2767 26.1556 19.9379 26.9386 19.9379Z" fill="#00664E"/>
<defs>
<radialGradient id="paint0_radial_1_3396" cx="0" cy="0" r="1" gradientUnits="userSpaceOnUse" gradientTransform="translate(1.04435 7.80342) rotate(4.1783) scale(31.9539 33.3338)">
<stop stop-color="#5B8B51"/>
<stop offset="0.5" stop-color="#3B6857"/>
<stop offset="1" stop-color="#26464B"/>
</radialGradient>
<radialGradient id="paint1_radial_1_3396" cx="0" cy="0" r="1" gradientUnits="userSpaceOnUse" gradientTransform="translate(24.0783 2.59107) scale(39.637 42.0441)">
<stop stop-color="#C3CF60"/>
<stop offset="0.29" stop-color="#A8BF57"/>
<stop offset="0.5" stop-color="#94B34F"/>
<stop offset="1" stop-color="#5C8A51"/>
</radialGradient>
<linearGradient id="paint2_linear_1_3396" x1="6.37779" y1="24.7341" x2="7.08909" y2="24.7341" gradientUnits="userSpaceOnUse">
<stop stop-color="#00B299"/>
<stop offset="1" stop-color="#51ADAD"/>
</linearGradient>
</defs>
</svg>
