<svg width="12" height="12" viewBox="0 0 12 12" fill="none" xmlns="http://www.w3.org/2000/svg">
<path fill-rule="evenodd" clip-rule="evenodd" d="M8.36263 3C8.36263 4.21416 8.36263 5.69849 9.72664 5.95979V11.4545C9.72664 11.7558 9.93021 12 10.1813 12C10.4324 12 10.636 11.7558 10.636 11.4545V5.95979C12 5.69849 12 4.21416 12 3C12 1.31782 11.2011 0 10.1813 0C9.16149 0 8.36263 1.31782 8.36263 3ZM10.1813 1.09091C9.75119 1.09091 9.27197 1.87527 9.27197 3C9.27197 4.572 9.35017 4.90909 10.1813 4.90909C11.0125 4.90909 11.0907 4.572 11.0907 3C11.0907 1.87527 10.6114 1.09091 10.1813 1.09091ZM7.27453 11.2558C7.27453 11.5393 7.08294 11.7691 6.84661 11.7691C6.61028 11.7691 6.4187 11.5393 6.4187 11.2558V7.54669H5.18503C4.94197 7.54669 4.70962 7.42195 4.54744 7.20429C4.38526 6.98714 4.30781 6.69607 4.33476 6.40602L4.61804 3.349C4.68565 2.61799 4.90089 1.90854 5.24108 1.2961L5.70665 0.458313C5.91719 0.079458 6.30316 -0.0868683 6.66689 0.0450635C7.03019 0.178022 7.27453 0.57279 7.27453 1.02865V11.2558ZM6.4187 1.02865L5.95313 1.86644C5.68868 2.34232 5.52094 2.89417 5.46831 3.46297L5.18503 6.51999H6.4187V1.02865ZM2.1096 4.97994H2.56748C3.03947 4.97994 3.42331 4.51946 3.42331 3.95323V0.873111C3.42331 0.589594 3.23172 0.359758 2.99539 0.359758C2.75906 0.359758 2.56748 0.589594 2.56748 0.873111V3.95323H2.13957V0.873111C2.13957 0.589594 1.94798 0.359758 1.71165 0.359758C1.47532 0.359758 1.28374 0.589593 1.28374 0.873111V3.95323H0.855826V0.873111C0.855826 0.589594 0.664243 0.359758 0.427913 0.359758C0.191583 0.359758 0 0.589594 0 0.873111V3.95323C0 4.51946 0.383838 4.97994 0.855826 4.97994H1.27302V11.0555C1.27302 11.3327 1.46029 11.5573 1.69131 11.5573C1.92232 11.5573 2.1096 11.3327 2.1096 11.0555V4.97994Z" fill="url(#paint0_linear_3201_13714)"/>
<defs>
<linearGradient id="paint0_linear_3201_13714" x1="0" y1="0" x2="2.97012" y2="13.9259" gradientUnits="userSpaceOnUse">
<stop stop-color="#234157"/>
<stop offset="0.474206" stop-color="#387484"/>
<stop offset="1" stop-color="#34A182"/>
</linearGradient>
</defs>
</svg>
