<svg width="12" height="12" viewBox="0 0 12 12" fill="none" xmlns="http://www.w3.org/2000/svg">
<path fill-rule="evenodd" clip-rule="evenodd" d="M10.8724 6C10.8724 8.85665 8.85665 10.8724 6 10.8724C3.14335 10.8724 1.12759 8.85665 1.12759 6C1.12759 3.14335 3.14335 1.12759 6 1.12759C8.85665 1.12759 10.8724 3.14335 10.8724 6ZM12 6C12 9.31371 9.31371 12 6 12C2.68629 12 0 9.31371 0 6C0 2.68629 2.68629 0 6 0C9.31371 0 12 2.68629 12 6ZM4.66667 9.33333C5.03486 9.33333 5.33333 9.03486 5.33333 8.66667C5.33333 8.29848 5.03486 8 4.66667 8C4.29848 8 4 8.29848 4 8.66667C4 9.03486 4.29848 9.33333 4.66667 9.33333ZM7.33333 6.66667C7.33333 7.03486 7.03486 7.33333 6.66667 7.33333C6.29848 7.33333 6 7.03486 6 6.66667C6 6.29848 6.29848 6 6.66667 6C7.03486 6 7.33333 6.29848 7.33333 6.66667ZM7 9.66667C7.36819 9.66667 7.66667 9.36819 7.66667 9C7.66667 8.63181 7.36819 8.33333 7 8.33333C6.63181 8.33333 6.33333 8.63181 6.33333 9C6.33333 9.36819 6.63181 9.66667 7 9.66667ZM9.33333 4.33333C9.33333 4.70152 9.03486 5 8.66667 5C8.29848 5 8 4.70152 8 4.33333C8 3.96514 8.29848 3.66667 8.66667 3.66667C9.03486 3.66667 9.33333 3.96514 9.33333 4.33333ZM9 7.66667C9.36819 7.66667 9.66667 7.36819 9.66667 7C9.66667 6.63181 9.36819 6.33333 9 6.33333C8.63181 6.33333 8.33333 6.63181 8.33333 7C8.33333 7.36819 8.63181 7.66667 9 7.66667Z" fill="url(#paint0_linear_3201_13715)"/>
<defs>
<linearGradient id="paint0_linear_3201_13715" x1="0" y1="0" x2="2.97012" y2="13.9259" gradientUnits="userSpaceOnUse">
<stop stop-color="#234157"/>
<stop offset="0.474206" stop-color="#387484"/>
<stop offset="1" stop-color="#34A182"/>
</linearGradient>
</defs>
</svg>
