<svg width="12" height="12" viewBox="0 0 12 12" fill="none" xmlns="http://www.w3.org/2000/svg">
<path fill-rule="evenodd" clip-rule="evenodd" d="M11.5033 0.252032C11.6578 0.371739 11.7813 0.527362 11.863 0.705574C11.9726 0.927667 12.0179 1.17635 11.9935 1.42312C11.9691 1.66988 11.8761 1.90474 11.7252 2.10078L10.7438 3.3615C10.6476 3.49352 10.5218 3.60088 10.3767 3.67488C10.2316 3.74888 10.0712 3.78745 9.9085 3.78745C9.74581 3.78745 9.58541 3.74888 9.4403 3.67488C9.29518 3.60088 9.16943 3.49352 9.07324 3.3615L8.10016 2.10078C7.94788 1.90558 7.85339 1.67113 7.82754 1.42434C7.80168 1.17755 7.84551 0.928433 7.95399 0.705574C8.03572 0.527362 8.15917 0.371739 8.31374 0.252032C8.46832 0.132324 8.64943 0.0520981 8.84156 0.018224C9.03369 -0.0156501 9.23111 -0.00216307 9.41693 0.0575301C9.60275 0.117223 9.77142 0.221344 9.9085 0.360976C10.0456 0.221344 10.2143 0.117223 10.4001 0.0575301C10.5859 -0.00216307 10.7833 -0.0156501 10.9754 0.018224C11.1676 0.0520981 11.3487 0.132324 11.5033 0.252032ZM10.0797 2.84881L11.0612 1.58808C11.1157 1.5148 11.1493 1.42784 11.1581 1.33669C11.167 1.24554 11.1508 1.1537 11.1113 1.07118C11.0808 1.00386 11.0322 0.946505 10.9709 0.905642C10.9096 0.864779 10.8381 0.842053 10.7646 0.840051C10.6686 0.846488 10.5788 0.890177 10.5141 0.961921L10.2343 1.26029C10.1952 1.30228 10.148 1.33575 10.0955 1.35863C10.0431 1.38151 9.98654 1.39332 9.92938 1.39332C9.87222 1.39332 9.81567 1.38151 9.76323 1.35863C9.71079 1.33575 9.66357 1.30228 9.62451 1.26029L9.3447 0.961921C9.31022 0.923906 9.26831 0.893461 9.2216 0.872491C9.17489 0.851521 9.12438 0.840478 9.07324 0.840051C8.99619 0.838024 8.92026 0.858859 8.85491 0.899961C8.78956 0.941062 8.73767 1.00061 8.70572 1.07118C8.66624 1.1537 8.65003 1.24554 8.65887 1.33669C8.66771 1.42784 8.70125 1.5148 8.75584 1.58808L9.73727 2.84881C9.75708 2.87574 9.78288 2.89764 9.81262 2.91272C9.84236 2.92781 9.8752 2.93566 9.9085 2.93566C9.9418 2.93566 9.97464 2.92781 10.0044 2.91272C10.0341 2.89764 10.0599 2.87574 10.0797 2.84881ZM9.64842 6.65691C9.72674 6.5781 9.83297 6.53382 9.94373 6.53382C10.0545 6.53382 10.1607 6.5781 10.239 6.65691C10.3174 6.73572 10.3614 6.84261 10.3614 6.95406C10.3105 8.31157 9.73771 9.59615 8.76381 10.5369C7.78992 11.4777 6.49101 12.0012 5.14098 11.997H4.98228H4.93216C4.89887 12.001 4.86522 12.001 4.83193 11.997C4.10054 11.9426 3.38877 11.7336 2.74306 11.3838C2.09735 11.0339 1.53222 10.5509 1.08455 9.96637C0.636882 9.38184 0.316738 8.70889 0.145014 7.99144C-0.0267107 7.27399 -0.046157 6.52817 0.0879445 5.80264C0.222046 5.07712 0.506681 4.3882 0.923273 3.78086C1.33986 3.17351 1.87905 2.66139 2.50564 2.27791C3.13223 1.89443 3.83213 1.64821 4.55968 1.55533C5.28723 1.46245 6.02607 1.52499 6.72798 1.73887C6.83375 1.7723 6.922 1.84665 6.9733 1.94556C7.0246 2.04447 7.03475 2.15983 7.00152 2.26627C6.9683 2.37271 6.89441 2.46151 6.79612 2.51313C6.69782 2.56475 6.58318 2.57496 6.4774 2.54153C5.84159 2.33577 5.16741 2.27917 4.5065 2.37604C3.84559 2.47292 3.21548 2.72072 2.66443 3.10045L3.01106 3.33578C3.2173 3.474 3.38628 3.66149 3.50289 3.8815C3.6195 4.10151 3.6801 4.34717 3.67927 4.59651V4.70157C3.67851 4.7961 3.7044 4.88891 3.75392 4.96924C3.80345 5.04956 3.87458 5.11412 3.95908 5.15543C4.12635 5.23872 4.26707 5.36753 4.36525 5.52724C4.46343 5.68694 4.51515 5.87115 4.51453 6.05895V6.36152C4.51453 6.63013 4.40849 6.88773 4.21974 7.07767C4.03099 7.2676 3.77498 7.3743 3.50804 7.3743H3.01524C2.97016 7.37537 2.92722 7.39387 2.89534 7.42595C2.86345 7.45803 2.84507 7.50124 2.84401 7.5466C2.84666 7.8123 2.74628 8.06858 2.5642 8.26101L1.56606 9.26539C2.2235 10.2078 3.21949 10.8558 4.3433 11.0724L4.26395 10.8329C4.14772 10.4797 4.17474 10.0946 4.33913 9.76128C4.54431 9.36263 4.89668 9.06086 5.32056 8.92079L5.67555 8.80312C5.78334 8.7665 5.89824 8.75616 6.01079 8.77297C6.12333 8.78977 6.23029 8.83323 6.32287 8.89978C6.46259 9.00216 6.56173 9.15105 6.60269 9.32002L7.02032 9.17294V9.02165C7.02168 8.91469 7.04676 8.80938 7.09372 8.71341C7.14069 8.61744 7.20835 8.53323 7.29178 8.46693C7.37808 8.3991 7.47849 8.35178 7.58553 8.32849C7.69256 8.3052 7.80343 8.30656 7.90987 8.33245L9.10847 8.63503C9.1824 8.47573 9.24519 8.31144 9.29641 8.14335L8.77019 7.87439C8.5177 7.74637 8.31274 7.54013 8.18551 7.28605C8.1353 7.18333 8.05735 7.09692 7.96059 7.03672C7.86383 6.97652 7.75217 6.94496 7.63841 6.94566C7.44262 6.94578 7.24952 6.89972 7.07461 6.81118C6.80106 6.67628 6.58572 6.44572 6.46888 6.16263C6.35205 5.87954 6.34171 5.5633 6.43981 5.2731C6.49199 5.09957 6.56197 4.93197 6.64863 4.77301C6.67605 4.725 6.7126 4.68289 6.75619 4.64909C6.79979 4.61529 6.84957 4.59047 6.9027 4.57603C6.95583 4.56159 7.01127 4.55782 7.06584 4.56494C7.12042 4.57206 7.17307 4.58993 7.22078 4.61752C7.26849 4.64511 7.31034 4.68189 7.34393 4.72576C7.37752 4.76963 7.40219 4.81972 7.41654 4.87318C7.43089 4.92664 7.43463 4.98243 7.42756 5.03734C7.42048 5.09226 7.40273 5.14524 7.3753 5.19325C7.31534 5.30698 7.26369 5.42496 7.22078 5.54625C7.19621 5.61197 7.18841 5.68284 7.19807 5.75238C7.20773 5.82192 7.23455 5.88792 7.27608 5.94434C7.31762 6.00076 7.37254 6.04581 7.43584 6.07538C7.49913 6.10494 7.56877 6.11807 7.63841 6.11358C7.9095 6.11383 8.17505 6.1908 8.40473 6.33571C8.6344 6.48062 8.81894 6.68761 8.93724 6.93305C8.98086 7.02756 9.05632 7.10348 9.15024 7.14737L9.49269 7.32387C9.51003 7.20125 9.52118 7.07782 9.5261 6.95406C9.5261 6.84261 9.5701 6.73572 9.64842 6.65691ZM2.55585 4.03759L2.00875 3.67198C1.39795 4.29791 0.987244 5.09342 0.829461 5.95617C0.671678 6.81891 0.774038 7.70943 1.12337 8.51316L1.95863 7.67267C1.97484 7.65603 1.98762 7.63632 1.99622 7.61468C2.00482 7.59304 2.00908 7.56991 2.00875 7.5466C2.00875 7.278 2.11479 7.02039 2.30354 6.83046C2.4923 6.64052 2.7483 6.53382 3.01524 6.53382H3.50804C3.55312 6.53275 3.59606 6.51426 3.62795 6.48217C3.65983 6.45009 3.67821 6.40688 3.67927 6.36152V6.05895C3.67892 6.02667 3.66978 5.99511 3.65285 5.96769C3.63591 5.94028 3.61183 5.91806 3.58322 5.90346C3.36067 5.79268 3.17344 5.62135 3.04278 5.4089C2.91212 5.19646 2.84325 4.95141 2.84401 4.70157V4.59651C2.84425 4.48688 2.81817 4.37882 2.768 4.28151C2.71783 4.1842 2.64505 4.10052 2.55585 4.03759ZM5.03657 10.5723L5.23286 11.1565C5.90188 11.1438 6.55905 10.9766 7.15358 10.6676C7.74812 10.3587 8.26408 9.91628 8.66161 9.37465L7.85558 9.17294V9.25699C7.85863 9.41107 7.81238 9.56205 7.72365 9.68766C7.63491 9.81327 7.5084 9.90685 7.36277 9.95459L6.71127 10.1731C6.60348 10.2097 6.48858 10.2201 6.37603 10.2033C6.26349 10.1865 6.15652 10.143 6.06394 10.0765C5.92422 9.97408 5.82509 9.82518 5.78413 9.65622L5.56696 9.73186C5.35312 9.80126 5.17475 9.95209 5.06998 10.1521C5.00519 10.2825 4.99321 10.4332 5.03657 10.5723Z" fill="url(#paint0_linear_3201_13708)"/>
<defs>
<linearGradient id="paint0_linear_3201_13708" x1="0" y1="0" x2="2.97012" y2="13.9259" gradientUnits="userSpaceOnUse">
<stop stop-color="#234157"/>
<stop offset="0.474206" stop-color="#387484"/>
<stop offset="1" stop-color="#34A182"/>
</linearGradient>
</defs>
</svg>
