<svg width="12" height="12" viewBox="0 0 12 12" fill="none" xmlns="http://www.w3.org/2000/svg">
<path d="M5.99972 0C5.41514 0 4.89191 0.39 4.54188 1.005L3.21395 3.33L4.02226 3.81L5.33576 1.5C5.57211 1.08375 5.81028 0.96 5.99972 0.96C6.18917 0.96 6.42733 1.08375 6.66369 1.5L8.10709 4.035L7.37096 4.5L9.6804 5.94V3.06L8.90096 3.54L7.45756 1.005C7.10754 0.39 6.5843 0 5.99972 0ZM3.19952 4.305L0.890073 5.745L1.59734 6.18L0.312711 8.445C-0.03551 9.05812 -0.113093 9.73687 0.182805 10.26C0.478703 10.7831 1.07772 11.04 1.77055 11.04H4.61405V10.08H1.77055C1.29242 10.08 1.06509 9.9225 0.976677 9.765C0.888269 9.6075 0.870226 9.34125 1.10658 8.925L2.37678 6.675L3.19952 7.185V4.305ZM10.5609 6.51L9.78144 7.005L10.8929 8.925C11.131 9.34312 11.1112 9.6075 11.0228 9.765C10.9344 9.9225 10.707 10.08 10.2289 10.08H7.84728V9.12L5.53783 10.56L7.84728 12V11.04H10.2289C10.9217 11.04 11.5207 10.7831 11.8166 10.26C12.1125 9.73687 12.0368 9.06 11.6867 8.445V8.43L10.5609 6.51Z" fill="url(#paint0_linear_3201_13722)"/>
<defs>
<linearGradient id="paint0_linear_3201_13722" x1="0" y1="0" x2="2.97012" y2="13.9259" gradientUnits="userSpaceOnUse">
<stop stop-color="#234157"/>
<stop offset="0.474206" stop-color="#387484"/>
<stop offset="1" stop-color="#34A182"/>
</linearGradient>
</defs>
</svg>
