<svg width="12" height="12" viewBox="0 0 12 12" fill="none" xmlns="http://www.w3.org/2000/svg">
<path fill-rule="evenodd" clip-rule="evenodd" d="M5.06082 0.960052C5.25115 0.70522 5.21258 0.333372 4.97466 0.129506C4.73675 -0.0743596 4.38958 -0.0330431 4.19925 0.221789L1.21173 4.22172C1.13375 4.32612 1.09419 4.45017 1.09103 4.57426H0.455078C0.305823 4.57426 0.166055 4.66734 0.0810399 4.82335C-0.00397521 4.97937 -0.0234294 5.17848 0.0289776 5.35621L1.87728 11.6245C1.94389 11.8503 2.11369 12 2.30339 12H9.69661C9.88631 12 10.0561 11.8503 10.1227 11.6245L11.971 5.35621C12.0234 5.17848 12.004 4.97937 11.919 4.82335C11.8339 4.66734 11.6942 4.57426 11.5449 4.57426H10.9087C10.9056 4.45017 10.866 4.32612 10.788 4.22172L7.80051 0.221789C7.61018 -0.0330431 7.26302 -0.0743596 7.0251 0.129506C6.78718 0.333372 6.74861 0.70522 6.93894 0.960052L9.63837 4.57426H2.36139L5.06082 0.960052ZM2.61875 10.8425L1.11175 5.73175H10.8882L9.38125 10.8425H2.61875ZM3.99055 7.50339C3.99055 7.18375 3.78681 6.92464 3.53548 6.92464C3.28415 6.92464 3.0804 7.18375 3.0804 7.50339V9.07045C3.0804 9.39008 3.28415 9.64919 3.53548 9.64919C3.78681 9.64919 3.99055 9.39008 3.99055 9.07045V7.50339ZM8.46452 6.92464C8.71585 6.92464 8.91959 7.18375 8.91959 7.50339V9.07045C8.91959 9.39008 8.71585 9.64919 8.46452 9.64919C8.21318 9.64919 8.00944 9.39008 8.00944 9.07045V7.50339C8.00944 7.18375 8.21318 6.92464 8.46452 6.92464ZM6.45507 7.50339C6.45507 7.18375 6.25133 6.92464 6 6.92464C5.74867 6.92464 5.54492 7.18375 5.54492 7.50339V9.07045C5.54492 9.39008 5.74867 9.64919 6 9.64919C6.25133 9.64919 6.45507 9.39008 6.45507 9.07045V7.50339Z" fill="url(#paint0_linear_3201_13723)"/>
<defs>
<linearGradient id="paint0_linear_3201_13723" x1="0" y1="0" x2="2.97012" y2="13.9259" gradientUnits="userSpaceOnUse">
<stop stop-color="#234157"/>
<stop offset="0.474206" stop-color="#387484"/>
<stop offset="1" stop-color="#34A182"/>
</linearGradient>
</defs>
</svg>
