<svg width="12" height="12" viewBox="0 0 12 12" fill="none" xmlns="http://www.w3.org/2000/svg">
<path fill-rule="evenodd" clip-rule="evenodd" d="M7.43337 3.47725L9.22042 1.46187C9.22042 1.46187 10.2926 0.622126 10.8288 1.12597C11.3649 1.62982 10.4714 2.63751 10.4714 2.63751L8.5056 4.31699L8.86301 9.69135L7.96949 10.3631L6.89726 5.82853L3.68058 9.01955V10.3631L2.96576 11.0349L2.78706 9.35545H1.00001L1.68776 8.52093H2.96576L6.00374 4.98879L1.33035 4.31699L2.25094 3.47725H7.43337ZM4.1003 5.69086L1.18302 5.2715C0.804422 5.21708 0.491234 4.95888 0.376404 4.6065C0.261574 4.25413 0.365251 3.86941 0.643422 3.61567L1.56402 2.77593C1.74968 2.60657 1.99547 2.51221 2.25094 2.51221H6.97293L8.46062 0.834442C8.49993 0.79011 8.54332 0.74931 8.59027 0.712542L9.22042 1.46187C8.59027 0.712542 8.59069 0.712213 8.59069 0.712213L8.59113 0.711863L8.59211 0.711103L8.59437 0.709346L8.60012 0.704903L8.61644 0.692469C8.62941 0.682679 8.64658 0.669907 8.66754 0.654735C8.7093 0.624508 8.76702 0.584101 8.8373 0.538369C8.97454 0.449078 9.17533 0.329248 9.4098 0.226415C9.63473 0.127763 9.95079 0.0177439 10.305 0.00189364C10.6821 -0.0149856 11.146 0.0771098 11.5264 0.434613C11.9108 0.795865 12.0169 1.24683 11.9979 1.62184C11.9803 1.96831 11.8589 2.27425 11.7529 2.48771C11.6419 2.71118 11.5131 2.90178 11.4176 3.03133C11.3687 3.0978 11.3254 3.15235 11.2931 3.19181C11.2769 3.21163 11.2632 3.22786 11.2527 3.24013L11.2394 3.25558L11.2346 3.26104L11.2327 3.26318L11.2319 3.26411L11.2315 3.26453C11.2315 3.26453 11.2312 3.26493 10.4714 2.63751L11.2312 3.26493C11.2012 3.29876 11.1688 3.33055 11.1342 3.36006L9.5349 4.72649L9.86096 9.62954C9.88215 9.94821 9.73863 10.2564 9.4776 10.4526L8.58408 11.1244C8.31434 11.3272 7.95593 11.383 7.63384 11.2722C7.31174 11.1614 7.07061 10.8995 6.99454 10.5778L6.33151 7.77376L4.68059 9.41151V10.3631C4.68059 10.6235 4.57156 10.8728 4.37827 11.0545L3.66345 11.7263C3.38869 11.9845 2.98511 12.0683 2.6246 11.9421C2.26408 11.8158 2.01016 11.5017 1.97099 11.1335L1.88448 10.3205H1.00001C0.616125 10.3205 0.266122 10.1084 0.0993293 9.77474C-0.0674636 9.44107 -0.0216011 9.04471 0.21735 8.75477L0.905094 7.92024C1.09481 7.69003 1.38297 7.55589 1.68776 7.55589H2.49619L4.1003 5.69086Z" fill="url(#paint0_linear_3201_13730)"/>
<defs>
<linearGradient id="paint0_linear_3201_13730" x1="0" y1="0" x2="2.97012" y2="13.9259" gradientUnits="userSpaceOnUse">
<stop stop-color="#234157"/>
<stop offset="0.474206" stop-color="#387484"/>
<stop offset="1" stop-color="#34A182"/>
</linearGradient>
</defs>
</svg>
