<svg width="12" height="12" viewBox="0 0 12 12" fill="none" xmlns="http://www.w3.org/2000/svg">
<path fill-rule="evenodd" clip-rule="evenodd" d="M11.514 5.0779C11.5383 5.49081 11.4669 5.90375 11.304 6.29226C11.6761 6.71445 11.9092 7.21645 11.9784 7.74466C12.0475 8.27287 11.9501 8.80747 11.6966 9.29138C11.4523 9.70642 11.1024 10.0678 10.6734 10.348C10.2444 10.6283 9.74756 10.8202 9.2205 10.9091H9.12627H7.55581C7.41697 10.9091 7.28382 10.8612 7.18564 10.776C7.08747 10.6908 7.03232 10.5752 7.03232 10.4547C7.03232 10.3342 7.08747 10.2186 7.18564 10.1334C7.28382 10.0481 7.41697 10.0003 7.55581 10.0003H9.07392C9.42809 9.93752 9.76171 9.80708 10.0506 9.61844C10.3394 9.4298 10.5762 9.18768 10.7438 8.90968C10.9331 8.54206 10.9929 8.13405 10.9156 7.73702C10.8383 7.33999 10.6273 6.97169 10.3094 6.67851C10.2387 6.61044 10.1933 6.52542 10.1793 6.43459C10.1653 6.34376 10.1833 6.25138 10.2308 6.16957C10.3879 5.87795 10.4693 5.55995 10.4693 5.23802C10.4693 4.9161 10.3879 4.5981 10.2308 4.30648C10.0561 4.02125 9.8112 3.77287 9.51358 3.57891C9.21596 3.38495 8.87285 3.25016 8.50855 3.18408C8.3866 3.16472 8.27652 3.10842 8.19792 3.02521C8.11931 2.942 8.07727 2.83726 8.07929 2.72966C8.07929 2.24759 7.85868 1.78527 7.46599 1.44439C7.0733 1.10352 6.54069 0.912015 5.98534 0.912015C5.42999 0.912015 4.89739 1.10352 4.5047 1.44439C4.11201 1.78527 3.89139 2.24759 3.89139 2.72966C3.89342 2.83726 3.85138 2.942 3.77277 3.02521C3.69416 3.10842 3.58409 3.16472 3.46214 3.18408C3.09892 3.24944 2.75656 3.38296 2.45905 3.57527C2.16155 3.76759 1.91608 4.01405 1.73986 4.29739C1.58278 4.58901 1.50137 4.90701 1.50137 5.22893C1.50137 5.55086 1.58278 5.86886 1.73986 6.16048C1.78742 6.24229 1.80537 6.33467 1.79135 6.4255C1.77734 6.51633 1.73202 6.60135 1.66134 6.66942C1.34336 6.9626 1.13244 7.3309 1.05512 7.72793C0.977803 8.12496 1.03755 8.53297 1.22684 8.90059C1.39325 9.18029 1.62954 9.42418 1.91847 9.61444C2.20739 9.8047 2.54163 9.93652 2.89677 10.0003H4.41488C4.55372 10.0003 4.68687 10.0481 4.78504 10.1334C4.88322 10.2186 4.93837 10.3342 4.93837 10.4547C4.93837 10.5752 4.88322 10.6908 4.78504 10.776C4.68687 10.8612 4.55372 10.9091 4.41488 10.9091H2.84442H2.75019C2.22785 10.817 1.73621 10.6237 1.31199 10.3436C0.887766 10.0635 0.54192 9.70378 0.300271 9.29138C0.0488773 8.80783 -0.0473501 8.2743 0.021759 7.74718C0.0908681 7.22007 0.322747 6.71896 0.692886 6.2968C0.527434 5.90952 0.454636 5.49704 0.478937 5.08452C0.503238 4.67201 0.624128 4.26812 0.834228 3.89751C1.26619 3.17563 2.00652 2.62922 2.89677 2.37522C2.99506 1.71847 3.36537 1.11523 3.93854 0.678141C4.51172 0.241051 5.24858 0 6.01152 0C6.77446 0 7.51132 0.241051 8.08449 0.678141C8.65767 1.11523 9.02798 1.71847 9.12627 2.37522C9.5638 2.49857 9.96894 2.69575 10.3184 2.95543C10.6679 3.21511 10.9548 3.53218 11.1626 3.88842C11.3703 4.26051 11.4898 4.66499 11.514 5.0779ZM8.15657 6.94992C8.13649 7.00166 8.10492 7.049 8.06388 7.08894L6.43166 8.96531V11.6033C6.43166 11.7085 6.38616 11.8094 6.30518 11.8838C6.22421 11.9582 6.11437 12 5.99985 12C5.88533 12 5.7755 11.9582 5.69452 11.8838C5.61354 11.8094 5.56805 11.7085 5.56805 11.6033V6.98184L3.93583 5.10547C3.89479 5.06553 3.86322 5.01818 3.84313 4.96645C3.82304 4.91471 3.81487 4.8597 3.81913 4.80491C3.82339 4.75011 3.83999 4.69673 3.86788 4.64814C3.89577 4.59955 3.93434 4.55681 3.98115 4.52263C4.02796 4.48845 4.08198 4.46357 4.1398 4.44957C4.19762 4.43558 4.25798 4.43276 4.31704 4.44131C4.37611 4.44986 4.43259 4.46959 4.48293 4.49924C4.53326 4.52889 4.57634 4.56783 4.60944 4.61357L5.56805 5.71242V3.66944C5.56805 3.56423 5.61354 3.46333 5.69452 3.38894C5.7755 3.31454 5.88533 3.27275 5.99985 3.27275C6.11437 3.27275 6.22421 3.31454 6.30518 3.38894C6.38616 3.46333 6.43166 3.56423 6.43166 3.66944V7.69589L7.39026 6.59704C7.42336 6.5513 7.46644 6.51236 7.51678 6.48271C7.56711 6.45306 7.6236 6.43333 7.68266 6.42478C7.74173 6.41623 7.80208 6.41905 7.8599 6.43305C7.91772 6.44704 7.97175 6.47192 8.01855 6.5061C8.06536 6.54028 8.10393 6.58302 8.13182 6.63161C8.15971 6.6802 8.17631 6.73359 8.18057 6.78838C8.18483 6.84317 8.17666 6.89818 8.15657 6.94992Z" fill="url(#paint0_linear_3201_13711)"/>
<defs>
<linearGradient id="paint0_linear_3201_13711" x1="0" y1="0" x2="2.97012" y2="13.9259" gradientUnits="userSpaceOnUse">
<stop stop-color="#234157"/>
<stop offset="0.474206" stop-color="#387484"/>
<stop offset="1" stop-color="#34A182"/>
</linearGradient>
</defs>
</svg>
